<?xml version="1.0" standalone="no"?>
<!DOCTYPE svg PUBLIC "-//W3C//DTD SVG 1.1//EN" "http://www.w3.org/Graphics/SVG/1.1/DTD/svg11.dtd" >
<svg xmlns="http://www.w3.org/2000/svg">
<metadata>
This is a custom SVG webfont generated by Font Squirrel.
Copyright   : Copyright 19901998 Bitstream Inc  All rights reserved
</metadata>
<defs>
<font id="webfontediOcVn3" horiz-adv-x="1155" >
<font-face units-per-em="2048" ascent="1556" descent="-492" />
<missing-glyph horiz-adv-x="577" />
<glyph unicode=" "  horiz-adv-x="577" />
<glyph unicode="&#x09;" horiz-adv-x="577" />
<glyph unicode="&#xa0;" horiz-adv-x="577" />
<glyph unicode="!" horiz-adv-x="587" d="M223 0v266h142v-266h-142zM223 379v1077h142v-1077h-142z" />
<glyph unicode="&#x22;" horiz-adv-x="567" d="M98 881v553h101v-553h-101zM371 881v553h102v-553h-102z" />
<glyph unicode="#" horiz-adv-x="1574" d="M117 479l39 109h325l101 276h-353l35 107h354l173 483h127l-168 -483h264l172 483h127l-170 -483h315l-37 -107h-317l-98 -276h340l-37 -109h-340l-170 -479h-129l172 479h-269l-172 -479h-127l170 479h-327zM612 588h267l96 276h-266z" />
<glyph unicode="$" d="M152 432h139v-16q0 -141 71 -213q74 -74 213 -74q135 0 209 72q78 74 78 196q0 197 -309 297l-31 11q-193 66 -262 143q-72 82 -72 219q0 143 91 252q88 106 229 125v213h143v-213q150 -18 232 -113q83 -95 92 -252h-144v4q0 113 -67 177q-70 66 -176 65q-117 0 -189 -68 q-70 -68 -69 -182q0 -160 284 -258q20 -8 50 -17t41 -14q166 -61 233 -145q70 -84 70 -221q0 -174 -99 -287q-98 -114 -258 -129v-246h-143v246q-160 18 -258 135t-98 293z" />
<glyph unicode="%" horiz-adv-x="1794" d="M90 1126q0 150 104.5 254.5t254.5 104.5q152 0 256 -104.5t104 -254t-104.5 -254t-255.5 -104.5q-150 0 -254.5 104t-104.5 254zM219 1124q0 -96 65.5 -161.5t161.5 -65.5q94 0 160 65.5t66 161.5q0 94 -65.5 160t-160.5 66q-96 0 -161.5 -66t-65.5 -160zM451 -29 l778 1514h117l-779 -1514h-116zM987 329.5q0 149.5 104.5 254t254 104.5t254 -104.5t104.5 -254t-104.5 -254t-254 -104.5t-254 104.5t-104.5 254zM1114 330q0 -96 65.5 -162t162 -66t162 65.5t65.5 162t-66 159.5q-70 66 -162 66q-96 0 -161.5 -65.5t-65.5 -159.5z" />
<glyph unicode="&#x26;" horiz-adv-x="1419" d="M129 410q0 127 76 243q74 113 201 172q-88 78 -132 156q-37 68 -36 160q0 139 102 241q100 100 254 101q133 0 235 -103q100 -100 101 -239q0 -109 -72 -203q-70 -90 -207 -150l295 -272l172 453h156l-219 -555l325 -299l-90 -107l-297 268q-68 -145 -182 -227 q-111 -78 -258 -78q-174 0 -299 127.5t-125 311.5zM281 410q0 -131 79.5 -213t200.5 -82q94 0 174 61.5t154 194.5l-387 360q-109 -53 -164 -135q-57 -86 -57 -186zM387 1139q0 -68 37 -123q39 -59 131 -133q111 43 170 110q55 65 55 154q0 82 -57 143q-55 59 -135 60 q-90 0 -146 -58q-55 -58 -55 -153z" />
<glyph unicode="'" horiz-adv-x="294" d="M98 881v553h101v-553h-101z" />
<glyph unicode="(" horiz-adv-x="540" d="M125 168v706q0 227 75.5 377t231.5 234v-162q-92 -74 -129 -172t-37 -301v-657q0 -205 37 -304q37 -96 129 -170v-161q-156 84 -231.5 233.5t-75.5 376.5z" />
<glyph unicode=")" horiz-adv-x="540" d="M109 -281q90 72 127 170q39 104 38 304v657q0 197 -38 301q-39 102 -127 172v162q156 -84 231.5 -233.5t75.5 -377.5v-706q0 -227 -76 -376.5t-231 -233.5v161z" />
<glyph unicode="*" horiz-adv-x="1024" d="M125 1128l37 119l291 -96v305h114v-305l289 96l41 -119l-301 -86l205 -251l-105 -74l-186 264l-182 -264l-107 74l201 251z" />
<glyph unicode="+" horiz-adv-x="1705" d="M254 561v98h551v562h98v-562h549v-98h-549v-561h-98v561h-551z" />
<glyph unicode="," horiz-adv-x="577" d="M104 -162l156 428h143l-155 -428h-144z" />
<glyph unicode="-" horiz-adv-x="657" d="M94 483v133h469v-133h-469z" />
<glyph unicode="." horiz-adv-x="577" d="M217 0v266h143v-266h-143z" />
<glyph unicode="/" horiz-adv-x="567" d="M-49 -190l498 1646h120l-497 -1646h-121z" />
<glyph unicode="0" d="M86 512v432q0 145 20 213q23 78 66 133q68 92 176 146q102 51 230 51q229 0 360 -141q133 -143 133 -394v-446q0 -117 -18 -195q-18 -80 -62 -137q-66 -94 -178 -149q-111 -53 -235.5 -53.5t-229.5 48.5q-100 47 -178 148q-41 51 -64 137q-20 76 -20 207zM227 481 q0 -181 92 -282q92 -100 258 -100.5t258.5 100t92.5 278.5v502q0 174 -94 278q-92 100 -256 101q-166 0 -259 -101q-92 -102 -92 -284v-492z" />
<glyph unicode="1" d="M270 1331v125h406v-1456h-152v1331h-254z" />
<glyph unicode="2" d="M133 0v141l516 490q152 141 203 229q49 82 49 174q0 135 -90 230q-89 92 -227 92q-141 0 -228 -94q-84 -92 -84 -252v-21q0 -4 1 -11t1 -9h-141v22q0 221 129 358.5t334 137.5q186 0 315 -133t129 -330q0 -113 -55 -217q-53 -100 -172 -213l-491 -453h714v-141h-903z" />
<glyph unicode="3" d="M109 442h145v-12q0 -143 90 -240q88 -94 221 -94q143 0 236 94q92 96 92 242q0 168 -98.5 254t-286.5 86h-41q-6 0 -14.5 -1t-12.5 -1v121q4 0 12.5 -1t12.5 -1h39q141 0 217 59q72 57 72 178q0 102 -61.5 168t-156.5 66q-106 0 -167 -64q-59 -63 -64 -182h-133 q10 172 108 270q100 100 263 101q150 0 254 -107q104 -109 104 -252q0 -88 -33 -151q-33 -61 -108 -119q119 -63 180 -166q59 -98 59 -244q0 -199 -133 -337q-131 -137 -332 -138q-215 0 -337 125q-123 127 -127 346z" />
<glyph unicode="4" d="M88 281v127l660 1048h163v-1048h158v-127h-158v-281h-141v281h-682zM238 408h536l6 880z" />
<glyph unicode="5" d="M84 442h145q10 -147 111 -241q104 -98 240 -99q150 0 249 111q100 109 100.5 272.5t-100.5 264.5q-102 102 -266 102q-98 0 -168 -41q-78 -45 -133 -127l-110 51l129 721h657v-143h-535l-73 -406q59 43 125 66q59 20 133 20q215 0 350 -143q135 -144 135 -369 q0 -209 -145 -360q-143 -150 -353 -150q-197 0 -335 133q-142 135 -156 338z" />
<glyph unicode="6" d="M84 451q0 178 180 452l27 41l330 512h178l-340 -526q29 8 86 16q41 6 71 6q199 0 328 -139q129 -137 129 -346q0 -213 -141 -354.5t-356.5 -141.5t-352.5 138q-139 139 -139 342zM233 464.5q0 -153.5 104.5 -260t250 -106.5t239.5 103q96 106 97 262q0 160 -95 260 q-96 102 -243 102q-151 0 -252 -104q-101 -103 -101 -256.5z" />
<glyph unicode="7" d="M205 1313v143h803v-131l-582 -1325h-160l576 1313h-637z" />
<glyph unicode="8" d="M113 434q0 125 51 213t170 166q-80 53 -117 123q-39 72 -39 164q0 157 117 270q119 115 280 115q170 0 287 -110.5t117 -264.5q0 -100 -39 -172t-123 -125q113 -63 170 -155.5t57 -213.5q0 -207 -133 -340t-342 -133q-193 0 -323 135q-133 138 -133 328zM258 418 q0 -135 90 -230q90 -92 221 -92q143 0 235.5 92.5t92.5 235.5q0 145 -86 235q-86 88 -231 89q-150 0 -236 -89t-86 -241zM322 1122q0 -106 69 -176q68 -68 178 -67q131 0 201 61t70 178q0 106 -72 172t-186 66q-111 0 -185 -68q-75 -70 -75 -166z" />
<glyph unicode="9" d="M84 991q0 215 139 355q141 141 357 141q209 0 352 -139q141 -139 141 -340q0 -178 -180 -453q-8 -14 -15.5 -24.5l-11.5 -16.5l-329 -514h-179l340 528q-29 -8 -86 -16q-39 -6 -71 -6q-199 0 -328 137q-129 139 -129 348zM233 995q0 -160 95 -260q96 -102 243 -102 q151 0 252 104q100 102 101 256q0 158 -103 260q-104 104 -252 105q-143 0 -239.5 -102.5t-96.5 -260.5z" />
<glyph unicode=":" horiz-adv-x="587" d="M223 0v266h142v-266h-142zM223 834v266h142v-266h-142z" />
<glyph unicode=";" horiz-adv-x="587" d="M104 -162l156 428h143l-155 -428h-144zM223 834v266h142v-266h-142z" />
<glyph unicode="&#x3c;" horiz-adv-x="1705" d="M264 569v82l1178 484v-109l-1022 -416l1022 -413v-109z" />
<glyph unicode="=" horiz-adv-x="1705" d="M254 375v98h1198v-98h-1198zM254 748v98h1198v-98h-1198z" />
<glyph unicode="&#x3e;" horiz-adv-x="1705" d="M264 88v109l1022 413l-1022 416v109l1178 -484v-82z" />
<glyph unicode="?" horiz-adv-x="946" d="M45 1012q3 215 123 344t313 129q182 0 295 -119t113 -311q0 -186 -166 -334q-16 -14 -25 -23q-82 -76 -116.5 -145.5t-34.5 -155.5h-144q0 96 39 183q41 94 115 172l13.5 13t19.5 19.5l20 20.5q127 121 127 252q0 129 -71 205q-72 74 -193 73q-131 0 -202.5 -84 t-77.5 -239h-148zM403 0v266h144v-266h-144z" />
<glyph unicode="@" horiz-adv-x="2048" d="M117 537q0 203 86 381q86 176 252 315q137 113 299 166q166 55 360 55q154 0 307 -45q143 -43 250 -123q131 -100 195 -227q66 -131 65 -281q0 -172 -61.5 -309t-181.5 -233q-70 -53 -150 -82q-82 -29 -160 -29q-100 0 -145 37q-47 37 -47 114l1 6q1 5 1 9v14 q-55 -90 -127 -133q-78 -47 -168 -47q-154 0 -234 84q-80 82 -79 244q0 231 135 388.5t329 157.5q92 0 158 -41q63 -39 96 -122l60 125h94l-139 -562q-8 -35 -13 -63q-4 -25 -4 -29q0 -43 29 -67q27 -25 78 -25q53 0 106 21q55 22 105 61q96 76 151 205q53 125 54 282 q0 252 -197 416q-199 164 -510 164q-175 0 -319 -49q-147 -51 -263 -150q-152 -129 -223 -291q-74 -166 -74 -362q0 -178 60 -305q59 -129 184 -232q100 -82 244 -129q137 -45 301 -45q170 0 334 49q166 49 301 144l39 -55q-147 -111 -311 -166.5t-343 -55.5q-188 0 -348 47 q-156 45 -274 138q-156 119 -229.5 274.5t-73.5 360.5zM702 444q0 -113 55.5 -174t151.5 -61q104 0 189 72q86 72 112 188l62 248q-18 94 -76 145q-59 53 -139 53q-152 0 -254 -133q-101 -131 -101 -338z" />
<glyph unicode="A" horiz-adv-x="1222" d="M-51 0l565 1456h172l563 -1456h-153l-174 457h-648l-174 -457h-151zM324 588h548l-276 731z" />
<glyph unicode="B" horiz-adv-x="1040" d="M135 0v1456h271q244 0 362 -94q117 -92 117 -291q0 -102 -39 -172q-39 -68 -117 -115q119 -49 176 -137q59 -90 60 -217q0 -221 -123 -325.5t-385 -104.5h-322zM272 139h201q176 0 262 68q84 66 84 205t-86 206q-88 70 -260 70h-201v-549zM272 827h86q213 0 297 57.5 t84 192.5q0 125 -82 182.5t-262 57.5h-123v-490z" />
<glyph unicode="C" horiz-adv-x="1538" d="M61 737q0 154 57.5 289t170.5 248q106 106 233 158q131 53 281 53q221 0 391 -107q176 -109 274 -299h-172q-98 135 -219 201q-119 63 -276 63q-244 0 -416 -180t-172 -428q0 -264 172 -444q172 -182 416 -182q152 0 272 63q127 68 213 188h170q-102 -188 -268 -288 q-168 -100 -377 -101q-319 0 -535 219q-215 218 -215 547z" />
<glyph unicode="D" horiz-adv-x="1363" d="M135 0v1456h414q166 0 287 -35q117 -33 206 -108q127 -104 195 -256t68 -326q0 -195 -76 -352q-74 -156 -215 -258q-92 -66 -199 -92q-111 -29 -330 -29h-350zM276 137h297q279 0 428.5 156t149.5 442q0 147 -51 264q-53 123 -146 203q-70 59 -159 88q-86 27 -256 27 h-263v-1180z" />
<glyph unicode="E" horiz-adv-x="1026" d="M135 0v1456h756v-143h-612v-510h612v-144h-612v-518h612v-141h-756z" />
<glyph unicode="F" horiz-adv-x="989" d="M135 0v1456h719v-143h-578v-510h578v-144h-578v-659h-141z" />
<glyph unicode="G" horiz-adv-x="1611" d="M61 737q0 154 57.5 289t170.5 248q108 108 239 160q129 51 291 51q211 0 381 -103q168 -100 270 -292h-176q-106 133 -221 194q-117 61 -262 62q-252 0 -424 -179q-174 -180 -174 -432q0 -268 172 -446q174 -180 428 -180q199 0 358 129q158 127 207 331h-735v129h905 q-18 -317 -229 -522t-518 -205q-315 0 -527 219q-213 223 -213 547z" />
<glyph unicode="H" horiz-adv-x="1249" d="M135 0v1456h144v-653h692v653h143v-1456h-143v664h-692v-664h-144z" />
<glyph unicode="I" horiz-adv-x="411" d="M133 0v1456h143v-1456h-143z" />
<glyph unicode="J" horiz-adv-x="913" d="M27 354h143q6 -109 70 -174q63 -68 157 -67q135 0 189 84q55 86 55 338v921h143v-981q0 -119 -14 -201q-12 -70 -45 -124q-49 -86 -139 -133.5t-197 -47.5q-164 0 -262 105q-100 106 -100 280z" />
<glyph unicode="K" horiz-adv-x="1099" d="M133 0v1456h141v-809l674 809h170l-588 -704l578 -752h-176l-494 645l-164 -196v-449h-141z" />
<glyph unicode="L" horiz-adv-x="843" d="M135 0v1456h144v-1315h512v-141h-656z" />
<glyph unicode="M" horiz-adv-x="1691" d="M143 0v1456h211l504 -1266l502 1266h211v-1456h-137v1286l-512 -1286h-129l-512 1286v-1286h-138z" />
<glyph unicode="N" horiz-adv-x="1363" d="M131 0v1456h172l799 -1282l-17 1282h142v-1456h-172l-799 1284l16 -1284h-141z" />
<glyph unicode="O" horiz-adv-x="1611" d="M61 737q0 154 58 289q59 139 170 248q111 106 235 158q131 53 279 53q154 0 285 -53.5t237 -159.5q113 -111 168 -244q55 -135 55 -290.5t-49 -284.5t-143 -236q-113 -125 -250 -184q-141 -61 -305 -62q-313 0 -527 222q-213 222 -213 544zM211 735q0 -262 174 -446 q172 -180 426 -180q248 0 420 182q170 178 170 448q0 248 -176 428q-175 178 -424 179q-100 0 -194.5 -35t-172.5 -101q-106 -90 -164 -215q-59 -129 -59 -260z" />
<glyph unicode="P" horiz-adv-x="1032" d="M119 0v1456h309q139 0 213 -14q84 -16 133 -45q96 -59 147.5 -149.5t51.5 -209.5q0 -111 -47 -204q-46 -92 -129 -148q-57 -39 -138 -57q-72 -16 -206 -17h-191v-612h-143zM262 758h211q178 0 260 67q84 68 84 207q0 147 -84 213q-86 68 -272 68h-199v-555z" />
<glyph unicode="Q" horiz-adv-x="1611" d="M61 737q0 154 58 289q59 139 170 248q111 106 235 158q131 53 279 53q322 0 532 -217q213 -219 213 -555q0 -166 -57 -295q-59 -133 -178 -244q47 -31 100 -43q66 -14 133 -14h19v-127h-13q-57 -4 -59 -4q-74 0 -147 26q-82 29 -146 76q-86 -55 -188 -88 q-92 -29 -209 -29q-311 0 -526.5 221t-215.5 545zM211 743q0 -47 6 -94q6 -43 19 -94q74 35 153 55q66 16 158 17q170 0 315 -78q150 -80 340 -285q94 94 148 219q51 121 51 256q0 248 -176 428q-175 178 -424 179q-242 0 -416 -180.5t-174 -422.5zM285 426 q82 -150 223 -236q137 -84 303 -84q66 0 133 19q76 20 141 53q-190 197 -297 252q-115 59 -256 59q-55 0 -116 -16q-72 -18 -131 -47z" />
<glyph unicode="R" horiz-adv-x="1138" d="M115 0v1456h391q119 0 207 -20q80 -18 143 -64q88 -63 137 -164q51 -106 51 -215q0 -170 -100 -290.5t-252 -133.5l352 -569h-170l-432 702h138q139 0 225 80t86 209q0 78 -27 139q-29 68 -78 111q-43 40 -104 55q-66 16 -215 17h-211v-1313h-141z" />
<glyph unicode="S" horiz-adv-x="950" d="M57 416h140q4 -137 75 -215q74 -80 191 -80q127 0 201 80q76 82 75 215q0 199 -307 299q-14 4 -22.5 7t-12.5 5q-164 57 -231 139q-70 84 -70 221q0 172 109 285q106 111 280 111q166 0 260.5 -100.5t106.5 -284.5h-135q-12 123 -72 184q-61 63 -160 64q-109 0 -176 -70 q-70 -74 -69 -180q0 -57 20 -99q23 -43 66 -75q43 -31 176 -76q100 -35 114 -39q143 -57 205 -141q61 -86 62 -224q0 -215 -115 -342q-117 -129 -307 -129q-178 0 -289 123q-113 125 -115 322z" />
<glyph unicode="T" horiz-adv-x="749" d="M12 1313v143h725v-143h-291v-1313h-143v1313h-291z" />
<glyph unicode="U" d="M113 530v926h143v-921q0 -113 8 -160q10 -61 29 -94q41 -84 115 -129q78 -47 170 -48q164 0 243 113q80 115 80 348v891h141v-926q0 -285 -112 -421q-115 -139 -342 -140q-248 0 -361 135q-114 137 -114 426z" />
<glyph unicode="V" horiz-adv-x="1138" d="M-41 1456h143l461 -1241l463 1241h143l-548 -1456h-113z" />
<glyph unicode="W" horiz-adv-x="1662" d="M-31 1456h142l362 -1194l295 1194h131l293 -1194l364 1194h140l-451 -1456h-119l-292 1188l-293 -1188h-119z" />
<glyph unicode="X" horiz-adv-x="1163" d="M-6 0l506 733l-494 723h178l400 -604l399 604h176l-493 -723l505 -733h-180l-407 618l-414 -618h-176z" />
<glyph unicode="Y" horiz-adv-x="980" d="M-49 1456h164l372 -756l377 756h160l-467 -921v-535h-141v537z" />
<glyph unicode="Z" horiz-adv-x="937" d="M39 0v137l680 1176h-639v143h805v-137l-682 -1178h696v-141h-860z" />
<glyph unicode="[" horiz-adv-x="540" d="M133 -410v1866h332v-119h-191v-1630h191v-117h-332z" />
<glyph unicode="\" horiz-adv-x="567" d="M0 1456h119l499 -1646h-120z" />
<glyph unicode="]" horiz-adv-x="540" d="M76 -293h190v1630h-190v119h332v-1866h-332v117z" />
<glyph unicode="^" horiz-adv-x="2048" d="M422 901l532 557h140l530 -557h-143l-457 455l-459 -455h-143z" />
<glyph unicode="_" horiz-adv-x="1024" d="M0 -383h1024v-100h-1024v100z" />
<glyph unicode="`" horiz-adv-x="1024" d="M276 1597h152l209 -350h-92z" />
<glyph unicode="a" horiz-adv-x="1288" d="M57 545q0 250 164 413q166 166 412 166q129 0 233 -51q106 -51 176 -149v176h138v-1100h-138v174q-63 -94 -178 -149q-109 -53 -243 -54q-244 0 -404 166t-160 408zM203 539q0 -180 125 -310q123 -127 297 -127q166 0 293 134q125 131 124 321q0 178 -124 305 q-127 131 -289 131q-174 0 -301 -131q-125 -126 -125 -323z" />
<glyph unicode="b" horiz-adv-x="1288" d="M109 0v1456h139v-459v-82q88 106 194 158q104 51 238 51q231 0 393 -168q160 -166 160 -405q0 -246 -164 -414q-163 -166 -412 -166q-121 0 -223 49q-109 53 -186 146v-166h-139zM248 539q0 -178 125 -306q127 -131 286 -131q176 0 301 131.5t125 323.5q0 180 -124 309 q-123 127 -297 127q-172 0 -295 -133q-121 -128 -121 -321z" />
<glyph unicode="c" horiz-adv-x="1239" d="M57 547q0 244 166 413.5t406 169.5q178 0 315 -96t205 -272h-156q-63 117 -159 178q-90 57 -222 57q-169 0 -288 -129q-119 -127 -119 -319q0 -190 118.5 -317.5t294.5 -127.5q129 0 226 64q98 63 149 176h156q-66 -180 -201 -276q-137 -98 -323 -99q-238 0 -404 170 q-164 166 -164 408z" />
<glyph unicode="d" horiz-adv-x="1288" d="M57 551q0 242 160 407.5t404 165.5q125 0 237 -51q106 -49 180 -147v245v285h142v-1456h-142v166q-72 -90 -184 -143q-109 -51 -233 -52q-240 0 -402 168t-162 412zM203 557q0 -193 125 -324t301 -131q164 0 288.5 131.5t124.5 305.5q0 190 -124 321q-127 133 -293 133 q-174 0 -297 -127q-125 -129 -125 -309z" />
<glyph unicode="e" horiz-adv-x="1239" d="M53 551q0 254 162 416q164 164 416 163q250 0 405.5 -169.5t155.5 -444.5v-10h-993q12 -178 131 -291q117 -111 291 -111q127 0 223 63.5t153 180.5h160q-76 -184 -213 -280q-138 -98 -319 -99q-242 0 -406 170q-166 172 -166 412zM203 625h833q-41 186 -147 278 q-111 94 -279 94q-162 0 -270 -100q-112 -104 -137 -272z" />
<glyph unicode="f" horiz-adv-x="561" d="M25 977v123h141v30q0 176 88 259q90 84 272 84h13v-127q-129 -4 -179 -50q-53 -49 -53 -166v-30h232v-123h-230v-977h-137v977h-147z" />
<glyph unicode="g" horiz-adv-x="1280" d="M53 553q0 244 162 408q162 166 401 165q133 0 240 -51t180 -155v180h138v-918q0 -289 -143.5 -450.5t-399.5 -161.5q-186 0 -322 92q-131 90 -172 248h164q31 -96 117 -150q84 -53 203 -53q188 0 301 125q115 127 114 334v29q-80 -109 -182 -164q-100 -55 -225 -56 q-249 0 -412 166q-164 168 -164 412zM203 559q0 -195 123 -324t295 -129q163 0 288 130q125 127 125 307q0 190 -123 321q-123 133 -290 133q-172 0 -295 -127q-123 -125 -123 -311z" />
<glyph unicode="h" horiz-adv-x="1142" d="M111 0v1456h139v-485q63 78 147 112q90 39 191 39q229 0 338 -133q106 -131 106 -430v-559h-139v561q0 238 -71.5 332t-241.5 94q-96 0 -168 -39t-115 -110q-29 -55 -37 -103q-10 -66 -10 -200v-535h-139z" />
<glyph unicode="i" horiz-adv-x="370" d="M115 0v1100h141v-1100h-141zM115 1229v227h141v-227h-141z" />
<glyph unicode="j" horiz-adv-x="370" d="M-20 -223q78 0 106 30q29 33 29 168v1125h141v-1104q0 -201 -55 -275q-57 -76 -191 -75h-30v131zM115 1229v227h141v-227h-141z" />
<glyph unicode="k" horiz-adv-x="847" d="M115 0v1456h141v-866l397 510h162l-399 -510l485 -590h-178l-467 573v-573h-141z" />
<glyph unicode="l" horiz-adv-x="370" d="M115 0v1456h141v-1456h-141z" />
<glyph unicode="m" horiz-adv-x="1906" d="M111 0v1100h139v-125q66 74 149 110q86 37 193 37q121 0 227 -53q102 -51 158 -141q70 96 166 145q98 49 223 49q224 0 326 -135q102 -137 102 -432v-555h-135v584q0 217 -72 311q-72 92 -235 92q-96 0 -166 -39t-113 -110q-25 -47 -37 -103q-10 -49 -10 -200v-535h-133 v616q0 190 -78 280.5t-235 90.5q-96 0 -168 -39t-115 -110q-29 -55 -37 -103q-10 -66 -10 -200v-535h-139z" />
<glyph unicode="n" horiz-adv-x="1142" d="M113 0v1100h137v-125q63 74 151 110q86 37 195 37q123 0 215 -45q94 -45 150 -129q41 -66 55 -139q16 -86 16 -234v-575h-139v616q0 194 -74 283q-74 88 -239 88q-96 0 -168 -39t-115 -110q-29 -55 -37 -103q-10 -66 -10 -200v-535h-137z" />
<glyph unicode="o" horiz-adv-x="1239" d="M53 549q0 242 166 414t393 172q240 0 408 -168t168 -404q0 -248 -164 -420q-166 -174 -401 -174q-240 0 -404 170q-166 172 -166 410zM201 551q0 -186 121 -318q120 -129 301 -129q176 0 297 129q121 131 120 320q0 197 -122.5 321.5t-307.5 124.5q-169 0 -288 -129 q-121 -131 -121 -319z" />
<glyph unicode="p" horiz-adv-x="1288" d="M109 -356v1456h139v-180q63 96 172 149q111 55 237 55q249 0 412 -166q164 -168 164 -413q0 -244 -162 -408q-162 -166 -403 -166q-137 0 -242 52q-106 51 -178 151v-76v-164v-290h-139zM248 557q0 -186 125 -321q123 -133 291 -134q174 0 297 127q125 129 124 310 q0 197 -124 323q-127 131 -302 131q-164 0 -286 -131q-125 -135 -125 -305z" />
<glyph unicode="q" horiz-adv-x="1288" d="M57 545q0 250 164 413q166 166 412 166q127 0 229 -51q106 -53 176 -149v176h142v-1456h-142v522q-68 -88 -180 -143q-104 -51 -237 -52q-244 0 -404 166t-160 408zM203 539q0 -180 125 -310q123 -127 297 -127q166 0 293 134q125 131 124 321q0 178 -124 305 q-127 131 -289 131q-174 0 -301 -131q-125 -126 -125 -323z" />
<glyph unicode="r" horiz-adv-x="512" d="M111 0v1100h133v-127q51 72 114 106q61 35 144 37v-153q-132 -12 -191 -80q-57 -66 -57 -219v-664h-143z" />
<glyph unicode="s" horiz-adv-x="796" d="M43 346h145v-4q0 -100 60 -170q59 -68 145 -68q84 0 137 52q55 53 55.5 131t-42.5 127q-39 45 -158 90q-182 63 -240 133q-55 68 -55 182q0 129 94.5 219t225.5 90q143 0 225 -79.5t88 -223.5h-152q-6 78 -49 121t-121 43q-68 0 -114.5 -47t-46.5 -115q0 -49 18 -82 q16 -33 64 -61q43 -27 116.5 -47.5t102.5 -34.5q102 -41 151 -117q49 -74 49 -186q0 -141 -100 -236q-98 -92 -250 -92q-156 0 -250 101q-92 98 -98 274z" />
<glyph unicode="t" horiz-adv-x="557" d="M0 958v142h209v356h141v-356h209v-142h-209v-958h-141v958h-209z" />
<glyph unicode="u" horiz-adv-x="1142" d="M109 526v574h139v-584q0 -227 73.5 -319.5t239.5 -92.5q96 0 166 39q78 45 117 111q25 43 37 102q10 49 10 203v541h141v-1100h-141v119q-68 -80 -143 -113q-82 -35 -191 -35q-240 0 -344 129t-104 426z" />
<glyph unicode="v" horiz-adv-x="976" d="M-16 1100h149l352 -887l355 887h153l-450 -1100h-129z" />
<glyph unicode="w" horiz-adv-x="1419" d="M-6 1100h147l269 -824l252 824h102l252 -824l266 824h150l-371 -1100h-92l-258 838l-254 -838h-92z" />
<glyph unicode="x" horiz-adv-x="847" d="M-31 0l373 571l-328 529h158l256 -416l274 416h162l-356 -527l354 -573h-160l-282 459l-295 -459h-156z" />
<glyph unicode="y" horiz-adv-x="942" d="M-33 1100h162l340 -893l356 893h164l-594 -1456h-151l147 358z" />
<glyph unicode="z" horiz-adv-x="823" d="M20 0v133l574 834h-510v133h666v-152l-562 -807h592v-141h-760z" />
<glyph unicode="{" horiz-adv-x="1024" d="M174 477v109h23q6 0 13 -1t9 -1q137 0 194.5 63.5t57.5 216.5v242q0 225 70 297q70 74 266 74h47v-107h-37q-132 0 -178 -49q-45 -47 -45 -205v-242q0 -169 -43 -239q-45 -74 -154 -105q109 -31 154 -104q43 -71 43 -240v-241q0 -158 45 -205q45 -49 170 -49q2 0 9 1 t13 1h23v-107h-47q-197 0 -266.5 72t-69.5 297v244q0 154 -57.5 217t-194.5 63q-2 0 -9 -1t-13 -1h-23z" />
<glyph unicode="|" horiz-adv-x="1024" d="M459 -483v2048h108v-2048h-108z" />
<glyph unicode="}" horiz-adv-x="1024" d="M172 -307h39q129 0 176 49q45 47 45 203v241q0 170 43 242t154 102q-111 31 -154 103t-43 241v242q0 160 -45 207q-47 49 -170 49q-2 0 -9 -1t-13 -1h-23v107h47q195 0 266 -74q70 -72 70 -297v-242q0 -154 57.5 -217t194.5 -63q2 0 9 1t13 1h23v-109h-23q-6 0 -13 1 t-9 1q-137 0 -194.5 -63.5t-57.5 -216.5v-244q0 -225 -69.5 -297t-266.5 -72h-47v107z" />
<glyph unicode="~" horiz-adv-x="1705" d="M178 471v113q100 70 203 108q95 37 184 37q102 0 273 -61q8 -2 16 -6q18 -6 33 -13q160 -59 256 -59q82 0 178 39q88 35 209 121v-113q-96 -68 -199 -107q-94 -37 -188 -36q-102 0 -260 57q-12 4 -18.5 7t-10.5 3l-16 6q-172 63 -273 64q-84 0 -176 -37 q-80 -31 -211 -123z" />
<glyph d="M-6 532l26 111h119v168h-137l27 111h110v22q0 145 21 213q23 78 65 133q68 92 176 146q102 51 230 51q209 0 344 -129q133 -127 143 -285h-145q-23 135 -113 211q-90 74 -229 74q-166 0 -258 -101q-92 -102 -92 -284v-51h639l-27 -111h-612v-168h591l-26 -111h-565v-51 q0 -181 92 -282q92 -100 258 -101q131 0 223 70q86 66 115 194h147q-12 -70 -24 -102q-18 -45 -48 -86q-66 -96 -176 -149.5t-237 -53.5q-125 0 -230 49q-100 47 -178 148q-41 51 -63 137q-20 76 -21 207v20h-145z" />
<glyph unicode="&#x20ac;" d="M-6 532l26 111h119v168h-137l27 111h110v22q0 145 21 213q23 78 65 133q68 92 176 146q102 51 230 51q209 0 344 -129q133 -127 143 -285h-145q-23 135 -113 211q-90 74 -229 74q-166 0 -258 -101q-92 -102 -92 -284v-51h639l-27 -111h-612v-168h591l-26 -111h-565v-51 q0 -181 92 -282q92 -100 258 -101q131 0 223 70q86 66 115 194h147q-12 -70 -24 -102q-18 -45 -48 -86q-66 -96 -176 -149.5t-237 -53.5q-125 0 -230 49q-100 47 -178 148q-41 51 -63 137q-20 76 -21 207v20h-145z" />
<glyph unicode="&#xa0;" />
<glyph unicode="&#xa1;" horiz-adv-x="587" d="M223 0v1075h142v-1075h-142zM223 1190v266h142v-266h-142z" />
<glyph unicode="&#xa2;" d="M70 723q0 221 131 383t336 192v211h133v-206q178 -23 286 -119q117 -102 164 -275h-147q-43 137 -133 203q-92 68 -232 68q-166 0 -278 -131q-115 -133 -115 -326q0 -197 115 -324q117 -129 288 -129q127 0 224 74q92 72 131 205h147q-58 -181 -172 -283 q-113 -100 -278 -119v-229h-133v232q-201 27 -334 192q-133 164 -133 381z" />
<glyph unicode="&#xa3;" d="M68 672v139h145q-20 66 -31 121q-10 57 -10 94q0 197 131 326q135 131 334 131q174 0 287 -99q117 -100 149 -280h-131q-25 117 -106 186q-78 66 -197 66q-143 0 -235.5 -92.5t-92.5 -233.5q0 -47 13 -102q8 -35 43 -117h493v-141h-385q41 -72 62 -144q18 -68 18 -147 q0 -82 -16 -133q-20 -61 -56 -119q41 -4 60 -4q10 0 28.5 -1t26.5 -1q186 0 279 69q90 68 90 213q0 8 -4 50q-4 33 -13 77h142q8 -41 12 -71q2 -18 2 -47q0 -90 -31 -170q-29 -76 -90 -138q-59 -55 -137 -79q-80 -25 -213 -25h-514v127h223q43 51 62 109q18 55 18 129 q0 76 -23 147q-18 61 -82 160h-251z" />
<glyph unicode="&#xa4;" d="M-6 532l26 111h119v168h-137l27 111h110v22q0 145 21 213q23 78 65 133q68 92 176 146q102 51 230 51q209 0 344 -129q133 -127 143 -285h-145q-23 135 -113 211q-90 74 -229 74q-166 0 -258 -101q-92 -102 -92 -284v-51h639l-27 -111h-612v-168h591l-26 -111h-565v-51 q0 -181 92 -282q92 -100 258 -101q131 0 223 70q86 66 115 194h147q-12 -70 -24 -102q-18 -45 -48 -86q-66 -96 -176 -149.5t-237 -53.5q-125 0 -230 49q-100 47 -178 148q-41 51 -63 137q-20 76 -21 207v20h-145z" />
<glyph unicode="&#xa5;" d="M45 1446h162l375 -748l368 748h162l-260 -500h184v-110h-243l-88 -168h331v-111h-389v-557h-141v557h-391v111h334l-87 168h-247v110h188z" />
<glyph unicode="&#xa6;" horiz-adv-x="1024" d="M459 -350v758h108v-758h-108zM459 674v758h108v-758h-108z" />
<glyph unicode="&#xa7;" horiz-adv-x="1024" d="M109 694q0 98 49 172t149 125q-57 45 -80 90q-25 49 -24 117q0 125 88 207q86 80 225 80q145 0 229 -84t84 -230v-24h-129q-4 106 -53 162q-51 57 -143 57q-74 0 -117 -45q-45 -49 -45 -119q0 -55 35 -106q31 -43 106 -90l203 -121q119 -72 174 -146q51 -70 51 -168 q0 -89 -49 -159q-49 -72 -145 -121q52 -46 80 -105q27 -55 26 -123q0 -123 -92 -202.5t-233 -79.5q-151 0 -240 86q-90 86 -90 229q0 2 1 7.5t1 9.5v14h137v-12q0 -102 51 -156q51 -55 144 -55q82 0 133 45q49 43 49 121q0 63 -33 108q-34 46 -129 105l-215 133 q-100 61 -147 131q-51 73 -51 147zM248 729q0 -53 37 -106q37 -51 106 -97l248 -157q61 43 96 90q31 43 31 100q0 59 -35 111q-31 45 -121 102l-221 137q-68 -28 -104 -73q-37 -46 -37 -107z" />
<glyph unicode="&#xa8;" horiz-adv-x="1024" d="M256 1313v164h141v-164h-141zM625 1313v164h143v-164h-143z" />
<glyph unicode="&#xa9;" horiz-adv-x="1705" d="M121 723q0 141 57 281q55 135 162 241q100 102 231 158q127 53 281 53q147 0 282.5 -55t239.5 -160q98 -98 156 -235q55 -132 55 -283q0 -145 -53 -281q-51 -131 -158 -233q-106 -106 -241 -162q-139 -57 -281 -57q-147 0 -279 55q-135 57 -237 162 q-104 104 -159.5 237.5t-55.5 278.5zM201 723q0 -131 49 -248q47 -111 143 -211q100 -96 211 -143q117 -49 248 -49q125 0 250 51t217 143q94 92 139 205q47 119 47 252q0 132 -49 252q-49 119 -139 209q-94 94 -213 143q-120 49 -252 49q-133 0 -250 -49t-207 -139 q-94 -94 -143 -215q-51 -125 -51 -250zM469 727q0 205 106 326q109 123 285 123q133 0 227 -72q90 -70 103 -189h-117q-18 80 -76 123q-61 45 -141 45q-123 0 -190 -96q-68 -94 -68 -266q0 -162 70 -260q68 -94 188 -94q88 0 152 51q61 49 77 137h115q-12 -127 -108 -205 q-98 -80 -242 -80q-178 0 -279 121q-102 125 -102 336z" />
<glyph unicode="&#xaa;" horiz-adv-x="968" d="M43 1067q0 172 123 289t309 117q98 0 174 -35q82 -37 133 -105v123h103v-770h-103v123q-49 -68 -135 -104q-90 -39 -182 -39q-181 0 -301 116q-121 117 -121 285zM152 1063q0 -127 94 -217q90 -88 223 -88q125 0 219 94t94 223q0 123 -94 215t-217 92q-133 0 -225 -92 q-94 -94 -94 -227z" />
<glyph unicode="&#xab;" horiz-adv-x="933" d="M115 549l245 321h138l-248 -321l248 -320h-138zM418 549l246 321h137l-246 -321l246 -320h-137z" />
<glyph unicode="&#xac;" horiz-adv-x="1705" d="M254 758v100h1198v-502h-96v402h-1102z" />
<glyph unicode="&#xad;" horiz-adv-x="657" d="M94 483v133h469v-133h-469z" />
<glyph unicode="&#xae;" horiz-adv-x="1705" d="M121 723q0 141 57 281q55 135 162 241q100 102 231 158q127 53 281 53q152 0 285 -55t237 -160q98 -98 156 -235q55 -132 55 -283q0 -145 -53 -281q-51 -131 -158 -233q-106 -106 -241 -162q-139 -57 -281 -57q-147 0 -279 55q-135 57 -237 162q-104 104 -159.5 237.5 t-55.5 278.5zM201 723q0 -131 49 -248q47 -111 143 -211q100 -96 211 -143q117 -49 248 -49q125 0 250 51t217 143q94 92 139 205q47 119 47 250q0 135 -49 254q-47 117 -137 209q-100 96 -213 143q-119 49 -254 49q-129 0 -246 -49q-121 -51 -209 -139q-98 -100 -145 -217 q-51 -125 -51 -248zM565 313v844h309q178 0 263 -57q86 -59 86 -176q0 -90 -53.5 -149.5t-145.5 -72.5l188 -389h-145l-178 371h-197v-371h-127zM692 768h158q135 0 188.5 33t53.5 114.5t-58 118.5q-59 37 -184 37h-158v-303z" />
<glyph unicode="&#xaf;" horiz-adv-x="1024" d="M256 1346v116h512v-116h-512z" />
<glyph unicode="&#xb0;" horiz-adv-x="673" d="M59 1173.5q0 116.5 82 196.5q86 82 197 82q115 0 194 -82q82 -86 82 -196q0 -115 -81.5 -197t-196.5 -82t-197 82q-80 80 -80 196.5zM129 1173.5q0 -86.5 61 -147.5q59 -59 147.5 -59t148 59t59.5 147.5t-60 147.5q-61 61 -147 61t-147.5 -61t-61.5 -147.5z" />
<glyph unicode="&#xb1;" horiz-adv-x="1705" d="M254 51v99h1198v-99h-1198zM254 723v98h551v348h98v-348h549v-98h-549v-348h-98v348h-551z" />
<glyph unicode="&#xb2;" horiz-adv-x="763" d="M88 582v84l340 295q94 78 131 133q35 53 35 108q0 82 -59.5 137.5t-149.5 55.5q-94 0 -149.5 -55.5t-55.5 -151.5v-25h-92v13q0 132 86 215q88 84 219 84q121 0 207 -80t86 -199q0 -70 -37 -131q-39 -66 -112 -127l-324 -272h471v-84h-596z" />
<glyph unicode="&#xb3;" horiz-adv-x="763" d="M72 848h96v-8q0 -84 59 -144q57 -57 146 -57q96 0 155 57q61 57 62 146q0 98 -66 151q-63 51 -188 51h-45v72q4 0 8 -1t8 -1h25q92 0 141 37t49 106q0 59 -41 101q-39 39 -102 39q-72 0 -111 -39t-41 -109h-88q6 100 72 164q61 59 172 60q98 0 168 -63.5t70 -152.5 q0 -49 -23 -90t-72 -71q80 -39 119 -101q41 -63 41 -145q0 -119 -88 -203q-84 -82 -219 -82q-141 0 -223 74q-80 72 -84 209z" />
<glyph unicode="&#xb4;" horiz-adv-x="1024" d="M387 1247l209 350h152l-269 -350h-92z" />
<glyph unicode="&#xb5;" horiz-adv-x="1107" d="M-111 -426l316 1491h139l-125 -592q-9 -40 -12 -74q-4 -45 -4 -65q0 -117 57 -180.5t168 -63.5q127 0 215 107q90 109 133 311l121 557h139l-164 -770q-16 -74 -18 -84q-4 -20 -4 -49q0 -35 16 -49q20 -16 52 -17h16q4 0 10 1t10 1l-20 -110q-12 -4 -41 -8q-14 -2 -45 -3 q-70 0 -103 35q-35 39 -34 111v14q-43 -76 -119 -119t-180 -43q-94 0 -160 39q-70 41 -109 117l-114 -557h-140z" />
<glyph unicode="&#xb6;" horiz-adv-x="1024" d="M84 1130q0 156 108.5 252.5t284.5 96.5h463v-70h-127v-1409h-82v1409h-186v-1409h-84v782q-176 10 -275 103q-102 95 -102 245z" />
<glyph unicode="&#xb7;" horiz-adv-x="577" d="M197 729q0 39 26 66q29 29 66 28.5t65.5 -29t28.5 -65.5q0 -39 -26.5 -65.5t-67.5 -26.5q-39 0 -65.5 26.5t-26.5 65.5z" />
<glyph unicode="&#xb8;" horiz-adv-x="1024" d="M272 -342q82 -18 146 -27q70 -8 92 -8q61 0 96 23q33 20 33 67q0 55 -35 80t-108 25h-29q-4 0 -10 -1t-8 -1v184h63v-111h20q106 0 164 -45q55 -43 55.5 -127t-59.5 -131q-57 -45 -168 -45q-66 0 -116 8q-58 9 -136 31v78z" />
<glyph unicode="&#xb9;" horiz-adv-x="763" d="M178 1380v76h268v-874h-100v798h-168z" />
<glyph unicode="&#xba;" horiz-adv-x="931" d="M41 1071q0 168 125 289t293 121q181 0 307 -117q125 -117 125 -283q0 -176 -123 -295q-125 -121 -301 -120q-182 0 -303 118q-123 121 -123 287zM152 1071q0 -131 90 -221t225 -90q133 0 223 90t90 223q0 135 -92 225q-90 88 -229 88q-127 0 -217 -90t-90 -225z" />
<glyph unicode="&#xbb;" horiz-adv-x="933" d="M133 229l248 320l-248 321h137l246 -321l-246 -320h-137zM438 229l246 320l-246 321h135l248 -321l-248 -320h-135z" />
<glyph unicode="&#xbc;" horiz-adv-x="1798" d="M170 1386v70h256v-815h-96v745h-160zM387 -29l905 1514h119l-903 -1514h-121zM1126 158v69l416 588h103v-588h100v-69h-100v-158h-89v158h-430zM1221 227h338l4 494z" />
<glyph unicode="&#xbd;" horiz-adv-x="1798" d="M170 1386v70h256v-815h-96v745h-160zM387 -29l905 1514h119l-903 -1514h-121zM1155 0v80l326 272q98 86 127 129q31 46 30 99q0 76 -57 129q-53 51 -141 51q-90 0 -143.5 -53.5t-53.5 -141.5v-22h-88v12q0 125 82 201q84 78 209 78q117 0 198.5 -76t81.5 -185 q0 -61 -34.5 -120.5t-108.5 -120.5l-309 -252h450v-80h-569z" />
<glyph unicode="&#xbe;" horiz-adv-x="1798" d="M68 889h92v-6q0 -78 57 -135q53 -53 139 -54q88 0 147.5 53.5t59.5 135.5q0 92 -61.5 141t-182.5 49h-43v68q2 0 7.5 -1t9.5 -1h24q90 0 138 35q45 33 45 98q0 57 -39 94q-40 37 -99 37q-68 0 -106.5 -37t-38.5 -100h-84q6 96 69.5 151.5t164.5 55.5q94 0 159.5 -59.5 t65.5 -141.5q0 -49 -21 -84q-22 -37 -67 -68q76 -35 112.5 -92t36.5 -137q0 -111 -84 -188.5t-209 -77.5q-135 0 -210 69q-80 72 -82 195zM387 -29l905 1514h119l-903 -1514h-121zM1126 158v69l416 588h103v-588h100v-69h-100v-158h-89v158h-430zM1221 227h338l4 494z" />
<glyph unicode="&#xbf;" horiz-adv-x="946" d="M45 399q0 186 168 338q14 12 23 21q82 76 116.5 145.5t34.5 155.5h143q0 -96 -38 -182q-41 -94 -115 -172q-18 -20 -53 -54q-127 -117 -127 -252q0 -129 71.5 -204.5t192.5 -75.5q127 0 201 84q74 82 79 241h148q-4 -215 -123 -344q-120 -129 -313 -129q-182 0 -295 119 t-113 309zM387 1190v266h143v-266h-143z" />
<glyph unicode="&#xc0;" horiz-adv-x="1222" d="M-51 0l565 1456h172l563 -1456h-153l-174 457h-648l-174 -457h-151zM324 588h548l-276 731zM362 1947h152l209 -350h-92z" />
<glyph unicode="&#xc1;" horiz-adv-x="1222" d="M-51 0l565 1456h172l563 -1456h-153l-174 457h-648l-174 -457h-151zM324 588h548l-276 731zM473 1597l209 350h152l-269 -350h-92z" />
<glyph unicode="&#xc2;" horiz-adv-x="1222" d="M-51 0l565 1456h172l563 -1456h-153l-174 457h-648l-174 -457h-151zM324 588h548l-276 731zM322 1597l200 350h152l200 -350h-92l-184 264l-184 -264h-92z" />
<glyph unicode="&#xc3;" horiz-adv-x="1222" d="M-51 0l565 1456h172l563 -1456h-153l-174 457h-648l-174 -457h-151zM324 588h548l-276 731zM309 1640q23 90 72 137q51 47 123 48q20 0 28 -2l25 -7l96 -30q8 -4 29 -9q10 -2 27 -2q39 0 57 17q20 18 39 57h82q-25 -90 -74 -137q-51 -47 -117 -47q-20 0 -30 2 q-27 6 -35 8l-96 31q-20 4 -28.5 6t-25.5 2q-29 0 -53 -18q-23 -16 -39 -56h-80z" />
<glyph unicode="&#xc4;" horiz-adv-x="1222" d="M-51 0l565 1456h172l563 -1456h-153l-174 457h-648l-174 -457h-151zM324 588h548l-276 731zM342 1663v164h141v-164h-141zM711 1663v164h143v-164h-143z" />
<glyph unicode="&#xc5;" horiz-adv-x="1222" d="M-51 0l565 1456h172l563 -1456h-153l-174 457h-648l-174 -457h-151zM324 588h548l-276 731zM371 1743q0 94 67.5 161.5t161.5 67.5t161.5 -67.5t67.5 -161.5t-67.5 -162t-161.5 -68q-96 0 -162 66q-67 68 -67 164zM461 1743q0 -59 41 -100t100 -41q57 0 103 40 q41 39 40 101q0 59 -43 102t-100 43t-100 -43q-41 -41 -41 -102z" />
<glyph unicode="&#xc6;" horiz-adv-x="1808" d="M-135 0l1001 1456h824v-143h-613v-510h613v-144h-613v-518h613v-141h-756v483h-567l-330 -483h-172zM465 627h473l6 686h-16z" />
<glyph unicode="&#xc7;" horiz-adv-x="1538" d="M61 737q0 154 57.5 289t170.5 248q106 106 233 158q131 53 281 53q221 0 391 -107q176 -109 274 -299h-172q-98 135 -219 201q-119 63 -276 63q-244 0 -416 -180t-172 -428q0 -264 172 -444q172 -182 416 -182q152 0 272 63q127 68 213 188h170q-102 -188 -268 -288 q-168 -100 -377 -101q-319 0 -535 219q-215 218 -215 547zM561 -342q82 -18 146 -27q70 -8 92 -8q61 0 96 23q33 20 33 67q0 55 -35 80t-108 25h-29q-4 0 -10 -1t-8 -1v184h63v-111h20q106 0 164 -45q55 -43 55.5 -127t-59.5 -131q-57 -45 -168 -45q-66 0 -116 8 q-58 9 -136 31v78z" />
<glyph unicode="&#xc8;" horiz-adv-x="1026" d="M135 0v1456h756v-143h-612v-510h612v-144h-612v-518h612v-141h-756zM292 1947h152l209 -350h-92z" />
<glyph unicode="&#xc9;" horiz-adv-x="1026" d="M135 0v1456h756v-143h-612v-510h612v-144h-612v-518h612v-141h-756zM403 1597l209 350h152l-269 -350h-92z" />
<glyph unicode="&#xca;" horiz-adv-x="1026" d="M135 0v1456h756v-143h-612v-510h612v-144h-612v-518h612v-141h-756zM252 1597l200 350h152l200 -350h-92l-184 264l-184 -264h-92z" />
<glyph unicode="&#xcb;" horiz-adv-x="1026" d="M135 0v1456h756v-143h-612v-510h612v-144h-612v-518h612v-141h-756zM272 1663v164h141v-164h-141zM641 1663v164h143v-164h-143z" />
<glyph unicode="&#xcc;" horiz-adv-x="411" d="M133 0v1456h143v-1456h-143zM-29 1947h152l209 -350h-92z" />
<glyph unicode="&#xcd;" horiz-adv-x="411" d="M133 0v1456h143v-1456h-143zM82 1597l209 350h152l-269 -350h-92z" />
<glyph unicode="&#xce;" horiz-adv-x="411" d="M133 0v1456h143v-1456h-143zM-69 1597l200 350h152l200 -350h-92l-184 264l-184 -264h-92z" />
<glyph unicode="&#xcf;" horiz-adv-x="411" d="M133 0v1456h143v-1456h-143zM-49 1663v164h141v-164h-141zM320 1663v164h143v-164h-143z" />
<glyph unicode="&#xd0;" horiz-adv-x="1378" d="M-4 668v127h154v661h438q328 0 530 -203q201 -201 201 -530q0 -186 -76 -338q-80 -160 -219 -260q-96 -70 -195 -96q-109 -29 -301 -29h-378v668h-154zM291 137h336q244 0 391 162q147 163 147 436q0 266 -151.5 424t-413.5 158h-309v-522h358v-127h-358v-531z" />
<glyph unicode="&#xd1;" horiz-adv-x="1363" d="M131 0v1456h172l799 -1282l-17 1282h142v-1456h-172l-799 1284l16 -1284h-141zM395 1640q23 90 72 137q51 47 123 48q20 0 28 -2l25 -7l96 -30q8 -4 29 -9q10 -2 27 -2q39 0 57 17q20 18 39 57h82q-25 -90 -74 -137q-51 -47 -117 -47q-20 0 -30 2q-27 6 -35 8l-96 31 q-20 4 -28.5 6t-25.5 2q-29 0 -53 -18q-23 -16 -39 -56h-80z" />
<glyph unicode="&#xd2;" horiz-adv-x="1611" d="M61 737q0 154 58 289q59 139 170 248q111 106 235 158q131 53 279 53q154 0 285 -53.5t237 -159.5q113 -111 168 -244q55 -135 55 -290.5t-49 -284.5t-143 -236q-113 -125 -250 -184q-141 -61 -305 -62q-313 0 -527 222q-213 222 -213 544zM211 735q0 -262 174 -446 q172 -180 426 -180q248 0 420 182q170 178 170 448q0 248 -176 428q-175 178 -424 179q-100 0 -194.5 -35t-172.5 -101q-106 -90 -164 -215q-59 -129 -59 -260zM571 1947h152l209 -350h-92z" />
<glyph unicode="&#xd3;" horiz-adv-x="1611" d="M61 737q0 154 58 289q59 139 170 248q111 106 235 158q131 53 279 53q154 0 285 -53.5t237 -159.5q113 -111 168 -244q55 -135 55 -290.5t-49 -284.5t-143 -236q-113 -125 -250 -184q-141 -61 -305 -62q-313 0 -527 222q-213 222 -213 544zM211 735q0 -262 174 -446 q172 -180 426 -180q248 0 420 182q170 178 170 448q0 248 -176 428q-175 178 -424 179q-100 0 -194.5 -35t-172.5 -101q-106 -90 -164 -215q-59 -129 -59 -260zM682 1597l209 350h152l-269 -350h-92z" />
<glyph unicode="&#xd4;" horiz-adv-x="1611" d="M61 737q0 154 58 289q59 139 170 248q111 106 235 158q131 53 279 53q154 0 285 -53.5t237 -159.5q113 -111 168 -244q55 -135 55 -290.5t-49 -284.5t-143 -236q-113 -125 -250 -184q-141 -61 -305 -62q-313 0 -527 222q-213 222 -213 544zM211 735q0 -262 174 -446 q172 -180 426 -180q248 0 420 182q170 178 170 448q0 248 -176 428q-175 178 -424 179q-100 0 -194.5 -35t-172.5 -101q-106 -90 -164 -215q-59 -129 -59 -260zM531 1597l200 350h152l200 -350h-92l-184 264l-184 -264h-92z" />
<glyph unicode="&#xd5;" horiz-adv-x="1611" d="M61 737q0 154 58 289q59 139 170 248q111 106 235 158q131 53 279 53q154 0 285 -53.5t237 -159.5q113 -111 168 -244q55 -135 55 -290.5t-49 -284.5t-143 -236q-113 -125 -250 -184q-141 -61 -305 -62q-313 0 -527 222q-213 222 -213 544zM211 735q0 -262 174 -446 q172 -180 426 -180q248 0 420 182q170 178 170 448q0 248 -176 428q-175 178 -424 179q-100 0 -194.5 -35t-172.5 -101q-106 -90 -164 -215q-59 -129 -59 -260zM518 1640q23 90 72 137q51 47 123 48q20 0 28 -2l25 -7l96 -30q8 -4 29 -9q10 -2 27 -2q39 0 57 17q20 18 39 57 h82q-25 -90 -74 -137q-51 -47 -117 -47q-20 0 -30 2q-27 6 -35 8l-96 31q-20 4 -28.5 6t-25.5 2q-29 0 -53 -18q-23 -16 -39 -56h-80z" />
<glyph unicode="&#xd6;" horiz-adv-x="1611" d="M61 737q0 154 58 289q59 139 170 248q111 106 235 158q131 53 279 53q154 0 285 -53.5t237 -159.5q113 -111 168 -244q55 -135 55 -290.5t-49 -284.5t-143 -236q-113 -125 -250 -184q-141 -61 -305 -62q-313 0 -527 222q-213 222 -213 544zM211 735q0 -262 174 -446 q172 -180 426 -180q248 0 420 182q170 178 170 448q0 248 -176 428q-175 178 -424 179q-100 0 -194.5 -35t-172.5 -101q-106 -90 -164 -215q-59 -129 -59 -260zM551 1663v164h141v-164h-141zM920 1663v164h143v-164h-143z" />
<glyph unicode="&#xd7;" horiz-adv-x="1705" d="M305 129l481 481l-481 482l70 69l481 -481l481 481l70 -69l-481 -482l481 -481l-70 -70l-481 482l-481 -482z" />
<glyph unicode="&#xd8;" horiz-adv-x="1611" d="M63 739q0 156 57.5 289t170.5 246q109 106 237 158q131 53 285 53q119 0 227 -35q102 -33 201 -107l172 207l96 -75l-178 -213q106 -104 162 -236q55 -132 55 -289q0 -328 -215 -544q-215 -219 -530 -220q-127 0 -223 33q-100 35 -203 107l-207 -250l-94 78l207 247 q-109 117 -164 256q-56 138 -56 295zM215 735q0 -131 41 -239q41 -111 121 -193l770 928q-74 57 -160 88q-74 27 -170 27q-252 0 -428 -179q-174 -176 -174 -432zM469 223q86 -58 166 -86q78 -27 168 -26q254 0 426 182q172 181 172 442q0 117 -41 221q-40 101 -123 191z " />
<glyph unicode="&#xd9;" d="M113 530v926h143v-921q0 -113 8 -160q10 -61 29 -94q41 -84 115 -129q78 -47 170 -48q164 0 243 113q80 115 80 348v891h141v-926q0 -285 -112 -421q-115 -139 -342 -140q-248 0 -361 135q-114 137 -114 426zM344 1947h152l209 -350h-92z" />
<glyph unicode="&#xda;" d="M113 530v926h143v-921q0 -113 8 -160q10 -61 29 -94q41 -84 115 -129q78 -47 170 -48q164 0 243 113q80 115 80 348v891h141v-926q0 -285 -112 -421q-115 -139 -342 -140q-248 0 -361 135q-114 137 -114 426zM455 1597l209 350h152l-269 -350h-92z" />
<glyph unicode="&#xdb;" d="M113 530v926h143v-921q0 -113 8 -160q10 -61 29 -94q41 -84 115 -129q78 -47 170 -48q164 0 243 113q80 115 80 348v891h141v-926q0 -285 -112 -421q-115 -139 -342 -140q-248 0 -361 135q-114 137 -114 426zM304 1597l200 350h152l200 -350h-92l-184 264l-184 -264h-92z " />
<glyph unicode="&#xdc;" d="M113 530v926h143v-921q0 -113 8 -160q10 -61 29 -94q41 -84 115 -129q78 -47 170 -48q164 0 243 113q80 115 80 348v891h141v-926q0 -285 -112 -421q-115 -139 -342 -140q-248 0 -361 135q-114 137 -114 426zM324 1663v164h141v-164h-141zM693 1663v164h143v-164h-143z " />
<glyph unicode="&#xdd;" horiz-adv-x="980" d="M-49 1456h164l372 -756l377 756h160l-467 -921v-535h-141v537zM367 1597l209 350h152l-269 -350h-92z" />
<glyph unicode="&#xde;" horiz-adv-x="1032" d="M119 0v1456h143v-282h193q123 0 194 -13q66 -12 119 -41q92 -53 150 -151q55 -96 55 -207q0 -199 -139 -316q-138 -117 -381 -116h-191v-330h-143zM262 477h211q172 0 256 70q86 71 86 209q0 68 -29 129q-29 59 -77 96q-39 25 -84 37q-49 12 -164 12h-199v-553z" />
<glyph unicode="&#xdf;" horiz-adv-x="1198" d="M115 0v965q0 256 102 380.5t311 124.5q188 0 303 -112q117 -114 117 -289q0 -104 -39 -170q-41 -70 -110 -90q160 -37 252 -141q88 -100 88 -254q0 -188 -129 -316q-131 -127 -326 -127q-156 0 -262 78q-104 77 -166 240v-289h-141zM256 358h139q39 -129 113 -192 q72 -63 180 -64q123 0 211 86q90 86 90 201q0 147 -100 221q-104 76 -295 76h-90v115h6q133 0 211 71.5t78 196.5q0 117 -78 191q-80 76 -197 75q-127 0 -196 -75q-72 -78 -72 -207v-72v-623z" />
<glyph unicode="&#xe0;" horiz-adv-x="1288" d="M57 545q0 250 164 413q166 166 412 166q129 0 233 -51q106 -51 176 -149v176h138v-1100h-138v174q-63 -94 -178 -149q-109 -53 -243 -54q-244 0 -404 166t-160 408zM203 539q0 -180 125 -310q123 -127 297 -127q166 0 293 134q125 131 124 321q0 178 -124 305 q-127 131 -289 131q-174 0 -301 -131q-125 -126 -125 -323zM399 1597h152l209 -350h-92z" />
<glyph unicode="&#xe1;" horiz-adv-x="1288" d="M57 545q0 250 164 413q166 166 412 166q129 0 233 -51q106 -51 176 -149v176h138v-1100h-138v174q-63 -94 -178 -149q-109 -53 -243 -54q-244 0 -404 166t-160 408zM203 539q0 -180 125 -310q123 -127 297 -127q166 0 293 134q125 131 124 321q0 178 -124 305 q-127 131 -289 131q-174 0 -301 -131q-125 -126 -125 -323zM510 1247l209 350h152l-269 -350h-92z" />
<glyph unicode="&#xe2;" horiz-adv-x="1288" d="M57 545q0 250 164 413q166 166 412 166q129 0 233 -51q106 -51 176 -149v176h138v-1100h-138v174q-63 -94 -178 -149q-109 -53 -243 -54q-244 0 -404 166t-160 408zM203 539q0 -180 125 -310q123 -127 297 -127q166 0 293 134q125 131 124 321q0 178 -124 305 q-127 131 -289 131q-174 0 -301 -131q-125 -126 -125 -323zM359 1247l200 350h152l200 -350h-92l-184 264l-184 -264h-92z" />
<glyph unicode="&#xe3;" horiz-adv-x="1288" d="M57 545q0 250 164 413q166 166 412 166q129 0 233 -51q106 -51 176 -149v176h138v-1100h-138v174q-63 -94 -178 -149q-109 -53 -243 -54q-244 0 -404 166t-160 408zM203 539q0 -180 125 -310q123 -127 297 -127q166 0 293 134q125 131 124 321q0 178 -124 305 q-127 131 -289 131q-174 0 -301 -131q-125 -126 -125 -323zM346 1290q23 90 72 137q51 47 123 48q20 0 28 -2l25 -7l96 -30q8 -4 29 -9q10 -2 27 -2q39 0 57 17q20 18 39 57h82q-25 -90 -74 -137q-51 -47 -117 -47q-20 0 -30 2q-27 6 -35 8l-96 31q-20 4 -28.5 6t-25.5 2 q-29 0 -53 -18q-23 -16 -39 -56h-80z" />
<glyph unicode="&#xe4;" horiz-adv-x="1288" d="M57 545q0 250 164 413q166 166 412 166q129 0 233 -51q106 -51 176 -149v176h138v-1100h-138v174q-63 -94 -178 -149q-109 -53 -243 -54q-244 0 -404 166t-160 408zM203 539q0 -180 125 -310q123 -127 297 -127q166 0 293 134q125 131 124 321q0 178 -124 305 q-127 131 -289 131q-174 0 -301 -131q-125 -126 -125 -323zM379 1313v164h141v-164h-141zM748 1313v164h143v-164h-143z" />
<glyph unicode="&#xe5;" horiz-adv-x="1288" d="M57 545q0 250 164 413q166 166 412 166q129 0 233 -51q106 -51 176 -149v176h138v-1100h-138v174q-63 -94 -178 -149q-109 -53 -243 -54q-244 0 -404 166t-160 408zM203 539q0 -180 125 -310q123 -127 297 -127q166 0 293 134q125 131 124 321q0 178 -124 305 q-127 131 -289 131q-174 0 -301 -131q-125 -126 -125 -323zM416 1411q0 94 67.5 161.5t161.5 67.5q96 0 164 -67.5t68 -161.5t-68 -161.5t-164 -67.5q-94 0 -161.5 67.5t-67.5 161.5zM506 1413q0 -59 41 -100q43 -43 100.5 -43t100.5 43t43 100t-43 100t-101 43 q-59 0 -100 -41t-41 -102z" />
<glyph unicode="&#xe6;" horiz-adv-x="2226" d="M57 545q0 250 164 413q166 166 412 166q111 0 213 -45q98 -43 192 -137v158h142v-162q92 96 198 141q104 45 238 45q244 0 401.5 -170t157.5 -438v-14h-987q12 -176 131 -289q117 -111 289 -111q125 0 221 64q98 65 153 178h158q-72 -178 -211 -278q-133 -96 -317 -97 q-139 0 -242 45q-109 47 -190 140v-154h-142v154q-86 -92 -190 -140q-98 -45 -227 -45q-244 0 -404 166t-160 410zM203 539q0 -180 125 -310q123 -127 297 -127q166 0 293 134q125 131 124 321q0 176 -124 307q-127 133 -289 133q-174 0 -301 -133q-125 -130 -125 -325z M1192 625h831q-37 174 -145 274q-109 98 -268 98q-164 0 -277 -100q-110 -98 -141 -272z" />
<glyph unicode="&#xe7;" horiz-adv-x="1239" d="M57 547q0 244 166 413.5t406 169.5q178 0 315 -96t205 -272h-156q-63 117 -159 178q-90 57 -222 57q-169 0 -288 -129q-119 -127 -119 -319q0 -190 118.5 -317.5t294.5 -127.5q129 0 226 64q98 63 149 176h156q-66 -180 -201 -276q-137 -98 -323 -99q-238 0 -404 170 q-164 166 -164 408zM381 -342q82 -18 146 -27q70 -8 92 -8q61 0 96 23q33 20 33 67q0 55 -35 80t-108 25h-29q-4 0 -10 -1t-8 -1v184h63v-111h20q106 0 164 -45q55 -43 55.5 -127t-59.5 -131q-57 -45 -168 -45q-66 0 -116 8q-58 9 -136 31v78z" />
<glyph unicode="&#xe8;" horiz-adv-x="1239" d="M53 551q0 254 162 416q164 164 416 163q250 0 405.5 -169.5t155.5 -444.5v-10h-993q12 -178 131 -291q117 -111 291 -111q127 0 223 63.5t153 180.5h160q-76 -184 -213 -280q-138 -98 -319 -99q-242 0 -406 170q-166 172 -166 412zM203 625h833q-41 186 -147 278 q-111 94 -279 94q-162 0 -270 -100q-112 -104 -137 -272zM397 1597h152l209 -350h-92z" />
<glyph unicode="&#xe9;" horiz-adv-x="1239" d="M53 551q0 254 162 416q164 164 416 163q250 0 405.5 -169.5t155.5 -444.5v-10h-993q12 -178 131 -291q117 -111 291 -111q127 0 223 63.5t153 180.5h160q-76 -184 -213 -280q-138 -98 -319 -99q-242 0 -406 170q-166 172 -166 412zM203 625h833q-41 186 -147 278 q-111 94 -279 94q-162 0 -270 -100q-112 -104 -137 -272zM508 1247l209 350h152l-269 -350h-92z" />
<glyph unicode="&#xea;" horiz-adv-x="1239" d="M53 551q0 254 162 416q164 164 416 163q250 0 405.5 -169.5t155.5 -444.5v-10h-993q12 -178 131 -291q117 -111 291 -111q127 0 223 63.5t153 180.5h160q-76 -184 -213 -280q-138 -98 -319 -99q-242 0 -406 170q-166 172 -166 412zM203 625h833q-41 186 -147 278 q-111 94 -279 94q-162 0 -270 -100q-112 -104 -137 -272zM357 1247l200 350h152l200 -350h-92l-184 264l-184 -264h-92z" />
<glyph unicode="&#xeb;" horiz-adv-x="1239" d="M53 551q0 254 162 416q164 164 416 163q250 0 405.5 -169.5t155.5 -444.5v-10h-993q12 -178 131 -291q117 -111 291 -111q127 0 223 63.5t153 180.5h160q-76 -184 -213 -280q-138 -98 -319 -99q-242 0 -406 170q-166 172 -166 412zM203 625h833q-41 186 -147 278 q-111 94 -279 94q-162 0 -270 -100q-112 -104 -137 -272zM377 1313v164h141v-164h-141zM746 1313v164h143v-164h-143z" />
<glyph unicode="&#xec;" horiz-adv-x="370" d="M115 0v1100h141v-1100h-141zM-50 1597h152l209 -350h-92z" />
<glyph unicode="&#xed;" horiz-adv-x="370" d="M115 0v1100h141v-1100h-141zM61 1247l209 350h152l-269 -350h-92z" />
<glyph unicode="&#xee;" horiz-adv-x="370" d="M115 0v1100h141v-1100h-141zM-90 1247l200 350h152l200 -350h-92l-184 264l-184 -264h-92z" />
<glyph unicode="&#xef;" horiz-adv-x="370" d="M115 0v1100h141v-1100h-141zM-70 1313v164h141v-164h-141zM299 1313v164h143v-164h-143z" />
<glyph unicode="&#xf0;" horiz-adv-x="1239" d="M53 510q0 223 166 383t393 160q102 0 189 -33q92 -35 182 -105q-37 100 -90 170q-57 76 -137 138l-269 -99l-36 82l223 84q-34 22 -74 43.5t-86 42.5l43 92q66 -29 135 -65q49 -27 111 -66l287 103l34 -80l-237 -88q145 -133 223 -311.5t78 -368.5q0 -276 -158 -451 q-156 -170 -409 -170q-240 0 -404 158t-164 381zM203 518q0 -174 121 -295q119 -119 299 -119q178 0 299 121q119 119 118 305q0 172 -122.5 289t-305.5 117q-170 0 -288 -121q-121 -125 -121 -297z" />
<glyph unicode="&#xf1;" horiz-adv-x="1142" d="M113 0v1100h137v-125q63 74 151 110q86 37 195 37q123 0 215 -45q94 -45 150 -129q41 -66 55 -139q16 -86 16 -234v-575h-139v616q0 194 -74 283q-74 88 -239 88q-96 0 -168 -39t-115 -110q-29 -55 -37 -103q-10 -66 -10 -200v-535h-137zM295 1290q23 90 72 137 q51 47 123 48q20 0 28 -2l25 -7l96 -30q8 -4 29 -9q10 -2 27 -2q39 0 57 17q20 18 39 57h82q-25 -90 -74 -137q-51 -47 -117 -47q-20 0 -30 2q-27 6 -35 8l-96 31q-20 4 -28.5 6t-25.5 2q-29 0 -53 -18q-23 -16 -39 -56h-80z" />
<glyph unicode="&#xf2;" horiz-adv-x="1239" d="M53 549q0 242 166 414t393 172q240 0 408 -168t168 -404q0 -248 -164 -420q-166 -174 -401 -174q-240 0 -404 170q-166 172 -166 410zM201 551q0 -186 121 -318q120 -129 301 -129q176 0 297 129q121 131 120 320q0 197 -122.5 321.5t-307.5 124.5q-169 0 -288 -129 q-121 -131 -121 -319zM395 1597h152l209 -350h-92z" />
<glyph unicode="&#xf3;" horiz-adv-x="1239" d="M53 549q0 242 166 414t393 172q240 0 408 -168t168 -404q0 -248 -164 -420q-166 -174 -401 -174q-240 0 -404 170q-166 172 -166 410zM201 551q0 -186 121 -318q120 -129 301 -129q176 0 297 129q121 131 120 320q0 197 -122.5 321.5t-307.5 124.5q-169 0 -288 -129 q-121 -131 -121 -319zM506 1247l209 350h152l-269 -350h-92z" />
<glyph unicode="&#xf4;" horiz-adv-x="1239" d="M53 549q0 242 166 414t393 172q240 0 408 -168t168 -404q0 -248 -164 -420q-166 -174 -401 -174q-240 0 -404 170q-166 172 -166 410zM201 551q0 -186 121 -318q120 -129 301 -129q176 0 297 129q121 131 120 320q0 197 -122.5 321.5t-307.5 124.5q-169 0 -288 -129 q-121 -131 -121 -319zM355 1247l200 350h152l200 -350h-92l-184 264l-184 -264h-92z" />
<glyph unicode="&#xf5;" horiz-adv-x="1239" d="M53 549q0 242 166 414t393 172q240 0 408 -168t168 -404q0 -248 -164 -420q-166 -174 -401 -174q-240 0 -404 170q-166 172 -166 410zM201 551q0 -186 121 -318q120 -129 301 -129q176 0 297 129q121 131 120 320q0 197 -122.5 321.5t-307.5 124.5q-169 0 -288 -129 q-121 -131 -121 -319zM342 1290q23 90 72 137q51 47 123 48q20 0 28 -2l25 -7l96 -30q8 -4 29 -9q10 -2 27 -2q39 0 57 17q20 18 39 57h82q-25 -90 -74 -137q-51 -47 -117 -47q-20 0 -30 2q-27 6 -35 8l-96 31q-20 4 -28.5 6t-25.5 2q-29 0 -53 -18q-23 -16 -39 -56h-80z " />
<glyph unicode="&#xf6;" horiz-adv-x="1239" d="M53 549q0 242 166 414t393 172q240 0 408 -168t168 -404q0 -248 -164 -420q-166 -174 -401 -174q-240 0 -404 170q-166 172 -166 410zM201 551q0 -186 121 -318q120 -129 301 -129q176 0 297 129q121 131 120 320q0 197 -122.5 321.5t-307.5 124.5q-169 0 -288 -129 q-121 -131 -121 -319zM375 1313v164h141v-164h-141zM744 1313v164h143v-164h-143z" />
<glyph unicode="&#xf7;" horiz-adv-x="1705" d="M254 561v98h1198v-98h-1198zM748 258q0 45 30.5 76t75.5 31t76 -31t31 -76t-31 -75.5t-76 -30.5t-75.5 30.5t-30.5 75.5zM748 963q0 43 32.5 75.5t73.5 32.5q43 0 76 -33q31 -31 31 -75.5t-31 -75.5t-76 -31t-75.5 31t-30.5 76z" />
<glyph unicode="&#xf8;" horiz-adv-x="1239" d="M31 -57l176 211q-72 74 -113 182q-41 106 -41 213q0 246 166 414q166 170 402 170q90 0 170 -25q78 -25 149 -76l168 201l92 -72l-172 -207q74 -74 119 -182q41 -100 41 -217q0 -242 -166 -414t-412 -172q-86 0 -164 25q-77 25 -153 80l-178 -211zM201 551q0 -84 24 -156 q25 -74 70 -135l557 666q-47 39 -100 55q-61 18 -129 18q-180 0 -301 -126.5t-121 -321.5zM381 180q49 -37 108 -57q55 -18 119 -19q186 0 310 127q123 125 122 324q0 83 -24 154q-27 76 -74 141z" />
<glyph unicode="&#xf9;" horiz-adv-x="1142" d="M109 526v574h139v-584q0 -227 73.5 -319.5t239.5 -92.5q96 0 166 39q78 45 117 111q25 43 37 102q10 49 10 203v541h141v-1100h-141v119q-68 -80 -143 -113q-82 -35 -191 -35q-240 0 -344 129t-104 426zM329 1597h152l209 -350h-92z" />
<glyph unicode="&#xfa;" horiz-adv-x="1142" d="M109 526v574h139v-584q0 -227 73.5 -319.5t239.5 -92.5q96 0 166 39q78 45 117 111q25 43 37 102q10 49 10 203v541h141v-1100h-141v119q-68 -80 -143 -113q-82 -35 -191 -35q-240 0 -344 129t-104 426zM440 1247l209 350h152l-269 -350h-92z" />
<glyph unicode="&#xfb;" horiz-adv-x="1142" d="M109 526v574h139v-584q0 -227 73.5 -319.5t239.5 -92.5q96 0 166 39q78 45 117 111q25 43 37 102q10 49 10 203v541h141v-1100h-141v119q-68 -80 -143 -113q-82 -35 -191 -35q-240 0 -344 129t-104 426zM289 1247l200 350h152l200 -350h-92l-184 264l-184 -264h-92z" />
<glyph unicode="&#xfc;" horiz-adv-x="1142" d="M109 526v574h139v-584q0 -227 73.5 -319.5t239.5 -92.5q96 0 166 39q78 45 117 111q25 43 37 102q10 49 10 203v541h141v-1100h-141v119q-68 -80 -143 -113q-82 -35 -191 -35q-240 0 -344 129t-104 426zM309 1313v164h141v-164h-141zM678 1313v164h143v-164h-143z" />
<glyph unicode="&#xfd;" horiz-adv-x="942" d="M-33 1100h162l340 -893l356 893h164l-594 -1456h-151l147 358zM348 1247l209 350h152l-269 -350h-92z" />
<glyph unicode="&#xfe;" horiz-adv-x="1288" d="M109 -356v1812h143l-4 -536q63 96 172 149q111 55 237 55q242 0 410 -163q166 -162 166 -402q0 -256 -160 -422t-405 -166q-137 0 -241.5 51.5t-174.5 151.5v-240v-290h-143zM248 551q0 -184 125 -315q127 -133 291 -134q174 0 297 127q125 129 124 310 q0 193 -124.5 323.5t-301.5 130.5q-166 0 -288 -131q-123 -133 -123 -311z" />
<glyph unicode="&#xff;" horiz-adv-x="942" d="M-33 1100h162l340 -893l356 893h164l-594 -1456h-151l147 358zM217 1313v164h141v-164h-141zM586 1313v164h143v-164h-143z" />
<glyph unicode="&#x131;" horiz-adv-x="370" d="M115 0v1100h141v-1100h-141z" />
<glyph unicode="&#x152;" horiz-adv-x="2230" d="M61 737q0 154 58 289q59 139 170 248q111 106 235 158q131 53 279 53q184 0 333.5 -74t256.5 -217v262h755v-143h-612v-510h612v-144h-612v-518h612v-141h-755v260q-123 -147 -269 -219q-141 -70 -323 -70q-313 0 -527 222q-213 222 -213 544zM211 735q0 -262 174 -446 q172 -180 426 -180q248 0 420 182q170 178 170 448q0 248 -176 428q-175 178 -424 179q-100 0 -194.5 -35t-172.5 -101q-106 -90 -164 -215q-59 -129 -59 -260z" />
<glyph unicode="&#x153;" horiz-adv-x="2226" d="M53 549q0 246 166 414q166 170 408 170q158 0 282 -78q127 -80 205 -221q84 143 213 221t287 78q248 0 403 -175q158 -176 158 -452v-4h-987q12 -174 131 -287q117 -111 289 -111q127 0 223 63.5t151 176.5h158q-74 -178 -213 -278q-135 -96 -325 -97q-162 0 -283 76 q-123 76 -205 223q-78 -152 -200.5 -225.5t-290.5 -73.5q-240 0 -406 170q-164 166 -164 410zM201 551q0 -186 121 -318q120 -129 301 -129q176 0 297 129q121 131 120 320q0 197 -122.5 321.5t-307.5 124.5q-169 0 -288 -129q-121 -131 -121 -319zM1192 625h831 q-37 176 -145 276q-109 98 -268 98q-164 0 -281 -104q-114 -102 -137 -270z" />
<glyph unicode="&#x178;" horiz-adv-x="980" d="M-49 1456h164l372 -756l377 756h160l-467 -921v-535h-141v537zM236 1663v164h141v-164h-141zM605 1663v164h143v-164h-143z" />
<glyph unicode="&#x2c6;" horiz-adv-x="1024" d="M236 1247l200 350h152l200 -350h-92l-184 264l-184 -264h-92z" />
<glyph unicode="&#x2dc;" horiz-adv-x="1024" d="M223 1290q23 90 72 137q51 47 123 48q20 0 28 -2l25 -7l96 -30q8 -4 29 -9q10 -2 27 -2q39 0 57 17q20 18 39 57h82q-25 -90 -74 -137q-51 -47 -117 -47q-20 0 -30 2q-27 6 -35 8l-96 31q-20 4 -28.5 6t-25.5 2q-29 0 -53 -18q-23 -16 -39 -56h-80z" />
<glyph unicode="&#x2000;" horiz-adv-x="985" />
<glyph unicode="&#x2001;" horiz-adv-x="1970" />
<glyph unicode="&#x2002;" horiz-adv-x="985" />
<glyph unicode="&#x2003;" horiz-adv-x="1970" />
<glyph unicode="&#x2004;" horiz-adv-x="655" />
<glyph unicode="&#x2005;" horiz-adv-x="491" />
<glyph unicode="&#x2006;" horiz-adv-x="327" />
<glyph unicode="&#x2007;" horiz-adv-x="327" />
<glyph unicode="&#x2008;" horiz-adv-x="245" />
<glyph unicode="&#x2009;" horiz-adv-x="393" />
<glyph unicode="&#x200a;" horiz-adv-x="108" />
<glyph unicode="&#x2010;" horiz-adv-x="657" d="M94 483v133h469v-133h-469z" />
<glyph unicode="&#x2011;" horiz-adv-x="657" d="M94 483v133h469v-133h-469z" />
<glyph unicode="&#x2012;" horiz-adv-x="657" d="M94 483v133h469v-133h-469z" />
<glyph unicode="&#x2013;" horiz-adv-x="1024" d="M0 492v112h1024v-112h-1024z" />
<glyph unicode="&#x2014;" horiz-adv-x="2048" d="M0 492v112h2048v-112h-2048z" />
<glyph unicode="&#x2018;" horiz-adv-x="395" d="M78 1456h141l156 -428h-144z" />
<glyph unicode="&#x2019;" horiz-adv-x="395" d="M25 1028l153 428h144l-156 -428h-141z" />
<glyph unicode="&#x201a;" horiz-adv-x="395" d="M25 -162l153 428h144l-156 -428h-141z" />
<glyph unicode="&#x201c;" horiz-adv-x="690" d="M78 1456h141l156 -428h-144zM371 1456h143l154 -428h-142z" />
<glyph unicode="&#x201d;" horiz-adv-x="690" d="M25 1028l153 428h144l-156 -428h-141zM317 1028l156 428h141l-153 -428h-144z" />
<glyph unicode="&#x201e;" horiz-adv-x="690" d="M25 -162l153 428h144l-156 -428h-141zM317 -162l156 428h141l-153 -428h-144z" />
<glyph unicode="&#x2022;" horiz-adv-x="1206" d="M307 762q0 123 86 209t211 86q123 0 209 -86t86 -209q0 -121 -88 -209t-209 -88t-209 88q-86 86 -86 209z" />
<glyph unicode="&#x2026;" horiz-adv-x="2048" d="M270 0v266h143v-266h-143zM952 0v266h143v-266h-143zM1636 0v266h143v-266h-143z" />
<glyph unicode="&#x202f;" horiz-adv-x="393" />
<glyph unicode="&#x2039;" horiz-adv-x="630" d="M115 549l245 321h138l-248 -321l248 -320h-138z" />
<glyph unicode="&#x203a;" horiz-adv-x="630" d="M133 229l248 320l-248 321h137l246 -321l-246 -320h-137z" />
<glyph unicode="&#x205f;" horiz-adv-x="491" />
<glyph unicode="&#x2122;" horiz-adv-x="1705" d="M264 1397v57h430v-57h-172v-473h-82v473h-176zM821 924v530h117l166 -422l156 422h116v-530h-71v467l-177 -467h-49l-186 467v-467h-72z" />
<glyph unicode="&#xfb01;" horiz-adv-x="933" d="M678 0v1100h141v-1100h-141zM678 1229v227h141v-227h-141zM25 977v123h141v30q0 176 88 259q90 84 272 84h13v-127q-129 -4 -179 -50q-53 -49 -53 -166v-30h232v-123h-230v-977h-137v977h-147z" />
<glyph unicode="&#xfb02;" horiz-adv-x="933" d="M678 0v1456h141v-1456h-141zM25 977v123h141v30q0 176 88 259q90 84 272 84h13v-127q-129 -4 -179 -50q-53 -49 -53 -166v-30h232v-123h-230v-977h-137v977h-147z" />
<glyph unicode="&#xfb03;" horiz-adv-x="1495" d="M1241 0v1100h141v-1100h-141zM1241 1229v227h141v-227h-141zM588 977v123h141v30q0 176 88 259q90 84 272 84h13v-127q-129 -4 -179 -50q-53 -49 -53 -166v-30h232v-123h-230v-977h-137v977h-147zM25 977v123h141v30q0 176 88 259q90 84 272 84h13v-127q-129 -4 -179 -50 q-53 -49 -53 -166v-30h232v-123h-230v-977h-137v977h-147z" />
<glyph unicode="&#xfb04;" horiz-adv-x="1495" d="M1241 0v1456h141v-1456h-141zM588 977v123h141v30q0 176 88 259q90 84 272 84h13v-127q-129 -4 -179 -50q-53 -49 -53 -166v-30h232v-123h-230v-977h-137v977h-147zM25 977v123h141v30q0 176 88 259q90 84 272 84h13v-127q-129 -4 -179 -50q-53 -49 -53 -166v-30h232 v-123h-230v-977h-137v977h-147z" />
</font>
</defs>
</svg>
