<?xml version="1.0" standalone="no"?>
<!DOCTYPE svg PUBLIC "-//W3C//DTD SVG 1.1//EN" "http://www.w3.org/Graphics/SVG/1.1/DTD/svg11.dtd" >
<svg xmlns="http://www.w3.org/2000/svg">
<metadata>
This is a custom SVG webfont generated by Font Squirrel.
Copyright   : Digitized data copyright The Monotype Corporation 19911997 All rights reserved Twentieth Century is a trademark of The Monotype Corporation which may be registered in certain jurisdictions
Designer    : Sol Hess
Foundry     : Monotype Typography
Foundry URL : httpwwwmonotypecomhtmlmtnamemswelcomehtml
</metadata>
<defs>
<font id="webfontO9RsVYGs" horiz-adv-x="894" >
<font-face units-per-em="2048" ascent="1638" descent="-410" />
<missing-glyph horiz-adv-x="448" />
<glyph unicode=" "  horiz-adv-x="448" />
<glyph unicode="&#x09;" horiz-adv-x="448" />
<glyph unicode="&#xa0;" horiz-adv-x="448" />
<glyph unicode="!" horiz-adv-x="468" d="M104 123q0 61 43 104t105 43q61 0 104 -43t43 -104t-43 -104.5t-104 -43.5t-104.5 43.5t-43.5 104.5zM131 369v882h244v-882h-244z" />
<glyph unicode="&#x22;" horiz-adv-x="724" d="M94 1227v239h207v-239l-47 -281h-109zM428 1227v239h205v-239l-49 -281h-109z" />
<glyph unicode="#" horiz-adv-x="1366" d="M86 350v144h219l72 350h-291v143h320l86 397h143l-86 -397h401l84 397h144l-86 -397h190v-143h-217l-74 -350h291v-144h-317l-84 -395h-146l86 395h-403l-82 -395h-143l81 395h-188zM449 496h401l72 348h-402z" />
<glyph unicode="$" d="M123 86v264q65 -77 129 -110q66 -35 149 -35q66 0 107 31q39 31 39 79q0 31 -31 74q-37 51 -168 168q-135 121 -180 223q-43 98 -43 187q0 104 76 186q80 86 190 94v88h139v-88q108 -9 222 -61v-250q-158 111 -254 111q-51 0 -84 -29t-33 -76q0 -57 41 -111 q37 -47 141 -135q84 -68 142 -139q53 -66 71 -115q23 -57 23 -135q0 -260 -273 -321v-201h-135v199q-123 2 -268 102z" />
<glyph unicode="%" horiz-adv-x="1406" d="M90 948q0 330 266 330q256 0 256 -328q0 -154 -69 -241q-68 -86 -193 -86q-260 -1 -260 325zM285 948q0 -152 67 -151q66 0 66 151q0 158 -64 158h-2q-67 0 -67 -158zM324 -35l634 1311h152l-631 -1311h-155zM829 297q0 156 66 240t188 84q264 0 265 -338 q0 -152 -68 -236t-186 -84q-265 0 -265 334zM1024 293q0 -160 70 -160q61 0 61 146q0 170 -63 170q-68 0 -68 -156z" />
<glyph unicode="&#x26;" horiz-adv-x="1128" d="M100 328q0 170 238 342q-117 184 -117 293q0 114 86 190q88 78 219 78q141 0 226 -76q86 -78 86 -194q0 -174 -183 -336l158 -232q88 86 137 146l150 -164q-22 -28 -160 -166l139 -209h-282l-45 68q-147 -92 -295 -92.5t-254 102.5q-103 100 -103 250zM352 344 q0 -47 47 -98q47 -49 103 -49q53 0 125 51l-172 252q-103 -72 -103 -156zM442 958q0 -45 78 -163q98 58 98 147q0 47 -24.5 78t-61.5 31q-39 0 -63 -27q-27 -31 -27 -66z" />
<glyph unicode="'" horiz-adv-x="389" d="M92 1221v245h207v-245l-49 -275h-111z" />
<glyph unicode="(" horiz-adv-x="491" d="M76 461q0 182 51 428q49 240 156 436l166 -90q-90 -174 -134 -379q-43 -206 -43 -381q0 -145 33 -330q35 -199 96 -338l48 -96l-170 -88q-100 197 -152 440q-51 242 -51 398z" />
<glyph unicode=")" horiz-adv-x="491" d="M66 -287q89 163 135 369q45 201 45 393q0 190 -47 399q-49 223 -131 361l172 92q86 -156 145 -401q57 -242 57 -437q0 -215 -61 -458q-59 -231 -145 -406z" />
<glyph unicode="*" horiz-adv-x="686" d="M98 860q0 84 142 84h18q33 0 70 25q-6 10 -23 16q-12 4 -37 8l-47 6q-123 8 -123 82q0 27 23 54q23 25 53 24q45 0 92 -65.5t78 -83.5l2 18q0 31 -26.5 84t-26.5 82q0 37 20.5 57.5t53.5 20.5q37 0 57 -20.5t20 -51.5q0 -25 -30 -90q-29 -59 -29 -100q37 18 76 69 q43 55 59 68q20 14 51 14q27 0 47 -24q23 -27 23 -52q0 -34 -25 -55q-29 -25 -61 -24q-115 -6 -145 -33q51 -25 112 -31q117 -12 117 -80q0 -35 -21 -55q-23 -23 -51 -23q-51 0 -96 70q-43 66 -76 88q-2 -4 -2 -12q0 -35 29 -98.5t29 -88.5q0 -27 -19 -47q-18 -23 -59 -22 q-72 0 -72 78q0 31 25 79q23 47 26 111q-39 -20 -78 -80q-53 -80 -96 -80q-29 0 -55 23q-25 22 -25 55z" />
<glyph unicode="+" horiz-adv-x="1363" d="M135 588v157h467v469h158v-469h471v-157h-471v-467h-158v467h-467z" />
<glyph unicode="," horiz-adv-x="468" d="M74 -260l125 532h235l-205 -532h-155z" />
<glyph unicode="-" horiz-adv-x="468" d="M70 332v200h366v-200h-366z" />
<glyph unicode="." horiz-adv-x="468" d="M104 123q0 61 43 104t104.5 43t104.5 -43t43 -104t-43 -104.5t-104.5 -43.5t-104.5 43.5t-43 104.5z" />
<glyph unicode="/" horiz-adv-x="638" d="M76 -377l379 1702h145l-379 -1702h-145z" />
<glyph unicode="0" d="M94 618q0 377 104.5 518.5t266.5 141.5h4q162 0 262 -143.5t100 -501.5q0 -334 -92 -496t-280 -162q-160 0 -262.5 145.5t-102.5 497.5zM354 645q0 -322 35 -373q33 -49 76 -49q66 0 86 82q23 86 22 279v63q0 250 -26 318q-27 70 -82 69h-2q-41 0 -76 -49 q-33 -47 -33 -340z" />
<glyph unicode="1" d="M209 1020v229h389v-1249h-244v1020h-145z" />
<glyph unicode="2" d="M94 0v82l422 647q15 25 37 86q23 63 22 103q0 59 -30.5 96t-81.5 37q-59 0 -92 -51.5t-33 -147.5v-59h-232l5 100q6 145 45 219q41 78 129 121t194 43q162 0 260 -92q96 -90 97 -244q0 -90 -39 -186q-37 -90 -135 -240l-179 -270h310v-244h-699z" />
<glyph unicode="3" d="M100 358h258q0 -84 22.5 -124.5t84.5 -40.5q104 0 104 157q0 195 -145 195h-51v213q133 2 167.5 47t34.5 121q0 152 -108 151q-47 0 -66 -41q-16 -37 -20 -125h-231q0 193 88 281q86 86 245 86q154 0 240 -86t86 -238q0 -106 -31 -170q-27 -55 -104 -122q78 -43 114 -109 q37 -68 37 -191q0 -387 -374 -387q-147 0 -250 84q-101 82 -101 299z" />
<glyph unicode="4" d="M82 297v141l367 811h278v-770h113v-182h-113v-297h-225v297h-420zM272 479h230v506h-4z" />
<glyph unicode="5" d="M84 43l37 242q133 -82 225 -82q84 0 133 57q49 59 49 152q0 96 -67 147q-70 53 -187 53q-61 0 -116 -8l65 647h535v-233h-342l-21 -207q199 -12 295 -120.5t96 -280.5q0 -199 -114 -318q-115 -117 -307 -117q-136 0 -281 68z" />
<glyph unicode="6" d="M96 403q0 301 314 848h276q-175 -310 -240 -479q49 16 86 16q301 0 302 -389q0 -197 -101 -309q-102 -115 -270 -115q-176 0 -270 131q-97 133 -97 297zM358 387q0 -195 107 -194q61 0 85.5 49t24.5 166q0 104 -24 149q-25 47 -82 47q-111 0 -111 -217z" />
<glyph unicode="7" d="M137 1020v229h713v-78l-438 -1171h-262l382 1020h-395z" />
<glyph unicode="8" d="M96 350q0 264 193 322q-158 74 -158 280q0 150 88 236q86 84 246 84q157 0 246 -86q88 -86 88 -238q0 -213 -158 -272v-4q102 -27 147 -119q45 -90 46 -209q0 -160 -84 -266q-82 -102 -291 -103q-205 0 -283 109q-80 110 -80 266zM352 371q0 -186 113 -186.5t113 182.5 q0 96 -25 139t-84 43q-117 0 -117 -178zM365 924q0 -158 108 -158q96 0 96 154q0 72 -26 110q-29 41 -76 41q-102 0 -102 -147z" />
<glyph unicode="9" d="M96 852q0 195 102.5 309.5t278.5 114.5q158 0 256 -121q98 -119 98 -317q0 -143 -81 -365q-86 -233 -232 -473h-278q164 268 243 477q-55 -14 -94 -14q-139 0 -217 102q-76 101 -76 287zM354 846q0 -104 27 -150q29 -47 88 -47q106 0 106 213q0 199 -106 199 q-66 0 -90.5 -49t-24.5 -166z" />
<glyph unicode=":" horiz-adv-x="468" d="M109 123q0 59 43 102t102 43q61 0 104 -43t43 -102q0 -61 -43 -104.5t-104 -43.5q-59 0 -102 43.5t-43 104.5zM109 672q0 59 43 102t102 43t102 -43t43 -102q0 -61 -43 -104.5t-102 -43.5t-102 43.5t-43 104.5z" />
<glyph unicode=";" horiz-adv-x="468" d="M55 -262l125 528h238l-209 -528h-154zM150 672q0 59 43 102t104 43q59 0 102 -43t43 -102q0 -61 -43 -104.5t-102 -43.5q-61 0 -104 43.5t-43 104.5z" />
<glyph unicode="&#x3c;" horiz-adv-x="1363" d="M135 596v143l1094 459v-170l-881 -360l881 -361v-170z" />
<glyph unicode="=" horiz-adv-x="1363" d="M135 354v158h1096v-158h-1096zM135 827v158h1096v-158h-1096z" />
<glyph unicode="&#x3e;" horiz-adv-x="1363" d="M135 137v170l883 359l-883 360v172l1094 -461v-141z" />
<glyph unicode="?" horiz-adv-x="851" d="M104 958q0 151 80 234q80 84 269 84q178 0 255.5 -84t77.5 -272q0 -176 -51 -265q-53 -90 -188 -116v-170h-246v319h53q106 0 144 43q35 41 34 168q0 95 -18 135q-18 41 -68 41q-82 0 -84 -117h-258zM274 125q0 57 45 102q43 43 105 43q57 0 100 -43t43 -102 q0 -63 -41 -105q-43 -43 -102 -43q-61 0 -105 43q-45 46 -45 105z" />
<glyph unicode="@" horiz-adv-x="1996" d="M57 481q0 295 140 537q141 246 372 358q236 115 512 115q383 0 617 -213q236 -215 235 -557q0 -295 -196.5 -508t-462.5 -213q-160 0 -184 115q-119 -115 -271 -115q-170 0 -278 119q-106 115 -107 309q0 240 150 446q150 209 391 209q175 0 264 -135l25 111h262 l-150 -717q-14 -63 -14 -90q0 -47 39 -47q51 0 139 69q92 72 152 193q61 123 61 264q0 256 -186 418q-184 160 -490 160q-264 0 -459 -113q-193 -111 -284 -315q-94 -207 -94 -412q0 -330 227 -524q225 -193 618 -193q479 0 689 266h213q-113 -223 -336 -333 q-229 -115 -543 -115h-6q-489 0 -768 244q-277 243 -277 667zM692 416q0 -104 49 -170q49 -63 129 -64q141 0 227.5 160t86.5 328q0 106 -51.5 169.5t-135.5 63.5q-126 0 -215 -135q-90 -137 -90 -338v-14z" />
<glyph unicode="A" horiz-adv-x="1024" d="M55 0l357 1249h274l313 -1249h-264l-41 195h-329l-46 -195h-264zM414 397h241l-110 545h-4z" />
<glyph unicode="B" horiz-adv-x="980" d="M143 0v1249h383q158 0 265 -90q104 -89 104 -227q0 -111 -41 -182q-37 -66 -131 -121q113 -51 154 -123q43 -74 43 -191q0 -133 -95 -225q-92 -90 -235 -90h-447zM414 203l78 2q70 0 106 43q39 45 39 119q0 166 -168 165h-55v-329zM414 721h55q68 0 109 43q41 45 40 117 q0 168 -169 168h-35v-328z" />
<glyph unicode="C" d="M96 621q0 328 149.5 491.5t350.5 163.5q121 0 256 -62v-262q-109 55 -137 62q-31 6 -68 6q-106 0 -186 -88t-80 -303q0 -223 78 -312q78 -86 192 -86q95 0 203 74v-285q-102 -45 -229 -45q-227 0 -377 164q-152 169 -152 482z" />
<glyph unicode="D" horiz-adv-x="1042" d="M135 0v1249h299q250 0 397.5 -159.5t147.5 -460.5q0 -303 -143 -465q-145 -164 -412 -164h-289zM408 227h32q80 0 168 65.5t88 315.5q0 188 -32 262q-35 80 -97 115q-68 39 -129 39h-30v-797z" />
<glyph unicode="E" horiz-adv-x="808" d="M131 0v1249h584v-241h-316v-254h271v-232h-271v-276h355v-246h-623z" />
<glyph unicode="F" horiz-adv-x="768" d="M133 0v1249h584v-243h-316v-256h271v-232h-271v-518h-268z" />
<glyph unicode="G" horiz-adv-x="1064" d="M106 635q0 313 119 477q119 166 340 166q317 0 383 -311l-237 -103q-6 168 -152 168q-63 0 -102 -39t-51 -110t-13 -240q0 -201 13 -274q12 -76 53 -113q40 -37 104 -37q152 0 160 248h-166v242h449v-205q0 -78 -37 -205q-37 -123 -148 -225q-109 -98 -256 -99 q-459 1 -459 660z" />
<glyph unicode="H" horiz-adv-x="1024" d="M129 0v1249h270v-477h252v477h271v-1249h-271v528h-250v-528h-272z" />
<glyph unicode="I" horiz-adv-x="552" d="M156 0v1249h270v-1249h-270z" />
<glyph unicode="J" horiz-adv-x="724" d="M55 43v276q10 -4 31 -20q92 -68 162 -68q109 0 108 160v858h271v-876q0 -209 -82 -303.5t-262 -94.5q-63 0 -107 13q-39 10 -121 55z" />
<glyph unicode="K" horiz-adv-x="980" d="M135 0v1249h273v-571h4l239 571h277l-264 -596l284 -653h-286l-250 631h-4v-631h-273z" />
<glyph unicode="L" horiz-adv-x="747" d="M133 0v1249h268v-1003h316v-246h-584z" />
<glyph unicode="M" horiz-adv-x="1320" d="M66 0l129 1249h340l137 -823h4l151 823h334l121 -1249h-256l-61 1022h-4l-191 -1022h-192l-181 1028h-4l-69 -1028h-258z" />
<glyph unicode="N" horiz-adv-x="1107" d="M135 0v1251h295l313 -776h5v776h256v-1251h-285l-318 788h-4v-788h-262z" />
<glyph unicode="O" horiz-adv-x="1064" d="M102 631q0 266 58 387q59 125 151 190q94 68 238 68q121 0 192 -39q76 -41 136 -115q66 -82 92 -188q29 -115 28 -295q0 -377 -124.5 -520.5t-325.5 -143.5q-203 0 -324 148q-121 150 -121 508zM387 627q0 -199 12.5 -260.5t55.5 -98.5q41 -35 102 -35q47 0 88 35 q39 33 55 107q16 76 17 254q0 163 -12 233q-12 66 -56 113q-39 43 -100 43q-86 0 -123 -74q-39 -78 -39 -237v-80z" />
<glyph unicode="P" horiz-adv-x="917" d="M133 0v1249h350q408 0 408 -391q0 -176 -107 -270q-109 -96 -299 -96h-79v-492h-273zM403 688h54q74 0 112.5 45t38.5 131q0 184 -143 185h-62v-361z" />
<glyph unicode="Q" horiz-adv-x="1064" d="M96 616q0 350 123 504t322 154q154 0 254 -76q96 -74 147 -209q49 -132 49 -356q0 -340 -108 -483l121 -175l-138 -98l-108 152q-94 -53 -213 -54q-152 0 -254 78q-100 76 -147.5 211t-47.5 352zM379 647q0 -199 14 -264q16 -74 53 -111q39 -39 97 -39q31 0 63 13 l-151 221l139 96l111 -209h4q4 193 4 215q0 205 -12.5 281t-53.5 123q-39 45 -106 45q-70 0 -115 -70q-47 -72 -47 -301z" />
<glyph unicode="R" horiz-adv-x="960" d="M143 0v1249h351q106 0 210.5 -43t147.5 -131q45 -94 45 -184q0 -117 -49 -191q-47 -72 -160 -135l221 -565h-276l-217 618h-4v-618h-269zM412 688q135 0 168 51q35 53 34 131q0 178 -147 179h-55v-361z" />
<glyph unicode="S" horiz-adv-x="786" d="M86 946q0 143 100.5 237.5t257.5 94.5q119 0 236 -68v-313q-106 125 -205 125q-43 0 -78 -28.5t-35 -65.5q0 -63 109 -154q113 -92 162 -143q51 -53 78 -123q29 -74 28 -156q0 -160 -106 -270q-104 -106 -271 -107q-139 0 -266 97v295q125 -135 250 -136q57 0 94 31 t37 76q0 66 -96 149q-156 135 -201 197q-49 68 -71 129q-23 59 -23 133z" />
<glyph unicode="T" horiz-adv-x="851" d="M63 1004v245h760v-243h-243v-1006h-269v1004h-248z" />
<glyph unicode="U" horiz-adv-x="1024" d="M127 373v876h272v-833q0 -88 35 -135.5t96 -47.5q57 0 91 46q35 47 34 124v846h273v-897q0 -175 -105 -276q-102 -100 -293 -101q-197 0 -299 103q-104 105 -104 295z" />
<glyph unicode="V" horiz-adv-x="1042" d="M55 1249h285l201 -803l209 803h272l-352 -1249h-258z" />
<glyph unicode="W" horiz-adv-x="1341" d="M53 1249h275l49 -250l57 -553h4l144 803h223l147 -837h4l54 544q16 145 53 293h258l-252 -1249h-219l-156 870h-4l-155 -870h-236z" />
<glyph unicode="X" horiz-adv-x="960" d="M55 0l287 618l-283 631h281l164 -405l137 405h274l-245 -633l270 -616h-287l-149 371l-162 -371h-287z" />
<glyph unicode="Y" horiz-adv-x="960" d="M59 1249h291l160 -395l152 395h268l-279 -696v-553h-268v551z" />
<glyph unicode="Z" horiz-adv-x="917" d="M59 0v39l439 965h-400v245h795l-457 -1005h357v-244h-734z" />
<glyph unicode="[" horiz-adv-x="491" d="M94 -326v1624h367v-165h-187v-1293h187v-166h-367z" />
<glyph unicode="\" horiz-adv-x="638" d="M41 1325h145l379 -1702h-145z" />
<glyph unicode="]" horiz-adv-x="491" d="M78 -160h182v1295h-182v163h362v-1624h-362v166z" />
<glyph unicode="^" horiz-adv-x="960" d="M53 690l355 801h145l354 -801h-182l-246 598l-241 -598h-185z" />
<glyph unicode="_" horiz-adv-x="1024" d="M-14 -152h1052v-102h-1052v102z" />
<glyph unicode="`" horiz-adv-x="681" d="M43 1276h313l140 -299h-179z" />
<glyph unicode="a" horiz-adv-x="872" d="M86 420q0 463 256 463q137 0 193 -178h4v153h245v-858h-243v145h-4q-61 -170 -201 -170q-102 0 -174 97q-76 100 -76 348zM338 449q0 -132 24 -191q25 -59 80 -59q53 0 76 55q23 57 23 172q0 121 -27 184q-25 57 -84 58h-4q-88 0 -88 -219z" />
<glyph unicode="b" d="M125 0v1335h244v-628h4q33 88 78 133q43 43 120 43q250 0 250 -475q0 -248 -76 -336q-78 -90 -170 -90q-131 0 -202 157h-4v-139h-244zM367 414q0 -211 106 -211q98 0 98 235q0 229 -98 230q-106 0 -106 -254z" />
<glyph unicode="c" horiz-adv-x="616" d="M92 399q0 274 88 377t230 103q94 0 165 -39v-201q-57 41 -106 41q-127 0 -127 -250q0 -254 125 -254q49 0 106 37v-205q-102 -37 -170 -37q-143 0 -227 114.5t-84 313.5z" />
<glyph unicode="d" horiz-adv-x="872" d="M84 430q0 219 68 336q66 115 192 115q133 0 191 -174h4v628h243v-1335h-243v141h-4q-68 -166 -205 -166q-98 0 -170 97q-76 100 -76 358zM336 426q0 -231 102 -231q53 0 78 55q23 51 23 174q0 242 -105 242h-2q-96 0 -96 -240z" />
<glyph unicode="e" horiz-adv-x="829" d="M92 436q0 203 101 324q101 123 264 123q117 0 194 -68q78 -70 103 -168q25 -101 24 -270h-432q6 -139 30.5 -182t86.5 -43q80 0 86 102h215q-12 -135 -96 -207t-219 -72q-174 0 -267 117q-90 115 -90 344zM346 518h203q0 106 -23 162q-20 51 -71 51q-59 0 -84 -51 q-25 -53 -25 -162z" />
<glyph unicode="f" horiz-adv-x="616" d="M55 664v194h133v191q0 289 246 288q66 0 162 -22v-197q-43 14 -78 15q-84 0 -84 -95v-180h162v-194h-162v-664h-246v664h-133z" />
<glyph unicode="g" horiz-adv-x="872" d="M84 418q0 249 74 356q74 109 182 109q135 0 195 -185h4v160h243v-778q0 -240 -88 -348q-88 -111 -278 -111q-316 0 -326 295h217q9 -98 105 -98q129 0 129 200v160h-4q-70 -178 -195 -178q-111 0 -184.5 98.5t-73.5 319.5zM336 446q0 -227 106 -227q47 0 72 55.5 t25 155.5q0 236 -101 236q-102 -1 -102 -220z" />
<glyph unicode="h" d="M129 0v1335h244v-635h4q108 184 239 185q96 0 150 -86q53 -88 53 -244v-555h-244v475q0 160 -102 160q-47 0 -73.5 -39t-26.5 -111v-485h-244z" />
<glyph unicode="i" horiz-adv-x="468" d="M102 1142.5q0 59.5 43 102.5t102.5 43t102.5 -43t43 -102.5t-43 -102.5t-102.5 -43t-102.5 43t-43 102.5zM129 0v858h244v-858h-244z" />
<glyph unicode="j" horiz-adv-x="468" d="M104 1142.5q0 59.5 43 102.5t103 43q61 0 104 -43t43 -102.5t-43 -102.5t-104 -43q-59 0 -102.5 43t-43.5 102.5zM127 -379v1237h248v-1237h-248z" />
<glyph unicode="k" d="M164 0v1335h244v-839h4l178 362h250l-207 -379l233 -479h-258l-196 438h-4v-438h-244z" />
<glyph unicode="l" horiz-adv-x="468" d="M127 0v1335h246v-1335h-246z" />
<glyph unicode="m" horiz-adv-x="1341" d="M123 0v858h244v-162h4q98 186 235 187q80 0 135 -58q53 -55 60 -159h4q37 101 110 159q72 57 154 58q86 0 139.5 -78t53.5 -203v-602h-244v467q0 168 -103 168q-47 0 -75 -43q-27 -41 -27 -117v-475h-244v483q0 72 -28 113q-27 39 -76 39q-43 0 -70 -43q-29 -45 -28 -113 v-479h-244z" />
<glyph unicode="n" d="M125 0v858h244v-158h4q55 94 112 140q55 43 129 43q92 0 146 -78q55 -80 55 -209v-596h-242v496q0 66 -26 100q-27 37 -76 37q-102 0 -102 -158v-475h-244z" />
<glyph unicode="o" horiz-adv-x="851" d="M88 420q0 224 92 344q92 119 262 119q172 0 263 -117q90 -119 90 -340q0 -215 -90 -334q-90 -117 -256 -117q-176 0 -268.5 115t-92.5 330zM338 451q0 -154 20 -213q23 -61 84.5 -61.5t81.5 54.5q20 53 21 193q0 141 -18.5 198.5t-82.5 57.5q-57 0 -82 -53 q-24 -55 -24 -176z" />
<glyph unicode="p" horiz-adv-x="872" d="M121 -379v1237h248v-135h4q70 160 194 160q104 0 178 -98.5t74 -348.5q0 -270 -76 -364q-78 -96 -180 -97q-125 0 -192 164l2 6h-4v-524h-248zM369 426q0 -231 106 -231q51 0 74 57q20 53 20 188q0 219 -96 219q-55 0 -79.5 -55t-24.5 -178z" />
<glyph unicode="q" horiz-adv-x="872" d="M84 414q0 285 80 377t170 92q127 0 201 -158h4v133h241v-1237h-241v518h-4q-41 -88 -84 -125q-45 -39 -113 -39q-113 0 -182 105q-72 107 -72 334zM334 422q0 -227 102.5 -227t102.5 249q0 96 -29 158q-27 57 -74 57q-102 1 -102 -237z" />
<glyph unicode="r" horiz-adv-x="638" d="M117 0v858h229v-203h4q57 223 271 230v-248q-61 12 -86 12q-172 0 -173 -182v-467h-245z" />
<glyph unicode="s" horiz-adv-x="704" d="M78 74l104 178l23 -16q94 -72 145 -72q31 0 53 18q20 18 21 47q0 25 -33 53.5t-125 86.5q-94 57 -137 112q-41 53 -41 133q0 115 80 193q78 76 205 76q141 0 272 -95l-94 -167q-100 80 -162 79q-70 0 -70 -55q0 -35 115 -96q119 -63 168 -133q53 -76 53 -176 q0 -117 -79.5 -191t-204.5 -74q-94 0 -154 23q-69 27 -139 76z" />
<glyph unicode="t" horiz-adv-x="638" d="M59 662v196h154v244h246v-244h151v-194h-151v-664h-246v662h-154z" />
<glyph unicode="u" d="M119 326v532h246v-545q0 -137 106 -137q96 0 96 129v553h244v-547q0 -150 -94 -243q-92 -92 -246 -93q-166 0 -258 93q-94 94 -94 258z" />
<glyph unicode="v" horiz-adv-x="808" d="M59 858h238l119 -565l125 565h239l-260 -858h-229z" />
<glyph unicode="w" horiz-adv-x="1236" d="M57 856h234l110 -567l125 567h215l119 -573l121 573h223l-229 -856h-221l-121 565h-4l-123 -565h-219z" />
<glyph unicode="x" horiz-adv-x="851" d="M59 0l254 426l-223 432h248l115 -213l106 213h250l-227 -430l243 -428h-258l-118 219l-123 -219h-267z" />
<glyph unicode="y" horiz-adv-x="808" d="M59 858h240l113 -567h4l119 567h245l-368 -1237h-242l117 391z" />
<glyph unicode="z" horiz-adv-x="704" d="M59 0v45l283 600h-260v213h592v-37l-285 -608h266v-213h-596z" />
<glyph unicode="{" horiz-adv-x="681" d="M57 449v163q53 0 93 19q37 16 65 55q31 41 39 107q10 78 10 276q0 203 27 262q23 51 78 107q53 53 213 53h55v-156h-31q-111 0 -141.5 -39t-30.5 -168v-147q0 -207 -45 -303q-47 -100 -164 -148q111 -45 160 -143t49 -309v-146q0 -129 31 -167.5t141 -38.5h31v-156h-55 q-162 0 -215 53q-49 49 -76 108.5t-27 278.5q0 224 -18 295q-18 70 -70 107q-53 37 -119 37z" />
<glyph unicode="|" horiz-adv-x="1116" d="M479 -276v1701h160v-1701h-160z" />
<glyph unicode="}" horiz-adv-x="681" d="M47 -274h31q111 0 141.5 38.5t30.5 167.5v146q0 211 49 309t160 143q-131 57 -170 162q-39 102 -39 289v147q0 129 -31 168t-141 39h-31v156h55q162 0 215 -53q47 -47 76 -111q27 -59 27 -260q0 -199 10 -276q8 -66 39 -107q29 -39 66 -55q35 -16 92 -17v-163 q-66 0 -119 -37t-72 -109q-16 -63 -16 -293q0 -213 -29 -280q-25 -57 -76 -108.5t-213 -51.5h-55v156z" />
<glyph unicode="~" horiz-adv-x="1341" d="M127 582v168q154 129 303 129q63 0 123 -21q66 -23 182 -80q123 -59 191 -59q133 0 291 143v-170q-152 -131 -293 -131q-66 0 -125 21q-45 16 -185 82q-125 59 -192 59q-132 0 -295 -141z" />
<glyph unicode="&#xa1;" horiz-adv-x="468" d="M98 958q0 59 43 102.5t105 43.5q59 0 102 -43t43 -103q0 -61 -43 -104t-102 -43q-61 0 -104.5 43t-43.5 104zM125 -168v877h242v-877h-242z" />
<glyph unicode="&#xa2;" horiz-adv-x="616" d="M96 659q0 366 246 431v155h139v-153q25 -6 97 -29v-203q-66 39 -109 39q-57 0 -92 -63q-33 -59 -33 -177q0 -264 127 -264q41 0 107 35v-201q-39 -14 -46 -16l-38 -10q-1 0 -5 -2q-5 -2 -10 -2v-199h-137v199q-139 43 -192 153q-54 112 -54 307z" />
<glyph unicode="&#xa3;" d="M94 526v189h105q-18 181 -19 209q0 354 316 354q166 0 239.5 -86t73.5 -268h-227q-8 78 -29 120q-18 39 -57 39q-37 0 -59.5 -32.5t-22.5 -84t39 -251.5h176v-187h-154q6 -66 6 -137q0 -96 -22 -186q55 -14 82 -15q61 0 77 35q18 37 19 131h235q0 -215 -71 -299 q-70 -82 -199 -82q-82 0 -156 25q-68 23 -79 29q-53 -53 -115 -54q-66 0 -107 39q-43 39 -43 95q0 59 37 96t101 37q33 0 43 -2q4 45 4 49q0 106 -47 237h-146z" />
<glyph unicode="&#xa4;" horiz-adv-x="1406" d="M184 274l127 127q-47 68 -65 117q-18 51 -19 131q0 102 15 152q16 57 69 133l-127 127l105 106l129 -129q61 41 119 66q49 20 147 20q96 0 145 -20q61 -27 121 -66l127 129l107 -106l-129 -129q41 -61 65 -119q20 -49 21 -145q0 -98 -21 -148q-27 -63 -65 -119l129 -127 l-107 -106l-127 127q-61 -41 -119 -66q-49 -20 -147 -20t-147 20q-63 27 -119 66l-127 -127zM377 668q0 -125 90 -219q88 -90 217 -90.5t217 90.5q90 94 90 219q0 123 -90 217q-88 90 -217 90t-217 -90q-90 -94 -90 -217z" />
<glyph unicode="&#xa5;" horiz-adv-x="960" d="M59 551v131h265l-103 219h-162v131h103l-101 217h289l160 -393l154 395h268l-88 -219h86v-131h-139l-89 -219h228v-131h-279v-549h-268v549h-324z" />
<glyph unicode="&#xa6;" horiz-adv-x="1116" d="M479 -276v725h160v-725h-160zM479 700v725h160v-725h-160z" />
<glyph unicode="&#xa7;" horiz-adv-x="768" d="M111 502q0 92 36 157q39 68 117 132q-66 88 -96 151q-31 66 -31 143q0 137 70 215q72 80 186 80q113 0 185 -77q70 -76 75 -220h-192q-2 76 -62 76q-31 0 -49 -18.5t-18 -44.5q0 -31 24 -64q33 -45 123 -135q109 -109 158 -197q55 -98 55 -192q0 -176 -153 -297 q70 -92 96 -150q29 -59 29 -147q0 -133 -70 -211q-70 -80 -186.5 -80t-184.5 76q-68 77 -73 221h188v-2q0 -74 65 -74q25 0 46 17q16 14 16 39q0 40 -31 79.5t-43 49.5l-125 135q-68 74 -112 160q-43 83 -43 178zM303 547q0 -63 62 -141q57 -72 71 -87q63 61 64 130 q0 104 -140 231q-57 -57 -57 -133z" />
<glyph unicode="&#xa8;" horiz-adv-x="681" d="M-20 1133q0 55 40 96q39 39 95 39q57 0 96 -39t39 -96.5t-39 -96.5q-41 -41 -96.5 -41t-96.5 41q-38 40 -38 97zM432 1132.5q0 57.5 39 96.5t96 39q55 0 95 -39q41 -41 40 -96q0 -57 -38 -97q-41 -41 -96.5 -41t-96.5 41q-39 39 -39 96.5z" />
<glyph unicode="&#xa9;" horiz-adv-x="1509" d="M-12 729q0 315 225 540.5t540.5 225.5t541 -223t225.5 -543q0 -315 -225.5 -540.5t-541 -225.5t-540.5 225.5t-225 540.5zM139 729q0 -252 180 -432q182 -182 434.5 -182t434.5 182t182 432q0 254 -182 436q-180 180 -434 180.5t-434.5 -180t-180.5 -436.5zM379 731 q0 197 106 309q109 115 283 115q244 0 334 -244l-162 -39q-51 139 -178 140q-96 0 -152 -72q-55 -71 -55 -197q0 -147 51 -223t148 -76q137 0 186 172l162 -55q-78 -258 -354 -258q-166 0 -267 117q-102 118 -102 311z" />
<glyph unicode="&#xaa;" horiz-adv-x="573" d="M61 973q0 303 164 303q53 0 78 -27q25 -28 49 -86h4v94h160v-555h-160v91h-4q-27 -59 -51 -82q-28 -25 -80 -25q-160 0 -160 287zM223 981q0 -152 66 -152q37 0 53 35q14 31 14 115q0 156 -67 156q-66 0 -66 -154z" />
<glyph unicode="&#xab;" horiz-adv-x="960" d="M70 551l192 547h256l-190 -547l190 -551h-258zM465 549l190 549h254l-188 -547l190 -551h-254z" />
<glyph unicode="&#xac;" horiz-adv-x="1363" d="M135 836v157h1096v-645h-158v488h-938z" />
<glyph unicode="&#xad;" horiz-adv-x="468" d="M436 332h-366v200h366v-200z" />
<glyph unicode="&#xae;" horiz-adv-x="1509" d="M-12 729q0 315 225 540.5t540.5 225.5t541 -225.5t225.5 -540.5t-225.5 -540.5t-541 -225.5t-540.5 225.5t-225 540.5zM141 729q0 -254 181 -434q182 -182 434 -182t434 182q180 180 180 434q0 256 -180 436.5t-434 180.5t-434.5 -180.5t-180.5 -436.5zM408 319l2 814 h385q135 0 202 -60q70 -61 70 -170q0 -92 -57 -151q-59 -61 -162 -74v-4q52 -18 79.5 -49t92.5 -142l96 -164h-203l-69 134q-63 117 -107 157q-45 43 -121 43h-43v-334h-165zM573 782h134q102 0 145 25q41 23 41 92q0 104 -170 105h-150v-222z" />
<glyph unicode="&#xaf;" horiz-adv-x="1024" d="M-14 1401v102h1052v-102h-1052z" />
<glyph unicode="&#xb0;" horiz-adv-x="817" d="M133 1214q0 113 80 195t197 82q113 0 194.5 -82t81.5 -195q0 -111 -82 -196q-80 -82 -194 -82q-117 0 -197 82t-80 196zM242 1214q0 -72 49 -121t118.5 -49t119 49.5t49.5 120.5q0 70 -49.5 119t-119 49t-118.5 -49t-49 -119z" />
<glyph unicode="&#xb1;" horiz-adv-x="1363" d="M135 -49v158h1096v-158h-1096zM135 758v157h467v471h158v-471h471v-157h-471v-467h-158v467h-467z" />
<glyph unicode="&#xb2;" horiz-adv-x="661" d="M86 463v82l59 73q262 326 263 422q0 68 -68 68q-45 0 -59 -31q-15 -31 -19 -98h-168q2 150 64 223q59 72 192 72q117 0 180 -57q66 -59 66 -156q0 -78 -55.5 -176.5t-167.5 -241.5h194v-180h-481z" />
<glyph unicode="&#xb3;" horiz-adv-x="663" d="M80 692h184q4 -84 70 -84q33 0 51 24.5t18 65.5q0 55 -30 78q-29 20 -107 21v157h56q39 0 63.5 25t24.5 61q0 33 -19 54q-18 23 -43 22q-27 0 -45 -20q-16 -18 -16 -54h-176q3 233 251 234q104 0 162 -57.5t58 -157.5q0 -119 -105 -176q117 -57 117 -189q0 -117 -70 -184 q-68 -66 -194 -66q-100 0 -156 35q-57 37 -76 78q-18 43 -18 133z" />
<glyph unicode="&#xb4;" horiz-adv-x="681" d="M186 977l140 299h313l-274 -299h-179z" />
<glyph unicode="&#xb5;" horiz-adv-x="1138" d="M139 -408v1469h178v-516q0 -162 23 -240q23 -74 84 -121q63 -47 135 -47q84 0 150 47q63 45 87.5 119t24.5 238v520h176v-1061h-159v125h-4q-47 -76 -109 -115q-55 -35 -158 -35q-86 0 -141 31q-47 27 -104 100h-5v-514h-178z" />
<glyph unicode="&#xb6;" horiz-adv-x="1101" d="M-4 1051q0 102 39 186q39 82 106 135q68 52 142 74q70 20 186 20h633v-174h-144v-1700h-170v1700h-223v-1700h-164v1045q-188 12 -299 125q-106 109 -106 289z" />
<glyph unicode="&#xb7;" horiz-adv-x="468" d="M102 633q0 53 45 98q43 43 105 43h2q61 0 104 -43q41 -41 41 -108q0 -55 -45 -101q-41 -41 -104 -41q-61 0 -104.5 43t-43.5 109z" />
<glyph unicode="&#x2219;" horiz-adv-x="468" d="M102 633q0 53 45 98q43 43 105 43h2q61 0 104 -43q41 -41 41 -108q0 -55 -45 -101q-41 -41 -104 -41q-61 0 -104.5 43t-43.5 109z" />
<glyph unicode="&#xb8;" horiz-adv-x="681" d="M39 -285q84 -12 188 -12q78 0 121 25q45 27 45 69q0 39 -34.5 61.5t-94.5 22.5q-55 0 -131 -18l27 98q82 27 170 27q115 0 184.5 -51.5t69.5 -137.5q0 -96 -92.5 -157.5t-258.5 -61.5q-121 0 -194 17v118z" />
<glyph unicode="&#xb9;" horiz-adv-x="661" d="M135 1087v175h289v-799h-180v624h-109z" />
<glyph unicode="&#xba;" horiz-adv-x="552" d="M63 967q0 309 232 309q111 0 168 -76q59 -78 59 -221q0 -295 -231 -295q-104 0 -166 76t-62 207zM225 991q0 -98 12.5 -137t61.5 -39q61 0 61 152q0 98 -12 137t-53 39q-39 0 -53 -35q-17 -39 -17 -117z" />
<glyph unicode="&#xbb;" horiz-adv-x="960" d="M70 1098h258l190 -547l-188 -551h-256l188 549zM467 1098h252l194 -547l-190 -551h-254l188 549z" />
<glyph unicode="&#xbc;" horiz-adv-x="1771" d="M149 1087v175h289v-799h-180v624h-109zM1376 1276l-825 -1350h-182l823 1350h184zM1710 119h-74v-168h-172v170h-295v92l250 535h217v-488h74v-141zM1464 260v305l-4 2l-141 -307h145z" />
<glyph unicode="&#xbd;" horiz-adv-x="1771" d="M147 1087v175h289v-799h-180v624h-109zM1364 1276l-825 -1350h-182l823 1350h184zM1198 -49v82l59 73q262 326 263 422q0 68 -68 68q-45 0 -59 -31q-15 -31 -19 -98h-168q2 150 64 223q59 72 192 72q117 0 180 -57q66 -59 66 -156q0 -78 -55.5 -176.5t-167.5 -241.5h194 v-180h-481z" />
<glyph unicode="&#xbe;" horiz-adv-x="1771" d="M90 692h184q4 -84 70 -84q33 0 51 24.5t18 65.5q0 55 -30 78q-29 20 -107 21v157h56q39 0 63.5 25t24.5 61q0 33 -19 54q-18 23 -43 22q-27 0 -45 -20q-16 -18 -16 -54h-176q3 233 251 234q104 0 162 -57.5t58 -157.5q0 -119 -105 -176q117 -57 117 -189q0 -117 -70 -184 q-68 -66 -194 -66q-100 0 -156 35q-57 37 -76 78q-18 43 -18 133zM1409 1276l-825 -1350h-182l823 1350h184zM1708 119h-74v-168h-172v170h-295v92l250 535h217v-488h74v-141zM1462 260v305l-4 2l-141 -307h145z" />
<glyph unicode="&#xbf;" horiz-adv-x="851" d="M100 176q0 166 55.5 258t188.5 115v168h240v-318h-70q-88 0 -123 -47t-35 -164q0 -96 21 -135q23 -41 69 -41q34 0 56 31q20 29 20 84h256q0 -309 -329 -309q-188 0 -269 84q-80 81 -80 274zM317 965q0 59 43 102t103 43q61 0 104 -43t43 -102q0 -61 -43 -104.5 t-104 -43.5q-59 0 -102.5 43.5t-43.5 104.5z" />
<glyph unicode="&#xc0;" horiz-adv-x="1024" d="M55 0l357 1249h274l313 -1249h-264l-41 195h-329l-46 -195h-264zM414 397h241l-110 545h-4zM215 1647h313l140 -299h-179z" />
<glyph unicode="&#xc1;" horiz-adv-x="1024" d="M55 0l357 1249h274l313 -1249h-264l-41 195h-329l-46 -195h-264zM414 397h241l-110 545h-4zM391 1348l140 299h313l-274 -299h-179z" />
<glyph unicode="&#xc2;" horiz-adv-x="1024" d="M55 0l357 1249h274l313 -1249h-264l-41 195h-329l-46 -195h-264zM414 397h241l-110 545h-4zM203 1352l211 295h260l207 -295h-225l-117 149l-109 -149h-227z" />
<glyph unicode="&#xc3;" horiz-adv-x="1024" d="M55 0l357 1249h274l313 -1249h-264l-41 195h-329l-46 -195h-264zM414 397h241l-110 545h-4zM189 1362v29q0 104 49 166q47 59 133 59q41 0 68 -8q12 -4 106 -45q80 -35 123 -35q70 0 82 88h129q0 -252 -178 -252q-39 0 -64 6q-18 4 -114 43q-88 35 -138 35q-70 0 -69 -80 v-6h-127z" />
<glyph unicode="&#xc4;" horiz-adv-x="1024" d="M55 0l357 1249h274l313 -1249h-264l-41 195h-329l-46 -195h-264zM414 397h241l-110 545h-4zM152 1504q0 55 40 96q39 39 95 39q57 0 96 -39t39 -96.5t-39 -96.5q-41 -41 -96.5 -41t-96.5 41q-38 40 -38 97zM604 1503.5q0 57.5 39 96.5t96 39q55 0 95 -39q41 -41 40 -96 q0 -57 -38 -97q-41 -41 -96.5 -41t-96.5 41q-39 39 -39 96.5z" />
<glyph unicode="&#xc5;" horiz-adv-x="1024" d="M55 0l357 1249h274l313 -1249h-264l-41 195h-329l-46 -195h-264zM414 397h241l-110 545h-4zM557 1694q80 0 137.5 -57.5t57.5 -139.5q0 -80 -57.5 -137t-137.5 -57q-82 0 -139.5 57.5t-57.5 136.5q0 82 57.5 139.5t139.5 57.5zM557 1409q37 0 61 27q27 31 27 61 q0 37 -24.5 64t-63.5 27q-37 0 -63.5 -27t-26.5 -62q0 -37 26.5 -63.5t63.5 -26.5z" />
<glyph unicode="&#xc6;" horiz-adv-x="1298" d="M45 0l487 1249h709v-243h-311v-252h266v-230h-266v-278h348v-246h-619v197h-278l-68 -197h-268zM449 395h213v613h-5z" />
<glyph unicode="&#xc7;" d="M96 621q0 328 149.5 491.5t350.5 163.5q121 0 256 -62v-262q-109 55 -137 62q-31 6 -68 6q-106 0 -186 -88t-80 -303q0 -223 78 -312q78 -86 192 -86q95 0 203 74v-285q-102 -45 -229 -45q-227 0 -377 164q-152 169 -152 482zM238 -285q84 -12 188 -12q78 0 121 25 q45 27 45 69q0 39 -34.5 61.5t-94.5 22.5q-55 0 -131 -18l27 98q82 27 170 27q115 0 184.5 -51.5t69.5 -137.5q0 -96 -92.5 -157.5t-258.5 -61.5q-121 0 -194 17v118z" />
<glyph unicode="&#xc8;" horiz-adv-x="808" d="M131 0v1249h584v-241h-316v-254h271v-232h-271v-276h355v-246h-623zM109 1647h313l140 -299h-179z" />
<glyph unicode="&#xc9;" horiz-adv-x="808" d="M131 0v1249h584v-241h-316v-254h271v-232h-271v-276h355v-246h-623zM292 1348l140 299h313l-274 -299h-179z" />
<glyph unicode="&#xca;" horiz-adv-x="808" d="M131 0v1249h584v-241h-316v-254h271v-232h-271v-276h355v-246h-623zM68 1352l211 295h260l207 -295h-225l-117 149l-109 -149h-227z" />
<glyph unicode="&#xcb;" horiz-adv-x="808" d="M131 0v1249h584v-241h-316v-254h271v-232h-271v-276h355v-246h-623zM46 1504q0 55 40 96q39 39 95 39q57 0 96 -39t39 -96.5t-39 -96.5q-41 -41 -96.5 -41t-96.5 41q-38 40 -38 97zM498 1503.5q0 57.5 39 96.5t96 39q55 0 95 -39q41 -41 40 -96q0 -57 -38 -97 q-41 -41 -96.5 -41t-96.5 41q-39 39 -39 96.5z" />
<glyph unicode="&#xcc;" horiz-adv-x="552" d="M156 0v1249h270v-1249h-270zM-20 1647h313l140 -299h-179z" />
<glyph unicode="&#xcd;" horiz-adv-x="552" d="M156 0v1249h270v-1249h-270zM123 1348l140 299h313l-274 -299h-179z" />
<glyph unicode="&#xce;" horiz-adv-x="552" d="M156 0v1249h270v-1249h-270zM-61 1352l211 295h260l207 -295h-225l-117 149l-109 -149h-227z" />
<glyph unicode="&#xcf;" horiz-adv-x="552" d="M156 0v1249h270v-1249h-270zM-83 1504q0 55 40 96q39 39 95 39q57 0 96 -39t39 -96.5t-39 -96.5q-41 -41 -96.5 -41t-96.5 41q-38 40 -38 97zM369 1503.5q0 57.5 39 96.5t96 39q55 0 95 -39q41 -41 40 -96q0 -57 -38 -97q-41 -41 -96.5 -41t-96.5 41q-39 39 -39 96.5z " />
<glyph unicode="&#xd0;" horiz-adv-x="1042" d="M53 573v103h82v573h299q250 0 397.5 -159.5t147.5 -460.5q0 -303 -143 -465q-145 -164 -412 -164h-289v573h-82zM408 227h32q80 0 168 65.5t88 315.5q0 188 -32 262q-35 80 -97 115q-68 39 -129 39h-30v-348h174v-103h-174v-346z" />
<glyph unicode="&#xd1;" horiz-adv-x="1107" d="M135 0v1251h295l313 -776h5v776h256v-1251h-285l-318 788h-4v-788h-262zM228 1362v29q0 104 49 166q47 59 133 59q41 0 68 -8q12 -4 106 -45q80 -35 123 -35q70 0 82 88h129q0 -252 -178 -252q-39 0 -64 6q-18 4 -114 43q-88 35 -138 35q-70 0 -69 -80v-6h-127z" />
<glyph unicode="&#xd2;" horiz-adv-x="1064" d="M102 631q0 266 58 387q59 125 151 190q94 68 238 68q121 0 192 -39q76 -41 136 -115q66 -82 92 -188q29 -115 28 -295q0 -377 -124.5 -520.5t-325.5 -143.5q-203 0 -324 148q-121 150 -121 508zM387 627q0 -199 12.5 -260.5t55.5 -98.5q41 -35 102 -35q47 0 88 35 q39 33 55 107q16 76 17 254q0 163 -12 233q-12 66 -56 113q-39 43 -100 43q-86 0 -123 -74q-39 -78 -39 -237v-80zM236 1647h313l140 -299h-179z" />
<glyph unicode="&#xd3;" horiz-adv-x="1064" d="M102 631q0 266 58 387q59 125 151 190q94 68 238 68q121 0 192 -39q76 -41 136 -115q66 -82 92 -188q29 -115 28 -295q0 -377 -124.5 -520.5t-325.5 -143.5q-203 0 -324 148q-121 150 -121 508zM387 627q0 -199 12.5 -260.5t55.5 -98.5q41 -35 102 -35q47 0 88 35 q39 33 55 107q16 76 17 254q0 163 -12 233q-12 66 -56 113q-39 43 -100 43q-86 0 -123 -74q-39 -78 -39 -237v-80zM379 1348l140 299h313l-274 -299h-179z" />
<glyph unicode="&#xd4;" horiz-adv-x="1064" d="M102 631q0 266 58 387q59 125 151 190q94 68 238 68q121 0 192 -39q76 -41 136 -115q66 -82 92 -188q29 -115 28 -295q0 -377 -124.5 -520.5t-325.5 -143.5q-203 0 -324 148q-121 150 -121 508zM387 627q0 -199 12.5 -260.5t55.5 -98.5q41 -35 102 -35q47 0 88 35 q39 33 55 107q16 76 17 254q0 163 -12 233q-12 66 -56 113q-39 43 -100 43q-86 0 -123 -74q-39 -78 -39 -237v-80zM195 1352l211 295h260l207 -295h-225l-117 149l-109 -149h-227z" />
<glyph unicode="&#xd5;" horiz-adv-x="1064" d="M102 631q0 266 58 387q59 125 151 190q94 68 238 68q121 0 192 -39q76 -41 136 -115q66 -82 92 -188q29 -115 28 -295q0 -377 -124.5 -520.5t-325.5 -143.5q-203 0 -324 148q-121 150 -121 508zM387 627q0 -199 12.5 -260.5t55.5 -98.5q41 -35 102 -35q47 0 88 35 q39 33 55 107q16 76 17 254q0 163 -12 233q-12 66 -56 113q-39 43 -100 43q-86 0 -123 -74q-39 -78 -39 -237v-80zM207 1362v29q0 104 49 166q47 59 133 59q41 0 68 -8q12 -4 106 -45q80 -35 123 -35q70 0 82 88h129q0 -252 -178 -252q-39 0 -64 6q-18 4 -114 43 q-88 35 -138 35q-70 0 -69 -80v-6h-127z" />
<glyph unicode="&#xd6;" horiz-adv-x="1064" d="M102 631q0 266 58 387q59 125 151 190q94 68 238 68q121 0 192 -39q76 -41 136 -115q66 -82 92 -188q29 -115 28 -295q0 -377 -124.5 -520.5t-325.5 -143.5q-203 0 -324 148q-121 150 -121 508zM387 627q0 -199 12.5 -260.5t55.5 -98.5q41 -35 102 -35q47 0 88 35 q39 33 55 107q16 76 17 254q0 163 -12 233q-12 66 -56 113q-39 43 -100 43q-86 0 -123 -74q-39 -78 -39 -237v-80zM203 1504q0 55 40 96q39 39 95 39q57 0 96 -39t39 -96.5t-39 -96.5q-41 -41 -96.5 -41t-96.5 41q-38 40 -38 97zM655 1503.5q0 57.5 39 96.5t96 39 q55 0 95 -39q41 -41 40 -96q0 -57 -38 -97q-41 -41 -96.5 -41t-96.5 41q-39 39 -39 96.5z" />
<glyph unicode="&#xd7;" horiz-adv-x="1363" d="M176 1063l111 111l397 -398l397 398l113 -111l-397 -397l393 -396l-111 -110l-393 395l-397 -395l-111 110l395 396z" />
<glyph unicode="&#xd8;" horiz-adv-x="1064" d="M100 18l97 152q-51 88 -74 182q-23 96 -23 269q0 360 121 505q123 147 324 148q98 0 155 -25q66 -27 127 -78l76 117l88 -53l-94 -152q96 -152 96 -438q0 -375 -127 -524q-125 -145 -327 -146q-147 0 -275 103l-74 -117zM383 467h4l289 467q-25 39 -58 65q-27 20 -69 21 q-80 0 -123 -71.5t-43 -200.5v-281zM416 322q51 -88 135 -89q68 0 115 66q45 63 45 162v325h-4z" />
<glyph unicode="&#xd9;" horiz-adv-x="1024" d="M127 373v876h272v-833q0 -88 35 -135.5t96 -47.5q57 0 91 46q35 47 34 124v846h273v-897q0 -175 -105 -276q-102 -100 -293 -101q-197 0 -299 103q-104 105 -104 295zM215 1647h313l140 -299h-179z" />
<glyph unicode="&#xda;" horiz-adv-x="1024" d="M127 373v876h272v-833q0 -88 35 -135.5t96 -47.5q57 0 91 46q35 47 34 124v846h273v-897q0 -175 -105 -276q-102 -100 -293 -101q-197 0 -299 103q-104 105 -104 295zM358 1348l140 299h313l-274 -299h-179z" />
<glyph unicode="&#xdb;" horiz-adv-x="1024" d="M127 373v876h272v-833q0 -88 35 -135.5t96 -47.5q57 0 91 46q35 47 34 124v846h273v-897q0 -175 -105 -276q-102 -100 -293 -101q-197 0 -299 103q-104 105 -104 295zM190 1352l211 295h260l207 -295h-225l-117 149l-109 -149h-227z" />
<glyph unicode="&#xdc;" horiz-adv-x="1024" d="M127 373v876h272v-833q0 -88 35 -135.5t96 -47.5q57 0 91 46q35 47 34 124v846h273v-897q0 -175 -105 -276q-102 -100 -293 -101q-197 0 -299 103q-104 105 -104 295zM173 1504q0 55 40 96q39 39 95 39q57 0 96 -39t39 -96.5t-39 -96.5q-41 -41 -96.5 -41t-96.5 41 q-38 40 -38 97zM625 1503.5q0 57.5 39 96.5t96 39q55 0 95 -39q41 -41 40 -96q0 -57 -38 -97q-41 -41 -96.5 -41t-96.5 41q-39 39 -39 96.5z" />
<glyph unicode="&#xdd;" horiz-adv-x="960" d="M59 1249h291l160 -395l152 395h268l-279 -696v-553h-268v551zM325 1348l140 299h313l-274 -299h-179z" />
<glyph unicode="&#xde;" horiz-adv-x="917" d="M135 0v1249h271v-243h49q225 0 331.5 -94.5t106.5 -297.5q0 -166 -102 -268q-100 -100 -385 -100v-246h-271zM406 442h38q166 0 166 183q0 178 -157 178h-47v-361z" />
<glyph unicode="&#xdf;" horiz-adv-x="872" d="M123 0v1047q0 141 82 215q83 74 239 73q195 0 271 -78q78 -82 78 -194q0 -126 -43 -184q-45 -61 -138 -109q106 -35 158 -117q49 -76 49 -268q0 -223 -76 -313q-76 -92 -180 -92q-52 0 -110 24v184q16 -8 39 -8q45 0 63 41q18 40 18 135q0 197 -24 246q-25 47 -96 51v211 q92 4 92 144q0 145 -90 145q-43 0 -68 -30.5t-25 -84.5v-1038h-239z" />
<glyph unicode="&#xe0;" horiz-adv-x="872" d="M86 420q0 463 256 463q137 0 193 -178h4v153h245v-858h-243v145h-4q-61 -170 -201 -170q-102 0 -174 97q-76 100 -76 348zM338 449q0 -132 24 -191q25 -59 80 -59q53 0 76 55q23 57 23 172q0 121 -27 184q-25 57 -84 58h-4q-88 0 -88 -219zM139 1276h313l140 -299h-179z " />
<glyph unicode="&#xe1;" horiz-adv-x="872" d="M86 420q0 463 256 463q137 0 193 -178h4v153h245v-858h-243v145h-4q-61 -170 -201 -170q-102 0 -174 97q-76 100 -76 348zM338 449q0 -132 24 -191q25 -59 80 -59q53 0 76 55q23 57 23 172q0 121 -27 184q-25 57 -84 58h-4q-88 0 -88 -219zM282 977l140 299h313 l-274 -299h-179z" />
<glyph unicode="&#xe2;" horiz-adv-x="872" d="M86 420q0 463 256 463q137 0 193 -178h4v153h245v-858h-243v145h-4q-61 -170 -201 -170q-102 0 -174 97q-76 100 -76 348zM338 449q0 -132 24 -191q25 -59 80 -59q53 0 76 55q23 57 23 172q0 121 -27 184q-25 57 -84 58h-4q-88 0 -88 -219zM98 981l211 295h260l207 -295 h-225l-117 149l-109 -149h-227z" />
<glyph unicode="&#xe3;" horiz-adv-x="872" d="M86 420q0 463 256 463q137 0 193 -178h4v153h245v-858h-243v145h-4q-61 -170 -201 -170q-102 0 -174 97q-76 100 -76 348zM338 449q0 -132 24 -191q25 -59 80 -59q53 0 76 55q23 57 23 172q0 121 -27 184q-25 57 -84 58h-4q-88 0 -88 -219zM109 991v29q0 104 49 166 q47 59 133 59q41 0 68 -8q12 -4 106 -45q80 -35 123 -35q70 0 82 88h129q0 -252 -178 -252q-39 0 -64 6q-18 4 -114 43q-88 35 -138 35q-70 0 -69 -80v-6h-127z" />
<glyph unicode="&#xe4;" horiz-adv-x="872" d="M86 420q0 463 256 463q137 0 193 -178h4v153h245v-858h-243v145h-4q-61 -170 -201 -170q-102 0 -174 97q-76 100 -76 348zM338 449q0 -132 24 -191q25 -59 80 -59q53 0 76 55q23 57 23 172q0 121 -27 184q-25 57 -84 58h-4q-88 0 -88 -219zM76 1133q0 55 40 96 q39 39 95 39q57 0 96 -39t39 -96.5t-39 -96.5q-41 -41 -96.5 -41t-96.5 41q-38 40 -38 97zM528 1132.5q0 57.5 39 96.5t96 39q55 0 95 -39q41 -41 40 -96q0 -57 -38 -97q-41 -41 -96.5 -41t-96.5 41q-39 39 -39 96.5z" />
<glyph unicode="&#xe5;" horiz-adv-x="872" d="M86 420q0 463 256 463q137 0 193 -178h4v153h245v-858h-243v145h-4q-61 -170 -201 -170q-102 0 -174 97q-76 100 -76 348zM338 449q0 -132 24 -191q25 -59 80 -59q53 0 76 55q23 57 23 172q0 121 -27 184q-25 57 -84 58h-4q-88 0 -88 -219zM438 1323q80 0 137.5 -57.5 t57.5 -139.5q0 -80 -57.5 -137t-137.5 -57q-82 0 -139.5 57.5t-57.5 136.5q0 82 57.5 139.5t139.5 57.5zM438 1038q37 0 61 27q27 31 27 61q0 37 -24.5 64t-63.5 27q-37 0 -63.5 -27t-26.5 -62q0 -37 26.5 -63.5t63.5 -26.5z" />
<glyph unicode="&#xe6;" horiz-adv-x="1280" d="M94 412q0 231 64 350q66 121 188 121q90 0 145.5 -67.5t55.5 -92.5h4v151h201v-92h4q74 100 190 101q92 0 174 -88q80 -86 80 -303v-115h-430q4 -219 119 -219q68 0 84 96h217q-6 -150 -78 -213.5t-160 -63.5q-55 0 -100 23q-49 25 -61 51l-35 78h-4v-137h-203v151h-4 q-68 -164 -203 -163q-117 0 -182.5 112.5t-65.5 319.5zM346 453q0 -131 23 -193q23 -59 80 -59q55 0 77 55q23 57 23 182q0 231 -103 232h-2q-98 0 -98 -217zM770 520h203q0 213 -99 213q-51 0 -77 -49q-27 -47 -27 -135v-29z" />
<glyph unicode="&#xe7;" horiz-adv-x="616" d="M92 399q0 274 88 377t230 103q94 0 165 -39v-201q-57 41 -106 41q-127 0 -127 -250q0 -254 125 -254q49 0 106 37v-205q-102 -37 -170 -37q-143 0 -227 114.5t-84 313.5zM53 -285q84 -12 188 -12q78 0 121 25q45 27 45 69q0 39 -34.5 61.5t-94.5 22.5q-55 0 -131 -18 l27 98q82 27 170 27q115 0 184.5 -51.5t69.5 -137.5q0 -96 -92.5 -157.5t-258.5 -61.5q-121 0 -194 17v118z" />
<glyph unicode="&#xe8;" horiz-adv-x="829" d="M92 436q0 203 101 324q101 123 264 123q117 0 194 -68q78 -70 103 -168q25 -101 24 -270h-432q6 -139 30.5 -182t86.5 -43q80 0 86 102h215q-12 -135 -96 -207t-219 -72q-174 0 -267 117q-90 115 -90 344zM346 518h203q0 106 -23 162q-20 51 -71 51q-59 0 -84 -51 q-25 -53 -25 -162zM119 1276h313l140 -299h-179z" />
<glyph unicode="&#xe9;" horiz-adv-x="829" d="M92 436q0 203 101 324q101 123 264 123q117 0 194 -68q78 -70 103 -168q25 -101 24 -270h-432q6 -139 30.5 -182t86.5 -43q80 0 86 102h215q-12 -135 -96 -207t-219 -72q-174 0 -267 117q-90 115 -90 344zM346 518h203q0 106 -23 162q-20 51 -71 51q-59 0 -84 -51 q-25 -53 -25 -162zM262 977l140 299h313l-274 -299h-179z" />
<glyph unicode="&#xea;" horiz-adv-x="829" d="M92 436q0 203 101 324q101 123 264 123q117 0 194 -68q78 -70 103 -168q25 -101 24 -270h-432q6 -139 30.5 -182t86.5 -43q80 0 86 102h215q-12 -135 -96 -207t-219 -72q-174 0 -267 117q-90 115 -90 344zM346 518h203q0 106 -23 162q-20 51 -71 51q-59 0 -84 -51 q-25 -53 -25 -162zM78 981l211 295h260l207 -295h-225l-117 149l-109 -149h-227z" />
<glyph unicode="&#xeb;" horiz-adv-x="829" d="M92 436q0 203 101 324q101 123 264 123q117 0 194 -68q78 -70 103 -168q25 -101 24 -270h-432q6 -139 30.5 -182t86.5 -43q80 0 86 102h215q-12 -135 -96 -207t-219 -72q-174 0 -267 117q-90 115 -90 344zM346 518h203q0 106 -23 162q-20 51 -71 51q-59 0 -84 -51 q-25 -53 -25 -162zM56 1133q0 55 40 96q39 39 95 39q57 0 96 -39t39 -96.5t-39 -96.5q-41 -41 -96.5 -41t-96.5 41q-38 40 -38 97zM508 1132.5q0 57.5 39 96.5t96 39q55 0 95 -39q41 -41 40 -96q0 -57 -38 -97q-41 -41 -96.5 -41t-96.5 41q-39 39 -39 96.5z" />
<glyph unicode="&#xec;" horiz-adv-x="468" d="M127 854h242v-854h-242v854zM-63 1276h313l140 -299h-179z" />
<glyph unicode="&#xed;" horiz-adv-x="468" d="M127 854h242v-854h-242v854zM80 977l140 299h313l-274 -299h-179z" />
<glyph unicode="&#xee;" horiz-adv-x="468" d="M127 854h242v-854h-242v854zM-104 981l211 295h260l207 -295h-225l-117 149l-109 -149h-227z" />
<glyph unicode="&#xef;" horiz-adv-x="468" d="M127 854h242v-854h-242v854zM-126 1133q0 55 40 96q39 39 95 39q57 0 96 -39t39 -96.5t-39 -96.5q-41 -41 -96.5 -41t-96.5 41q-38 40 -38 97zM326 1132.5q0 57.5 39 96.5t96 39q55 0 95 -39q41 -41 40 -96q0 -57 -38 -97q-41 -41 -96.5 -41t-96.5 41q-39 39 -39 96.5z " />
<glyph unicode="&#xf0;" horiz-adv-x="851" d="M94 430q0 209 88 330t236 121q51 0 92 -17q-33 117 -113 230l-211 -121l-47 84l189 108q-45 43 -99 72l125 98q49 -23 125 -82l139 80l52 -82l-119 -67q244 -274 244 -750q0 -227 -88 -342q-88 -117 -261 -117q-168 0 -260 119t-92 336zM342 348q0 -82 29 -129 q27 -45 78 -45q96 0 96 174v148q0 186 -99 186q-104 0 -104 -186v-148z" />
<glyph unicode="&#xf1;" d="M125 0v858h244v-158h4q55 94 112 140q55 43 129 43q92 0 146 -78q55 -80 55 -209v-596h-242v496q0 66 -26 100q-27 37 -76 37q-102 0 -102 -158v-475h-244zM133 991v29q0 104 49 166q47 59 133 59q41 0 68 -8q12 -4 106 -45q80 -35 123 -35q70 0 82 88h129 q0 -252 -178 -252q-39 0 -64 6q-18 4 -114 43q-88 35 -138 35q-70 0 -69 -80v-6h-127z" />
<glyph unicode="&#xf2;" horiz-adv-x="851" d="M88 420q0 224 92 344q92 119 262 119q172 0 263 -117q90 -119 90 -340q0 -215 -90 -334q-90 -117 -256 -117q-176 0 -268.5 115t-92.5 330zM338 451q0 -154 20 -213q23 -61 84.5 -61.5t81.5 54.5q20 53 21 193q0 141 -18.5 198.5t-82.5 57.5q-57 0 -82 -53 q-24 -55 -24 -176zM129 1276h313l140 -299h-179z" />
<glyph unicode="&#xf3;" horiz-adv-x="851" d="M88 420q0 224 92 344q92 119 262 119q172 0 263 -117q90 -119 90 -340q0 -215 -90 -334q-90 -117 -256 -117q-176 0 -268.5 115t-92.5 330zM338 451q0 -154 20 -213q23 -61 84.5 -61.5t81.5 54.5q20 53 21 193q0 141 -18.5 198.5t-82.5 57.5q-57 0 -82 -53 q-24 -55 -24 -176zM272 977l140 299h313l-274 -299h-179z" />
<glyph unicode="&#xf4;" horiz-adv-x="851" d="M88 420q0 224 92 344q92 119 262 119q172 0 263 -117q90 -119 90 -340q0 -215 -90 -334q-90 -117 -256 -117q-176 0 -268.5 115t-92.5 330zM338 451q0 -154 20 -213q23 -61 84.5 -61.5t81.5 54.5q20 53 21 193q0 141 -18.5 198.5t-82.5 57.5q-57 0 -82 -53 q-24 -55 -24 -176zM88 981l211 295h260l207 -295h-225l-117 149l-109 -149h-227z" />
<glyph unicode="&#xf5;" horiz-adv-x="851" d="M88 420q0 224 92 344q92 119 262 119q172 0 263 -117q90 -119 90 -340q0 -215 -90 -334q-90 -117 -256 -117q-176 0 -268.5 115t-92.5 330zM338 451q0 -154 20 -213q23 -61 84.5 -61.5t81.5 54.5q20 53 21 193q0 141 -18.5 198.5t-82.5 57.5q-57 0 -82 -53 q-24 -55 -24 -176zM74 991v29q0 104 49 166q47 59 133 59q41 0 68 -8q12 -4 106 -45q80 -35 123 -35q70 0 82 88h129q0 -252 -178 -252q-39 0 -64 6q-18 4 -114 43q-88 35 -138 35q-70 0 -69 -80v-6h-127z" />
<glyph unicode="&#xf6;" horiz-adv-x="851" d="M88 420q0 224 92 344q92 119 262 119q172 0 263 -117q90 -119 90 -340q0 -215 -90 -334q-90 -117 -256 -117q-176 0 -268.5 115t-92.5 330zM338 451q0 -154 20 -213q23 -61 84.5 -61.5t81.5 54.5q20 53 21 193q0 141 -18.5 198.5t-82.5 57.5q-57 0 -82 -53 q-24 -55 -24 -176zM66 1133q0 55 40 96q39 39 95 39q57 0 96 -39t39 -96.5t-39 -96.5q-41 -41 -96.5 -41t-96.5 41q-38 40 -38 97zM518 1132.5q0 57.5 39 96.5t96 39q55 0 95 -39q41 -41 40 -96q0 -57 -38 -97q-41 -41 -96.5 -41t-96.5 41q-39 39 -39 96.5z" />
<glyph unicode="&#xf7;" horiz-adv-x="1363" d="M135 592v149h1098v-149h-1098zM582 256q0 41 28.5 69.5t71.5 28.5q41 0 69.5 -28.5t28.5 -67.5q0 -43 -28.5 -71.5t-69.5 -28.5q-37 0 -70 28q-30 27 -30 70zM582 1087q0 37 28.5 66t69.5 29t69.5 -29t28.5 -70t-28.5 -69.5t-67.5 -28.5t-69.5 30.5t-30.5 71.5z" />
<glyph unicode="&#xf8;" horiz-adv-x="851" d="M57 14l95 123q-63 133 -64 299q0 215 90 330q92 117 256 117q145 0 234 -78l77 100l76 -59l-94 -121q66 -121 66 -301q0 -197 -84 -322q-83 -123 -277 -122q-76 0 -119 18q-49 20 -102 57l-76 -96zM338 379h4l184 242q-25 63 -84 63q-68 0 -86 -59q-18 -58 -18 -209v-37z M356 246q29 -68 88 -68q70 0 84 70q16 76 17 241h-4z" />
<glyph unicode="&#xf9;" d="M119 326v532h246v-545q0 -137 106 -137q96 0 96 129v553h244v-547q0 -150 -94 -243q-92 -92 -246 -93q-166 0 -258 93q-94 94 -94 258zM152 1276h313l140 -299h-179z" />
<glyph unicode="&#xfa;" d="M119 326v532h246v-545q0 -137 106 -137q96 0 96 129v553h244v-547q0 -150 -94 -243q-92 -92 -246 -93q-166 0 -258 93q-94 94 -94 258zM295 977l140 299h313l-274 -299h-179z" />
<glyph unicode="&#xfb;" d="M119 326v532h246v-545q0 -137 106 -137q96 0 96 129v553h244v-547q0 -150 -94 -243q-92 -92 -246 -93q-166 0 -258 93q-94 94 -94 258zM111 981l211 295h260l207 -295h-225l-117 149l-109 -149h-227z" />
<glyph unicode="&#xfc;" d="M119 326v532h246v-545q0 -137 106 -137q96 0 96 129v553h244v-547q0 -150 -94 -243q-92 -92 -246 -93q-166 0 -258 93q-94 94 -94 258zM89 1133q0 55 40 96q39 39 95 39q57 0 96 -39t39 -96.5t-39 -96.5q-41 -41 -96.5 -41t-96.5 41q-38 40 -38 97zM541 1132.5 q0 57.5 39 96.5t96 39q55 0 95 -39q41 -41 40 -96q0 -57 -38 -97q-41 -41 -96.5 -41t-96.5 41q-39 39 -39 96.5z" />
<glyph unicode="&#xfd;" horiz-adv-x="808" d="M59 858h240l113 -567h4l119 567h245l-368 -1237h-242l117 391zM252 977l140 299h313l-274 -299h-179z" />
<glyph unicode="&#xfe;" horiz-adv-x="872" d="M121 -379v1712h248v-614h4q61 164 200 164q121 0 184.5 -113t63.5 -328q0 -227 -65 -348q-63 -119 -193 -119q-135 0 -192 175h-4v-529h-246zM369 434q0 -123 24.5 -180t81.5 -57q94 0 94 235q0 119 -22 176q-20 53 -77.5 53.5t-78.5 -53.5q-22 -57 -22 -174z" />
<glyph unicode="&#xff;" horiz-adv-x="808" d="M59 858h240l113 -567h4l119 567h245l-368 -1237h-242l117 391zM62 1133q0 55 40 96q39 39 95 39q57 0 96 -39t39 -96.5t-39 -96.5q-41 -41 -96.5 -41t-96.5 41q-38 40 -38 97zM514 1132.5q0 57.5 39 96.5t96 39q55 0 95 -39q41 -41 40 -96q0 -57 -38 -97 q-41 -41 -96.5 -41t-96.5 41q-39 39 -39 96.5z" />
<glyph unicode="&#x131;" horiz-adv-x="468" d="M127 854h242v-854h-242v854z" />
<glyph unicode="&#x152;" horiz-adv-x="1429" d="M88 629q0 322 141.5 477.5t393.5 155.5h28l105 -13h585v-243h-315v-254h270v-230h-270v-276h350v-246h-614l-115 -8h-16q-39 0 -53.5 2t-36.5 2h-6q-145 0 -297 141q-150 142 -150 492zM369 674q0 -219 18 -291q18 -71 74 -111q53 -39 157 -39q51 0 111 11l29 4v762 q-102 10 -137 10q-127 0 -189 -59q-63 -62 -63 -287z" />
<glyph unicode="&#x153;" horiz-adv-x="1280" d="M90 444q0 211 92 324q92 115 262 115q154 0 230 -80q86 80 215 80q141 0 237 -97q94 -94 95 -409h-430v-27q0 -199 108 -198q88 0 90 104h219q-14 -143 -102 -211q-86 -68 -223 -68q-138 0 -215 74q-57 -43 -95 -55q-49 -16 -135 -16q-170 0 -258 118q-90 121 -90 346z M342 457q0 -150 20 -217q18 -61 82 -62q59 0 80 51q23 55 23 177q0 154 -15 212q-14 63 -83 64q-59 0 -84 -51q-23 -47 -23 -174zM791 518h200q0 106 -22 162q-20 51 -80 51q-55 0 -76 -51q-22 -56 -22 -162z" />
<glyph unicode="&#x178;" horiz-adv-x="960" d="M59 1249h291l160 -395l152 395h268l-279 -696v-553h-268v551zM136 1504q0 55 40 96q39 39 95 39q57 0 96 -39t39 -96.5t-39 -96.5q-41 -41 -96.5 -41t-96.5 41q-38 40 -38 97zM588 1503.5q0 57.5 39 96.5t96 39q55 0 95 -39q41 -41 40 -96q0 -57 -38 -97 q-41 -41 -96.5 -41t-96.5 41q-39 39 -39 96.5z" />
<glyph unicode="&#x2c6;" horiz-adv-x="681" d="M2 981l211 295h260l207 -295h-225l-117 149l-109 -149h-227z" />
<glyph unicode="&#x2da;" horiz-adv-x="681" d="M342 1323q80 0 137.5 -57.5t57.5 -139.5q0 -80 -57.5 -137t-137.5 -57q-82 0 -139.5 57.5t-57.5 136.5q0 82 57.5 139.5t139.5 57.5zM342 1038q37 0 61 27q27 31 27 61q0 37 -24.5 64t-63.5 27q-37 0 -63.5 -27t-26.5 -62q0 -37 26.5 -63.5t63.5 -26.5z" />
<glyph unicode="&#x2dc;" horiz-adv-x="681" d="M-12 991v29q0 104 49 166q47 59 133 59q41 0 68 -8q12 -4 106 -45q80 -35 123 -35q70 0 82 88h129q0 -252 -178 -252q-39 0 -64 6q-18 4 -114 43q-88 35 -138 35q-70 0 -69 -80v-6h-127z" />
<glyph unicode="&#x2000;" horiz-adv-x="845" />
<glyph unicode="&#x2001;" horiz-adv-x="1693" />
<glyph unicode="&#x2002;" horiz-adv-x="845" />
<glyph unicode="&#x2003;" horiz-adv-x="1693" />
<glyph unicode="&#x2004;" horiz-adv-x="563" />
<glyph unicode="&#x2005;" horiz-adv-x="421" />
<glyph unicode="&#x2006;" horiz-adv-x="280" />
<glyph unicode="&#x2007;" horiz-adv-x="280" />
<glyph unicode="&#x2008;" horiz-adv-x="210" />
<glyph unicode="&#x2009;" horiz-adv-x="337" />
<glyph unicode="&#x200a;" horiz-adv-x="92" />
<glyph unicode="&#x2010;" horiz-adv-x="468" d="M70 332v200h366v-200h-366z" />
<glyph unicode="&#x2011;" horiz-adv-x="468" d="M70 332v200h366v-200h-366z" />
<glyph unicode="&#x2012;" horiz-adv-x="468" d="M70 332v200h366v-200h-366z" />
<glyph unicode="&#x2013;" horiz-adv-x="1024" d="M-10 393v248h1044v-248h-1044z" />
<glyph unicode="&#x2014;" horiz-adv-x="2048" d="M-6 393v246h2083v-246h-2083z" />
<glyph unicode="&#x2018;" horiz-adv-x="468" d="M113 686v242q0 158 135 321l114 -82q-109 -115 -110 -213h133v-268h-272z" />
<glyph unicode="&#x2019;" horiz-adv-x="468" d="M115 983v268h272v-262q0 -139 -139 -303l-109 80q109 115 109 217h-133z" />
<glyph unicode="&#x201a;" horiz-adv-x="468" d="M74 -260l125 532h235l-205 -532h-155z" />
<glyph unicode="&#x201c;" d="M102 680v248q0 166 140 319l110 -82q-80 -82 -106 -182l-4 -14v-19h135v-270h-275zM557 680v238q0 123 51 206q53 88 82 117q2 0 2 2l2 4l107 -80q-104 -131 -105 -219h133v-268h-272z" />
<glyph unicode="&#x201d;" d="M100 983v268h273v-260q0 -68 -37 -153q-35 -82 -98 -152l-113 78q102 104 108 219h-133zM553 983v268h272v-258q0 -68 -37 -153q-37 -84 -100 -152l-113 76q106 111 111 219h-133z" />
<glyph unicode="&#x201e;" d="M100 2v268h273v-260q0 -152 -135 -305l-113 80q100 102 108 217h-133zM553 2v270h272v-264q0 -135 -135 -303l-115 80q106 106 111 217h-133z" />
<glyph unicode="&#x2022;" horiz-adv-x="716" d="M61 723q0 123 86 209q88 88 209 88t209 -88t88 -209t-88 -209q-86 -86 -209 -86q-121 0 -206 86q-89 88 -89 209z" />
<glyph unicode="&#x2026;" horiz-adv-x="2048" d="M186 129q0 66 45 111t111 45q63 0 108.5 -45t45.5 -111t-45 -111t-109 -45q-66 0 -111 45t-45 111zM868 125q0 68 45 113t113 45q63 0 110.5 -47.5t47.5 -111t-47 -110.5q-45 -45 -110.5 -45t-111.5 45q-47 48 -47 111zM1554 125q0 66 45.5 111t112.5 45q66 0 111 -45.5 t45 -111t-45 -110.5t-111 -45q-68 0 -113 45t-45 111z" />
<glyph unicode="&#x202f;" horiz-adv-x="337" />
<glyph unicode="&#x2039;" horiz-adv-x="577" d="M82 551l190 547h256l-188 -547l188 -551h-258z" />
<glyph unicode="&#x203a;" horiz-adv-x="577" d="M82 1098h258l190 -547l-188 -551h-256l188 549z" />
<glyph unicode="&#x205f;" horiz-adv-x="421" />
<glyph unicode="&#x2122;" horiz-adv-x="2048" d="M217 1323v143h664v-143h-246v-676h-166v676h-252zM979 647v819h260l147 -565h5l147 565h260v-819h-158v653h-4l-174 -653h-149l-172 653h-4v-653h-158z" />
<glyph unicode="&#x2215;" horiz-adv-x="448" d="M739 1276l-825 -1350h-182l823 1350h184z" />
<glyph unicode="&#xf001;" horiz-adv-x="960" d="M59 666v194h131v201q0 104 82 188q84 86 267 86q95 0 166 -24q66 -23 112 -74q41 -43 53 -98q12 -53 13 -146h-242q-4 152 -104 152q-47 0 -74 -33t-27 -94v-158h162v-196h-162v-664h-246v666h-131zM641 0v860h246v-860h-246z" />
<glyph unicode="&#xfb01;" horiz-adv-x="960" d="M59 666v194h131v201q0 104 82 188q84 86 267 86q95 0 166 -24q66 -23 112 -74q41 -43 53 -98q12 -53 13 -146h-242q-4 152 -104 152q-47 0 -74 -33t-27 -94v-158h162v-196h-162v-664h-246v666h-131zM641 0v860h246v-860h-246z" />
<glyph unicode="&#xf002;" horiz-adv-x="960" d="M55 664v196h133v201q0 104 80 190q78 84 275 84q160 0 248 -75.5t88 -217.5v-1042h-244v1012q0 131 -100 131q-47 0 -76 -31q-29 -33 -29 -84v-168h162v-196h-162v-664h-242v664h-133z" />
<glyph unicode="&#xfb02;" horiz-adv-x="960" d="M55 664v196h133v201q0 104 80 190q78 84 275 84q160 0 248 -75.5t88 -217.5v-1042h-244v1012q0 131 -100 131q-47 0 -76 -31q-29 -33 -29 -84v-168h162v-196h-162v-664h-242v664h-133z" />
<glyph unicode="&#xfb03;" horiz-adv-x="1703" d="M1339 1142.5q0 59.5 43 102.5t102.5 43t102.5 -43t43 -102.5t-43 -102.5t-102.5 -43t-102.5 43t-43 102.5zM1366 0v858h244v-858h-244zM673 664v194h133v191q0 289 246 288q66 0 162 -22v-197q-43 14 -78 15q-84 0 -84 -95v-180h162v-194h-162v-664h-246v664h-133z M55 664v194h133v191q0 289 246 288q66 0 162 -22v-197q-43 14 -78 15q-84 0 -84 -95v-180h162v-194h-162v-664h-246v664h-133z" />
<glyph unicode="&#xfb04;" horiz-adv-x="1703" d="M1364 0v1335h246v-1335h-246zM673 664v194h133v191q0 289 246 288q66 0 162 -22v-197q-43 14 -78 15q-84 0 -84 -95v-180h162v-194h-162v-664h-246v664h-133zM55 664v194h133v191q0 289 246 288q66 0 162 -22v-197q-43 14 -78 15q-84 0 -84 -95v-180h162v-194h-162v-664 h-246v664h-133z" />
<glyph horiz-adv-x="661" d="M594 631h-74v-168h-172v170h-295v92l250 535h217v-488h74v-141zM348 772v305l-4 2l-141 -307h145z" />
</font>
</defs>
</svg>
