<?xml version="1.0" encoding="UTF-8" standalone="no"?>
<!-- Created with Inkscape (http://www.inkscape.org/) -->
<svg
   xmlns:dc="http://purl.org/dc/elements/1.1/"
   xmlns:cc="http://web.resource.org/cc/"
   xmlns:rdf="http://www.w3.org/1999/02/22-rdf-syntax-ns#"
   xmlns:svg="http://www.w3.org/2000/svg"
   xmlns="http://www.w3.org/2000/svg"
   xmlns:sodipodi="http://sodipodi.sourceforge.net/DTD/sodipodi-0.dtd"
   xmlns:inkscape="http://www.inkscape.org/namespaces/inkscape"
   id="svg4954"
   sodipodi:version="0.32"
   inkscape:version="0.44+devel"
   width="416.78409"
   height="634.2865"
   sodipodi:docbase="C:\Documents and Settings\Molumen\Desktop"
   sodipodi:docname="drunken_duck_Beer_1.svg"
   inkscape:output_extension="org.inkscape.output.svg.inkscape"
   sodipodi:modified="true"
   version="1.0">
  <metadata
     id="metadata4959">
    <rdf:RDF>
      <cc:Work
         rdf:about="">
        <dc:format>image/svg+xml</dc:format>
        <dc:type
           rdf:resource="http://purl.org/dc/dcmitype/StillImage" />
      </cc:Work>
    </rdf:RDF>
  </metadata>
  <defs
     id="defs4957" />
  <sodipodi:namedview
     inkscape:window-height="975"
     inkscape:window-width="1280"
     inkscape:pageshadow="2"
     inkscape:pageopacity="0.0"
     borderopacity="1.0"
     bordercolor="#666666"
     pagecolor="#ffffff"
     id="base"
     inkscape:zoom="0.5025987"
     inkscape:cx="638.27485"
     inkscape:cy="500.57638"
     inkscape:window-x="66"
     inkscape:window-y="87"
     inkscape:current-layer="svg4954"
     showguides="true"
     inkscape:guide-bbox="true" />
  <g
     id="g3958"
     transform="matrix(0.8758803,0,0,0.8758803,-545.76267,-241.24644)">
    <g
       transform="translate(450.1644,178.0833)"
       id="g3207">
      <path
         id="path3209"
         d="M 438.16891,353.3262 C 407.02868,353.81011 398.96459,394.09614 419.62841,413.34857 C 435.11552,435.67711 464.33815,427.27758 485.78202,420.64074 C 509.62055,413.07158 545.1133,405.33641 558.88161,433.36556 C 581.66174,478.48185 576.61323,535.84743 551.08428,578.78127 C 537.62812,607.90746 501.94675,602.43392 479.60801,588.09958 C 459.6888,579.03181 431.8112,558.51506 412.4767,579.49209 C 386.77806,604.45198 394.86328,651.67552 426.07259,668.38882 C 455.40216,688.61908 492.92411,714.22849 529.48041,696.90357 C 563.16767,677.90363 577.85814,639.03072 592.11408,605.1793 C 615.41816,539.42952 627.50458,464.25178 601.77258,397.40395 C 588.51126,361.65557 549.58075,343.64773 513.24279,344.93573 C 487.95639,344.54735 463.06706,349.65112 438.16891,353.3262 z "
         style="fill:#ffffd5;fill-opacity:1;fill-rule:evenodd;stroke:#000000;stroke-width:6.09999895;stroke-linecap:butt;stroke-linejoin:miter;stroke-miterlimit:4;stroke-dasharray:none;stroke-opacity:1" />
      <path
         id="path3211"
         d="M 566.05798,432.58344 C 560.44186,417.84308 542.89731,394.27582 549.04101,383.07258 C 574.16397,411.23322 593.0202,447.51832 591.6806,486.16909 C 590.89242,525.02644 585.3137,565.92284 565.06313,599.71478 C 558.08399,612.00762 517.34961,632.67552 538.17043,604.46894 C 560.48481,578.12514 581.96387,548.29797 583.45911,512.39287 C 585.7281,484.78349 578.58109,457.07769 566.05798,432.58344 z "
         style="fill:#c8c994;fill-opacity:1;fill-rule:evenodd;stroke:none;stroke-width:1px;stroke-linecap:butt;stroke-linejoin:miter;stroke-opacity:1" />
    </g>
    <g
       transform="translate(-186.209,35.46674)"
       id="g3213">
      <path
         style="fill:#000000;fill-opacity:1;fill-rule:evenodd;stroke:#000000;stroke-width:7.88213062;stroke-linecap:butt;stroke-linejoin:miter;stroke-miterlimit:4;stroke-dasharray:none;stroke-opacity:1"
         d="M 852.55954,430.21215 C 944.53109,436.99228 1038.0942,452.50442 1129.734,434.75868 C 1146.107,430.0024 1162.4965,421.64738 1156.1051,445.85851 C 1154.7139,595.36351 1152.455,745.20213 1164.783,894.34994 C 1149.1607,915.36603 1116.0518,910.74024 1092.0502,914.45693 C 1021.0165,917.00059 948.61308,914.18678 879.77113,895.18906 C 849.10686,891.52631 836.11075,864.83125 846.09056,836.97779 C 857.38261,701.7779 859.67886,565.69929 852.55954,430.21215 z "
         id="path3215" />
      <path
         id="path3217"
         d="M 1130.5176,873.564 C 1078.3707,906.6822 865.78993,882.2428 864.40133,843.6056 C 863.52933,776.249 866.08553,557.5874 877.83253,491.78469 C 857.77915,437.80414 1034.5924,484.89291 1136.4882,469.32214 C 1093.8986,535.3831 1156.3079,734.1523 1130.5176,873.564 z "
         style="fill:#f4b133;fill-opacity:1;fill-rule:nonzero;stroke:none;stroke-width:7.625;stroke-miterlimit:4;stroke-opacity:1"
         sodipodi:nodetypes="ccccc" />
      <path
         style="fill:#f4ca33;fill-opacity:1;fill-rule:evenodd;stroke:#000000;stroke-width:7.62499857;stroke-linecap:butt;stroke-linejoin:miter;stroke-miterlimit:4;stroke-dasharray:none;stroke-opacity:1"
         d="M 1140.3121,436.25185 C 1135.9319,436.29233 1130.0834,438.10524 1122.9371,441.2206 C 1033.7579,458.2897 942.74406,443.36628 853.24955,436.8456 C 860.1872,567.1648 857.93969,698.0283 846.9683,828.0644 C 837.17378,855.0591 850.17092,880.6212 879.74955,884.0644 C 946.77169,902.3444 1017.1737,905.0393 1086.2809,902.5956 C 1109.6231,898.9974 1141.7063,903.5245 1157.0309,883.2519 C 1145.1906,741.8638 1147.2199,599.8031 1148.5309,458.06435 C 1151.7336,442.47808 1148.674,436.17458 1140.3121,436.25185 z M 908.4683,478.0956 C 908.94455,478.10617 909.43621,478.14923 909.93705,478.2206 C 921.77854,490.5953 923.53515,512.7801 926.99955,531.1269 C 933.38717,577.2923 934.43695,624.5853 933.56205,671.5331 C 931.77662,727.9372 928.75945,785.5144 914.31205,839.2519 C 912.40194,856.607 894.9082,876.3205 887.9058,852.5956 C 875.06077,815.2283 873.85735,772.8605 871.81205,732.3144 C 870.11513,661.6447 872.5496,589.8893 886.0933,520.9706 C 890.53946,505.9786 893.70465,477.76787 908.4683,478.0956 z M 994.09335,485.9081 C 994.56955,485.90974 995.05995,485.93989 995.56205,486.00185 C 1007.6336,498.1523 1009.8167,520.317 1013.6246,538.5956 C 1020.8767,584.6331 1022.8063,631.9208 1022.8121,678.8769 C 1022.0848,735.3044 1020.1553,792.9092 1006.7184,846.9081 C 1005.1341,864.296 988.00815,884.3099 980.56205,860.7206 C 967.01847,823.6008 965.0236,781.3148 962.2183,740.8144 C 959.19627,670.1892 960.2821,598.3811 972.5308,529.2206 C 976.6951,514.148 979.32608,485.85732 994.09335,485.9081 z M 1076.7809,488.87685 C 1077.2571,488.87138 1077.7465,488.91613 1078.2496,488.9706 C 1090.5009,500.9396 1093.0132,523.032 1097.0933,541.2519 C 1105.0314,587.176 1107.6371,634.4263 1108.3433,681.3769 C 1108.4577,737.8089 1107.4109,795.4334 1094.7809,849.6269 C 1093.4559,867.0364 1076.6404,887.3526 1068.8433,863.8769 C 1054.7476,826.9632 1052.1274,784.6749 1048.7183,744.2206 C 1044.6431,673.6482 1044.6588,601.8374 1055.8746,532.5019 C 1059.8136,517.3687 1062.0144,489.04633 1076.7809,488.87685 z "
         id="path3219" />
      <path
         id="path3221"
         d="M 899.02576,665.5424 C 897.98296,699.0771 896.50146,733.3177 891.03426,765.4661 C 890.23576,775.8058 883.95686,787.7914 881.67426,773.8071 C 877.44156,751.8096 877.32956,726.6745 876.91086,702.6199 C 876.83666,660.6651 878.21876,617.9886 883.48076,576.8359 C 885.20596,567.5697 886.54576,550.0071 892.14836,551.0518 C 896.16526,558.0133 896.63986,570.9221 897.71596,581.551 C 899.63066,608.4368 899.67266,636.1129 899.07366,663.5865"
         style="fill:#f4e382;fill-opacity:1;fill-rule:nonzero;stroke:none;stroke-width:7.625;stroke-miterlimit:4;stroke-opacity:1" />
      <path
         id="path3223"
         d="M 988.36095,673.5714 C 987.94723,707.1198 987.10813,741.3821 982.24483,773.6274 C 981.64043,783.9802 975.58743,796.0815 973.04293,782.1424 C 968.39853,760.2282 967.81513,735.0996 966.94533,711.0572 C 966.08443,669.1111 966.66583,626.4162 971.15513,585.172 C 972.70623,575.8751 973.71643,558.2905 979.33763,559.2299 C 983.48433,566.1149 984.20093,579.0125 985.47623,589.6194 C 987.89473,616.4645 988.45585,644.135 988.37215,671.6149"
         style="fill:#f4e382;fill-opacity:1;fill-rule:nonzero;stroke:none;stroke-width:7.625;stroke-miterlimit:4;stroke-opacity:1" />
      <path
         id="path3225"
         d="M 1073.9885,676.6514 C 1074.0751,710.2022 1073.7472,744.4732 1069.3654,776.7875 C 1068.9155,787.1482 1063.0437,799.3384 1060.2916,785.4388 C 1055.3208,763.5963 1054.3627,738.4792 1053.1343,714.4524 C 1051.6478,672.5238 1051.5923,629.825 1055.466,588.5185 C 1056.8783,579.1995 1057.626,561.6017 1063.2606,562.4572 C 1067.5097,569.2796 1068.4186,582.1651 1069.8519,592.7518 C 1072.6706,619.5578 1073.6442,647.2168 1073.9705,674.695"
         style="fill:#f4e382;fill-opacity:1;fill-rule:nonzero;stroke:none;stroke-width:7.625;stroke-miterlimit:4;stroke-opacity:1" />
    </g>
    <g
       transform="translate(-341.4024,176.7325)"
       id="g3227">
      <path
         style="fill:#000000;fill-opacity:1;fill-rule:nonzero;stroke:#000000;stroke-width:3.78308296;stroke-miterlimit:4;stroke-opacity:1"
         d="M 1190.2011,145.53741 C 1179.2396,145.69115 1168.5523,151.20859 1160.7323,160.06866 C 1149.7389,163.63767 1139.9792,172.34787 1134.3886,183.91241 C 1133.4379,185.37697 1132.5332,186.89308 1131.7323,188.47491 C 1131.712,188.48678 1131.6901,188.49426 1131.6698,188.50616 C 1128.2275,188.33248 1124.7932,188.69486 1121.4511,189.53741 C 1117.3441,185.52956 1112.5937,182.37695 1107.4198,180.44366 C 1088.3041,172.33358 1066.7075,183.75094 1057.2011,203.41241 C 1054.5415,207.50958 1052.4526,212.1083 1051.0761,217.03741 C 1036.1778,217.38576 1021.8467,227.59375 1014.5761,242.63116 C 1010.8293,248.40323 1008.1678,255.12879 1007.1073,262.44366 C 1003.0976,281.92 1010.8642,302.93703 1024.3573,314.84991 C 1024.0478,316.18565 1023.7761,317.53255 1023.5761,318.91241 C 1018.0025,345.98494 1035.1366,376.04081 1058.8573,380.47491 C 1061.7284,382.85319 1064.9265,384.85632 1068.3261,386.41241 C 1069.0156,387.55532 1069.7209,388.67774 1070.4823,389.75616 C 1070.6219,390.08222 1070.7695,390.40447 1070.9198,390.72491 C 1076.0091,406.06084 1092.8994,416.12816 1108.8886,413.78741 C 1113.1298,413.36704 1117.2365,412.06599 1120.9823,410.09991 C 1121.5432,410.15969 1122.1027,410.22543 1122.6698,410.25616 C 1134.4647,411.6099 1145.6492,406.29387 1153.9511,397.31866 C 1169.2158,397.53472 1183.0634,386.85094 1190.4511,371.88116 C 1191.7236,369.9116 1192.8681,367.85076 1193.8886,365.69366 C 1195.9522,366.2188 1198.0692,366.54519 1200.2323,366.66241 C 1215.0907,368.36776 1228.9696,359.52601 1237.3573,346.06866 C 1241.3421,342.14794 1244.7216,337.39848 1247.3261,332.13116 C 1252.2649,324.49808 1255.4021,315.30985 1255.9198,305.69366 C 1256.4807,305.75344 1257.0402,305.81918 1257.6073,305.84991 C 1265.286,306.73121 1272.7013,304.78714 1279.2323,300.84991 C 1294.3237,300.85725 1307.9779,290.20771 1315.2948,275.38116 C 1321.2907,266.10091 1324.633,254.53844 1323.8261,242.69366 L 1323.7948,241.81866 C 1322.9546,221.40373 1310.723,202.12454 1293.7636,195.78741 C 1283.1944,191.3033 1271.8576,192.79847 1262.2323,198.34991 C 1261.9696,198.35458 1261.7135,198.37037 1261.4511,198.38116 C 1256.8956,193.33954 1251.4257,189.39869 1245.3573,187.13116 C 1241.1069,185.32786 1236.7247,184.50162 1232.3886,184.50616 C 1228.7535,167.92787 1217.8448,153.48244 1203.6073,148.16241 C 1199.2146,146.29872 1194.6797,145.47459 1190.2011,145.53741 z "
         id="path3229" />
      <path
         style="fill:#ffffff;fill-opacity:1;fill-rule:nonzero;stroke:none;stroke-width:3.78308296;stroke-miterlimit:4;stroke-opacity:1"
         d="M 1188.2049,152.49845 C 1177.2479,152.65213 1166.5866,158.17596 1158.7674,167.0297 C 1147.7711,170.59727 1137.9842,179.30644 1132.3924,190.87345 C 1131.4417,192.33801 1130.5683,193.85412 1129.7674,195.43595 C 1129.7473,195.44768 1129.7249,195.45543 1129.7049,195.4672 C 1126.2631,195.29029 1122.8283,195.6591 1119.4861,196.49845 C 1115.3754,192.48306 1110.6355,189.34052 1105.4549,187.4047 C 1086.35,179.2992 1064.7508,190.73235 1055.2361,210.37345 C 1052.5704,214.47632 1050.4583,219.06062 1049.0799,223.99845 C 1034.2014,224.34634 1019.8909,234.55627 1012.6111,249.56095 C 1008.8489,255.34304 1006.1744,262.0708 1005.1111,269.4047 C 1001.0999,288.8886 1008.8583,309.93177 1022.3611,321.8422 C 1022.0536,323.17157 1021.779,324.53167 1021.5799,325.9047 C 1016.0063,352.97723 1033.1404,383.00186 1056.8611,387.43595 C 1059.7437,389.82622 1062.9455,391.81273 1066.3611,393.37345 C 1067.0496,394.51448 1067.7259,395.64047 1068.4861,396.7172 C 1068.6218,397.0342 1068.7778,397.343 1068.9236,397.6547 C 1074.0014,413.00667 1090.8933,423.09066 1106.8924,420.74845 C 1111.1336,420.32808 1115.2403,419.02704 1118.9861,417.06095 C 1119.5572,417.12237 1120.1273,417.1859 1120.7049,417.2172 C 1132.4997,418.57094 1143.653,413.25492 1151.9549,404.2797 C 1167.2069,404.49558 1181.0314,393.8237 1188.4236,378.87345 C 1189.7037,376.89505 1190.8668,374.82262 1191.8924,372.6547 C 1193.956,373.17984 1196.073,373.53748 1198.2361,373.6547 C 1213.0943,375.36003 1226.9734,366.48675 1235.3611,353.0297 C 1239.3459,349.10898 1242.7254,344.35951 1245.3299,339.0922 C 1250.2707,331.45611 1253.4077,322.27502 1253.9236,312.6547 C 1254.4845,312.71448 1255.044,312.78022 1255.6111,312.81095 C 1263.2898,313.69225 1270.7051,311.74818 1277.2361,307.81095 C 1292.3796,307.81832 1306.0941,297.09243 1313.3924,282.18595 C 1319.3262,272.93178 1322.6636,261.43408 1321.8611,249.6547 L 1321.7986,248.7797 C 1320.9584,228.36477 1308.7268,209.08558 1291.7674,202.74845 C 1281.1982,198.26434 1269.8614,199.75951 1260.2361,205.31095 C 1259.9876,205.31558 1259.7344,205.33209 1259.4861,205.3422 C 1254.9279,200.29305 1249.4358,196.36207 1243.3611,194.0922 C 1239.1024,192.28537 1234.7369,191.45935 1230.3924,191.4672 C 1226.7573,174.88891 1215.8486,160.44348 1201.6111,155.12345 C 1197.2184,153.25976 1192.6835,152.43564 1188.2049,152.49845 z "
         id="path3231" />
      <g
         id="g3233"
         transform="translate(-190.0124,-191.0072)">
        <path
           id="path3235"
           d="M 1288.7076,526.67603 C 1283.8472,526.67601 1278.9895,527.66743 1274.5201,529.70728 C 1259.8651,535.68119 1250.6466,552.7248 1254.7076,568.20728 C 1255.2095,570.44251 1255.9651,572.58806 1256.9263,574.61353 C 1256.5949,573.62899 1256.2818,572.60884 1256.0513,571.58228 C 1251.9903,556.09981 1261.2401,539.05619 1275.8951,533.08228 C 1291.7865,525.8295 1312.5439,532.08765 1321.1451,547.45728 C 1321.6682,548.35521 1322.117,549.29497 1322.5513,550.23853 C 1321.8417,548.10031 1320.9048,546.03012 1319.7701,544.08228 C 1313.588,533.03536 1301.1284,526.67609 1288.7076,526.67603 z "
           style="fill:#000000;fill-opacity:1;fill-rule:nonzero;stroke:#000000;stroke-width:1.46772707;stroke-miterlimit:4;stroke-opacity:1" />
        <path
           id="path3237"
           d="M 1329.4881,393.68859 C 1323.8661,393.68856 1318.2517,394.79783 1313.0818,397.15734 C 1296.1304,404.06741 1285.4468,423.81116 1290.1443,441.71984 C 1290.7154,444.26265 1291.5588,446.6926 1292.6443,449.00109 C 1292.2765,447.89657 1291.9651,446.77613 1291.7068,445.62609 C 1287.0094,427.71742 1297.6929,408.00491 1314.6443,401.09484 C 1333.0261,392.70549 1357.0079,399.94164 1366.9568,417.71984 C 1367.5529,418.743 1368.0854,419.80164 1368.5818,420.87609 C 1367.763,418.41923 1366.6988,416.05264 1365.3943,413.81359 C 1358.2435,401.03551 1343.8553,393.68866 1329.4881,393.68859 z "
           style="fill:#000000;fill-opacity:1;fill-rule:nonzero;stroke:#000000;stroke-width:1.69773364;stroke-miterlimit:4;stroke-opacity:1" />
        <path
           id="path3239"
           d="M 1321.7188,448.90625 C 1316.0967,448.90623 1310.4823,450.04675 1305.3125,452.40625 C 1288.3611,459.31633 1277.6775,479.0288 1282.375,496.9375 C 1282.9439,499.47101 1283.8265,501.88654 1284.9063,504.1875 C 1284.5422,503.09162 1284.1936,501.98441 1283.9375,500.84375 C 1279.24,482.93507 1289.9236,463.22257 1306.875,456.3125 C 1318.9249,450.81302 1333.3773,452.0022 1344.7188,458.5 C 1344.9666,457.69984 1345.2326,456.90847 1345.5313,456.125 C 1338.5454,451.45598 1330.1462,448.90629 1321.7188,448.90625 z "
           style="fill:#000000;fill-opacity:1;fill-rule:nonzero;stroke:#000000;stroke-width:1.69773364;stroke-miterlimit:4;stroke-opacity:1" />
        <path
           id="path3241"
           d="M 1379.8887,434.78819 C 1374.2667,434.78816 1368.6523,435.89743 1363.4825,438.25694 C 1346.5311,445.16701 1335.8475,464.87947 1340.545,482.78819 C 1341.1233,485.36352 1341.9707,487.8285 1343.0762,490.16319 C 1342.7001,489.04037 1342.3702,487.86442 1342.1075,486.69444 C 1337.41,468.78573 1348.0936,449.07326 1365.045,442.16319 C 1383.4268,433.77384 1407.4398,441.04124 1417.3887,458.81944 C 1417.97,459.81718 1418.4647,460.83532 1418.9512,461.88194 C 1418.1356,459.45047 1417.118,457.09929 1415.8262,454.88194 C 1408.6754,442.10386 1394.256,434.78826 1379.8887,434.78819 z "
           style="fill:#000000;fill-opacity:1;fill-rule:nonzero;stroke:#000000;stroke-width:1.69773364;stroke-miterlimit:4;stroke-opacity:1" />
        <path
           id="path3243"
           d="M 1363.357,503.6787 C 1359.0554,503.67868 1354.75,504.56087 1350.7945,506.3662 C 1337.8244,511.65328 1329.669,526.72627 1333.2632,540.4287 C 1333.7017,542.38142 1334.3345,544.2504 1335.1695,546.02245 C 1334.8873,545.17582 1334.6487,544.3103 1334.4507,543.4287 C 1330.8565,529.72624 1339.0432,514.65328 1352.0132,509.3662 C 1366.0775,502.94728 1384.4322,508.48236 1392.0445,522.08495 C 1392.4942,522.85691 1392.8876,523.64979 1393.2632,524.45995 C 1392.6386,522.59527 1391.8475,520.78519 1390.857,519.08495 C 1385.3857,509.30809 1374.3497,503.67875 1363.357,503.6787 z "
           style="fill:#000000;fill-opacity:1;fill-rule:nonzero;stroke:#000000;stroke-width:1.29898274;stroke-miterlimit:4;stroke-opacity:1" />
        <path
           id="path3245"
           d="M 1277.6698,474.45745 C 1272.0478,474.45742 1266.4333,475.59795 1261.2635,477.95745 C 1244.312,484.86752 1233.6283,504.58001 1238.326,522.4887 C 1238.8949,525.0222 1239.7775,527.43774 1240.8573,529.7387 C 1240.4933,528.64281 1240.1446,527.53561 1239.8885,526.39495 C 1235.1909,508.48627 1245.8745,488.77377 1262.826,481.8637 C 1268.5363,479.25752 1274.7765,478.13564 1280.9823,478.39495 C 1281.5548,477.1618 1282.2255,475.972 1282.9198,474.8012 C 1281.1781,474.58362 1279.4234,474.45746 1277.6698,474.45745 z "
           style="fill:#000000;fill-opacity:1;fill-rule:nonzero;stroke:#000000;stroke-width:1.69773364;stroke-miterlimit:4;stroke-opacity:1" />
      </g>
    </g>
  </g>
</svg>
