<?xml version="1.0"?><svg width="640" height="480" xmlns="http://www.w3.org/2000/svg">
 <!-- Created with SVG-edit - http://svg-edit.googlecode.com/ -->
 <title>brain1111</title>
 <g>
  <title>Layer 1</title>
  <g id="layer1" display="inline">
   <path id="svg_2" fill="none" fill-rule="evenodd" stroke="#000000" stroke-width="3.75" stroke-linecap="round" stroke-linejoin="round" stroke-miterlimit="4" d="m94.428474,364.384583c-19.286774,-7.110626 -35.92688,-20.157745 -48.501045,-36.723846c-8.55191,-9.688477 -19.977654,-17.659271 -21.81979,-31.358185c-2.516907,-7.911133 -7.582493,-18.374603 -4.559296,-24.009888c-15.368835,-7.834412 -8.059929,-27.786697 -4.556664,-40.510757c6.144028,-11.048676 -6.975697,-22.497101 0.758102,-32.937317c10.89806,-4.213669 1.138779,-15.217133 7.843525,-23.039505c4.938314,-8.111267 12.904678,-16.178528 22.998524,-17.243973c-1.026863,-12.794571 11.386055,-19.55014 16.365177,-30.212646c10.778564,-9.305786 19.938782,-21.375031 34.873589,-23.583694c12.743538,-7.378433 27.79512,-8.882309 39.766083,-17.858818c11.56424,-7.930649 24.325653,-12.754791 38.202271,-14.685341c18.549149,-3.609428 36.858749,-7.988075 53.956894,-16.256557c30.834335,-5.132198 62.487473,-11.623024 93.691757,-7.677097c12.851196,4.756149 25.702057,-4.537655 38.999084,-3.503777c18.543243,-1.474815 36.744019,5.411728 55.140442,7.52227c15.33252,4.746071 30.90979,10.237892 45.528198,16.617744c7.180939,9.398926 21.123108,5.916672 28.779083,15.103645c11.387939,9.185684 26.985779,15.676926 33.064026,29.44297c0.682556,8.774872 12.419495,12.237534 18.043945,18.319832c14.981445,9.626617 25.103821,24.790314 35.271423,38.89061c2.204895,7.774231 6.857422,17.216248 4.384338,23.550613c14.310608,12.541901 20.68457,31.202148 31.049805,46.785507c1.834045,10.503586 9.569397,20.844254 6.923767,31.471512c7.680115,5.903107 8.528198,17.320923 11.188782,26.027527c-1.556641,12.640289 -0.08136,26.327576 -9.596863,36.219452c-4.782227,10.013611 -12.396423,17.1987 -22.270386,22.126923c-9.42804,5.70871 -21.687988,4.704987 -31.754883,0.899048c-24.740845,-7.498444 -50.661804,-7.333801 -75.970337,-11.629761c-13.829224,5.85733 -26.011932,14.929199 -40.992645,18.070282c-13.941315,4.448975 -28.52005,11.900055 -43.350952,7.106964c0.373566,13.179565 -15.343536,12.435608 -24.768372,14.186035c-18.016449,3.581085 -36.597809,4.384857 -54.605072,6.631348c-19.887909,10.849701 -41.404633,19.544861 -59.816528,32.608551c-7.844208,9.705231 -20.052643,15.532288 -32.549179,12.475403c-13.666626,-0.967651 -24.525726,-11.661896 -37.088531,-16.615143c-10.741806,-6.902374 -25.155258,-2.519928 -34.991547,-11.79834c-8.072922,-3.903656 -13.816315,-12.171539 -18.187653,-19.452972c-5.0439,-6.775513 6.590683,-22.099579 -3.028671,-22.076477c-16.140129,-0.960724 -27.244827,0.596283 -48.420403,-2.882141z"/>
   <path id="svg_3" fill="none" fill-rule="evenodd" stroke="#000000" stroke-width="2.5" stroke-linecap="round" stroke-linejoin="round" stroke-miterlimit="4" d="m170.589478,390.820618c24.187119,-8.660767 30.749557,-36.644745 50.844833,-50.416687c14.915695,-10.272949 31.213791,-26.825562 50.984451,-19.182434c25.380341,8.412628 53.056091,-0.987213 72.915497,-17.594482c14.364929,-12.738525 33.235474,-19.285583 52.368683,-16.513519c22.176849,5.828613 27.121887,-15.989777 33.961823,-31.415726c8.576721,-16.802689 28.970947,-23.190567 33.415405,-42.90535c11.103088,-17.159119 18.120575,-36.5952 21.392609,-56.757111c0.324707,-14.847809 9.970734,-26.051758 19.26947,-36.581093c1.360718,-1.948494 2.562378,-4.016479 3.480347,-6.212059"/>
   <path id="svg_4" fill="none" fill-rule="evenodd" stroke="#000000" stroke-width="1.25" stroke-linecap="round" stroke-linejoin="round" stroke-miterlimit="4" d="m218.426117,423.550995c13.302521,-9.180298 25.496399,-20.196198 34.598297,-33.611176c7.844513,-7.157257 19.249146,-4.993774 28.820984,-7.304504c8.939087,-0.208099 17.175812,-3.917358 24.468689,-8.850769c6.450134,-5.285675 13.591064,0.713318 19.407349,3.974945c6.537994,4.275085 12.870483,8.877991 19.849487,12.431732"/>
   <path id="svg_5" fill="none" fill-rule="evenodd" stroke="#000000" stroke-width="3.75" stroke-linecap="round" stroke-linejoin="round" stroke-miterlimit="4" d="m146.041718,367.531738c10.945816,-25.292664 21.93988,-51.554688 45.817001,-67.544189c24.790619,-19.204773 54.022369,-42.089111 87.099777,-39.130981c32.373688,11.671326 38.021515,-27.908707 61.130432,-39.231705c20.194183,-11.403809 51.3461,3.272827 64.373383,-22.352844c11.102234,-21.960251 14.456818,-19.524475 20.254333,-26.697205"/>
   <path id="svg_6" fill="none" fill-rule="evenodd" stroke="#000000" stroke-width="2.5" stroke-linecap="round" stroke-linejoin="round" stroke-miterlimit="4" d="m320.393677,239.757507c-6.65979,-24.98526 -16.110718,-40.57103 -10.11084,-66.499573c2.201355,-12.434692 16.617798,-37.768082 26.390991,-45.582397c21.41687,-33.108879 21.287811,-25.372566 51.150574,-34.332954"/>
   <path id="svg_7" fill="none" fill-rule="evenodd" stroke="#000000" stroke-width="1.25" stroke-linecap="round" stroke-linejoin="round" stroke-miterlimit="4" d="m478.490845,183.447418c-7.502411,-26.576721 -34.572784,-19.516418 -44.611298,-44.813858c-6.799377,-10.848564 -13.502319,-43.078468 -20.03067,-54.123459c-13.362885,-6.500717 -24.244293,-19.233147 -25.820343,-34.337784c-0.305084,-1.006763 -0.610229,-2.013527 -0.915253,-3.020287"/>
   <path id="svg_8" fill="none" fill-rule="evenodd" stroke="#000000" stroke-width="1.25" stroke-linecap="round" stroke-linejoin="round" stroke-miterlimit="4" d="m496.634033,207.656601c3.948853,5.850616 8.352875,11.39299 12.017792,17.43428c1.702271,16.129532 6.640533,32.874817 1.215363,48.82489c-3.455017,11.529388 -7.752167,23.318542 -6.581451,35.556763c-3.830017,6.546539 0.658569,16.393341 8.334869,17.26593c6.775146,3.203522 16.100952,4.065918 21.539185,-2.085358c8.288513,-7.13562 19.09668,-12.444031 30.284851,-11.030853c6.861755,-0.351715 13.608765,-6.777039 11.951355,-13.975311c-0.184143,-1.969269 -0.673157,-3.900665 -1.342102,-5.758484"/>
   <path id="svg_9" fill="none" fill-rule="evenodd" stroke="#000000" stroke-width="2.5" stroke-linecap="round" stroke-linejoin="round" stroke-miterlimit="4" d="m533.140991,281.299927c17.125,-3.635162 34.210083,-7.54892 50.983765,-12.588654c4.549683,1.097137 10.074341,0.793701 13.354553,4.719818c5.509033,4.318848 10.855591,9.031891 14.633057,14.992157c6.336304,7.765472 11.05603,16.639587 15.421753,25.611053l0.325378,0.627441l0.325317,0.627319"/>
   <path id="svg_10" fill="none" fill-rule="evenodd" stroke="#000000" stroke-width="1.25" stroke-linecap="round" stroke-linejoin="round" stroke-miterlimit="4" d="m582.865845,268.081909c2.512817,-8.472717 7.13324,-17.645844 3.439331,-26.486725c-4.364929,-11.787216 -13.796021,-20.664886 -19.456238,-31.714783c-2.204224,-5.745071 -4.687073,-12.028702 -10.387268,-15.15741c-5.410706,-3.816559 -12.190674,-4.320847 -18.527405,-5.151825c-10.255005,-2.839188 -14.867493,-13.432281 -21.158508,-20.939194"/>
   <path id="svg_11" fill="none" fill-rule="evenodd" stroke="#000000" stroke-width="1.25" stroke-linecap="round" stroke-linejoin="round" stroke-miterlimit="4" d="m477.75119,320.324493c-8.470703,2.132843 -16.687683,5.422516 -25.369751,6.617523c-12.54187,1.309326 -25.148315,2.192413 -37.760345,2.127533c-4.200073,-0.000519 -7.918518,-2.335632 -10.613586,-5.413879c-4.226196,-4.664917 -7.692535,-9.955048 -11.885406,-14.654205c-1.041077,-1.260345 -2.08313,-2.519867 -3.120514,-3.783234"/>
   <path id="svg_12" fill="none" fill-rule="evenodd" stroke="#000000" stroke-width="1.25" stroke-linecap="round" stroke-linejoin="round" stroke-miterlimit="4" d="m397.184174,365.643494c-12.074585,-13.940033 -30.735046,-21.079742 -39.626923,-38.036621c-5.300537,-7.788269 -7.817902,-17.408783 -6.950867,-26.794678"/>
   <path id="svg_13" fill="none" fill-rule="evenodd" stroke="#000000" stroke-width="1.25" stroke-linecap="round" stroke-linejoin="round" stroke-miterlimit="4" d="m351.865204,358.090271c7.156555,-3.676544 16.23584,-5.210571 20.771149,-12.588562"/>
   <path id="svg_14" fill="none" fill-rule="evenodd" stroke="#000000" stroke-width="1.25" stroke-linecap="round" stroke-linejoin="round" stroke-miterlimit="4" d="m453.2034,261.787567c14.052795,3.812744 32.149933,15.629272 19.53241,31.543304c-1.341278,2.703796 -3.025879,5.24408 -5.055511,7.481323"/>
   <path id="svg_15" fill="none" fill-rule="evenodd" stroke="#000000" stroke-width="1.25" stroke-linecap="round" stroke-linejoin="round" stroke-miterlimit="4" d="m475.862885,274.37616c5.664825,-2.5177 11.329651,-5.035431 16.994568,-7.553162"/>
   <path id="svg_16" fill="none" fill-rule="evenodd" stroke="#000000" stroke-width="1.25" stroke-linecap="round" stroke-linejoin="round" stroke-miterlimit="4" d="m510.481537,243.534088c-8.510651,3.279739 -16.904846,6.859772 -25.177246,10.700302"/>
   <path id="svg_17" fill="none" fill-rule="evenodd" stroke="#000000" stroke-width="1.25" stroke-linecap="round" stroke-linejoin="round" stroke-miterlimit="4" d="m487.192535,190.032593c13.299377,-12.817169 28.783051,-23.05452 44.411469,-32.776367c3.21936,-5.352432 3.264038,-11.807785 5.313599,-17.578033"/>
   <path id="svg_18" fill="none" fill-rule="evenodd" stroke="#000000" stroke-width="1.25" stroke-linecap="round" stroke-linejoin="round" stroke-miterlimit="4" d="m575.312744,353.684265c15.825623,-9.783142 27.215576,-28.112427 23.250671,-47.1474c-0.61969,-4.773956 -1.854004,-9.474548 -3.738342,-13.907227"/>
   <path id="svg_19" fill="none" fill-rule="evenodd" stroke="#000000" stroke-width="1.25" stroke-linecap="round" stroke-linejoin="round" stroke-miterlimit="4" d="m423.620209,280.041016c5.276184,4.517822 16.376495,6.543579 14.476837,15.735748"/>
   <path id="svg_20" fill="none" fill-rule="evenodd" stroke="#000000" stroke-width="1.25" stroke-linecap="round" stroke-linejoin="round" stroke-miterlimit="4" d="m438.097046,288.853027c2.727539,-1.258881 5.455078,-2.5177 8.182617,-3.77655"/>
   <path id="svg_21" fill="none" fill-rule="evenodd" stroke="#000000" stroke-width="1.25" stroke-linecap="round" stroke-linejoin="round" stroke-miterlimit="4" d="m287.033936,366.272919c-12.031586,-4.22934 -25.351868,-17.058289 -18.882843,-30.842133"/>
   <path id="svg_22" fill="none" fill-rule="evenodd" stroke="#000000" stroke-width="1.25" stroke-linecap="round" stroke-linejoin="round" stroke-miterlimit="4" d="m441.873657,365.013977l-8.811981,-10.070801"/>
   <path id="svg_23" fill="none" fill-rule="evenodd" stroke="#000000" stroke-width="1.25" stroke-linecap="round" stroke-linejoin="round" stroke-miterlimit="4" d="m559.576965,249.198944c0.00116,-11.775681 -0.201904,-40.796692 -18.882813,-33.359726c-13.393188,6.059479 -15.156067,25.303925 -26.436035,27.065445"/>
   <path id="svg_24" fill="none" fill-rule="evenodd" stroke="#000000" stroke-width="1.25" stroke-linecap="round" stroke-linejoin="round" stroke-miterlimit="4" d="m562.724121,197.585709l1.888306,-16.994598l-4.406006,-15.735718l-3.147156,-12.588593"/>
   <path id="svg_25" fill="none" fill-rule="evenodd" stroke="#000000" stroke-width="1.25" stroke-linecap="round" stroke-linejoin="round" stroke-miterlimit="4" d="m589.160217,246.681244c4.196167,-2.937347 8.392334,-5.87468 12.588562,-8.812027"/>
   <path id="svg_26" fill="none" fill-rule="evenodd" stroke="#000000" stroke-width="1.25" stroke-miterlimit="4" d="m146.041718,281.299927c-7.0383,-3.052704 -14.421173,-7.311127 -17.197479,-14.920959c-2.95565,-6.284546 -2.626053,-15.027344 -9.507957,-18.744202c-4.715469,-4.990768 -13.71183,-5.987747 -15.519989,-13.49675c-0.393623,-7.94899 -1.802147,-17.108841 -8.928116,-21.940903c-5.430283,-3.807526 -9.476448,-11.152496 -16.968521,-10.760544c-6.724815,0.13353 -13.162476,7.646896 -19.693825,3.975433c-7.606548,-5.05481 -11.132782,-13.934601 -15.254097,-21.698563c-2.957573,-6.660019 -3.786575,-14.943756 0.61607,-21.192139c0.592487,-1.104492 1.196045,-2.203644 1.745159,-3.330765"/>
   <path id="svg_27" fill="none" fill-rule="evenodd" stroke="#000000" stroke-width="1.25" stroke-miterlimit="4" d="m96.316757,313.400848c-3.986374,-4.825623 -7.972763,-9.651337 -11.95916,-14.476959c-0.839233,-3.77655 -1.678467,-7.553162 -2.5177,-11.329742c1.521812,-7.616089 4.138176,-15.167206 8.820709,-21.433563c1.220009,-2.98877 -0.768326,-7.046448 -4.121193,-7.361023c-3.153687,0.575348 -6.552765,2.088745 -9.670563,0.559448c-6.293541,-1.44397 -12.463898,-4.799484 -15.999374,-10.360413c-0.536507,-0.588257 -1.094482,-1.157974 -1.68906,-1.687927"/>
   <path id="svg_28" fill="none" fill-rule="evenodd" stroke="#000000" stroke-width="1.25" stroke-miterlimit="4" d="m72.398453,228.42778c-5.035431,-0.839233 -10.070877,-1.678467 -15.106327,-2.5177c-3.776558,1.678467 -7.553135,3.356979 -11.329731,5.035446c-1.465225,3.799805 -4.970013,7.289673 -3.946175,11.66893c0.794128,8.181274 1.567799,17.073349 7.041176,23.656967c4.820061,5.374939 8.508934,11.683105 11.287971,18.320679c1.925636,3.204224 2.312016,7.164093 1.375553,10.745514c-0.023468,0.35556 -0.033356,0.71225 -0.022781,1.068573"/>
   <path id="svg_29" fill="none" fill-rule="evenodd" stroke="#000000" stroke-width="1.25" stroke-miterlimit="4" d="m136.600281,100.024139c-4.491623,3.596916 -9.090439,8.09803 -15.217766,8.229118c-8.411194,1.83094 -15.470718,7.193947 -21.62442,12.947845c-7.504913,4.501488 -16.911705,2.734138 -24.628433,6.585602c-5.618523,3.44297 -10.415878,10.252388 -8.275894,17.066292c1.47747,3.971741 5.900238,6.271225 6.450798,10.697525c0.876884,4.284607 3.344826,8.223007 7.534119,9.868118c0.58844,0.381439 1.152267,0.809464 1.630623,1.325043"/>
   <path id="svg_30" fill="none" fill-rule="evenodd" stroke="#000000" stroke-width="1.25" stroke-miterlimit="4" d="m230.3853,125.830757c3.365875,-3.40239 6.805084,-6.732208 10.12529,-10.179703c3.51561,-7.129639 6.988998,-14.314873 11.464478,-20.906601c1.502487,-2.592278 3.054703,-5.290413 5.651154,-6.945755c3.298462,-2.638802 6.596954,-5.277557 9.895416,-7.916313"/>
   <path id="svg_31" fill="none" fill-rule="evenodd" stroke="#000000" stroke-width="1.25" stroke-miterlimit="4" d="m103.240501,297.665039c15.224602,-2.252747 30.478508,-4.530212 45.867805,-5.262817c3.058075,-0.126343 6.246567,-0.186218 8.998581,-1.703308c3.111816,-1.24469 6.223648,-2.48941 9.335434,-3.734161"/>
   <path id="svg_32" fill="none" fill-rule="evenodd" stroke="#000000" stroke-width="1.25" stroke-miterlimit="4" d="m286.404541,205.768326l0,0c2.5177,32.100891 4.406006,33.359772 4.406006,33.359772"/>
   <path id="svg_33" fill="none" fill-rule="evenodd" stroke="#000000" stroke-width="1.25" stroke-miterlimit="4" d="m222.202698,175.55571c11.329727,23.918289 5.035446,30.212616 5.035446,30.212616"/>
   <path id="svg_34" fill="none" fill-rule="evenodd" stroke="#000000" stroke-width="1.25" stroke-miterlimit="4" d="m364.409058,114.456306c21.400665,18.253426 16.365143,38.39518 16.365143,38.39518"/>
   <path id="svg_35" fill="none" fill-rule="evenodd" stroke="#000000" stroke-width="1.25" stroke-miterlimit="4" d="m350.021637,175.358215c2.491547,30.670807 41.784576,35.49028 41.784576,35.49028"/>
   <path id="svg_36" fill="none" fill-rule="evenodd" stroke="#000000" stroke-width="1.25" stroke-miterlimit="4" d="m78.692749,346.131073c18.882881,-21.400513 50.35437,-1.258789 50.35437,-1.258789"/>
   <path id="svg_37" fill="none" fill-rule="evenodd" stroke="#000000" stroke-width="1.25" stroke-miterlimit="4" d="m266.892212,319.695099c-10.565308,-9.955353 -12.171951,-27.063263 -5.664856,-39.654083"/>
   <path id="svg_38" fill="none" fill-rule="evenodd" stroke="#000000" stroke-width="1.25" stroke-miterlimit="4" d="m302.769714,261.787567c-3.605316,11.45816 -10.448456,21.768066 -12.647644,33.688904c-1.319153,2.46167 -3.880737,3.844391 -5.605835,5.965149"/>
   <path id="svg_39" fill="none" fill-rule="evenodd" stroke="#000000" stroke-width="1.25" stroke-miterlimit="4" d="m352.494659,254.863815c9.217316,1.909958 18.657104,5.314285 28.15036,3.176224c9.522034,1.329376 11.814056,-10.126511 15.280273,-16.394241"/>
   <path id="svg_40" fill="none" fill-rule="evenodd" stroke="#000000" stroke-width="1.25" stroke-miterlimit="4" d="m400.331329,224.651199c9.8078,2.079468 20.362396,4.993317 30.134277,1.176987c8.178558,-0.332687 15.352081,4.235886 22.737793,7.00563"/>
   <path id="svg_41" fill="none" fill-rule="evenodd" stroke="#000000" stroke-width="1.25" stroke-miterlimit="4" d="m441.244263,123.942467c4.825623,-0.419632 9.651215,-0.839233 14.476837,-1.258865c6.986877,-5.037659 14.107147,-9.893181 21.400665,-14.476891"/>
   <path id="svg_42" fill="none" fill-rule="evenodd" stroke="#000000" stroke-width="1.25" stroke-miterlimit="4" d="m503.5578,113.871574c-8.572235,-9.856705 -21.335785,-14.241745 -33.354034,-18.267609c-9.190399,-3.804115 -20.2948,-5.275581 -29.324432,-0.235115c-3.457916,1.736511 -6.751282,3.804794 -10.335449,5.284706"/>
   <path id="svg_43" fill="none" fill-rule="evenodd" stroke="#000000" stroke-width="1.25" stroke-miterlimit="4" d="m453.832764,91.841568c-1.5177,-4.104675 1.069672,-9.157501 5.262695,-10.373093c3.184662,-2.261597 5.529999,-5.467667 8.584839,-7.880371"/>
   <path id="svg_44" fill="none" fill-rule="evenodd" stroke="#000000" stroke-width="1.25" stroke-miterlimit="4" d="m355.01236,52.816895c9.332123,2.181549 15.525421,19.120049 2.043121,19.639282c-11.47052,2.033951 -23.33078,3.795708 -33.140411,10.607292c-7.865234,4.954094 -19.210236,11.373199 -17.30191,22.369354c5.467896,7.844551 0.83078,15.391159 -8.020905,17.212784c-8.804138,6.692284 -12.039551,17.908638 -14.741394,28.357948c-4.629578,9.069183 -8.145081,20.446259 -17.059174,25.987457c-12.161179,4.762115 -9.301056,18.513474 -5.744507,27.788193c0.319092,12.013458 -12.608337,15.754623 -17.590271,24.532959c-1.935181,9.92865 -9.838989,15.166077 -16.987183,21.219101c-8.237106,6.064499 -1.495193,15.017868 4.734131,19.375107c0.946899,0.707489 1.935181,1.359619 2.957993,1.952057"/>
   <path id="svg_45" fill="none" fill-rule="evenodd" stroke="#000000" stroke-width="2.5" stroke-miterlimit="4" d="m309.69339,54.075768c-13.165405,2.21703 -18.128143,16.551758 -20.326874,28.009041c-7.979095,8.0457 -10.909363,19.909691 -10.920837,30.05619c-6.529968,7.251343 -20.220886,12.674782 -16.84317,24.622292c1.862549,14.773193 -17.59993,14.306168 -27.576935,16.430145c-10.534943,-0.163086 -25.271439,-3.483749 -31.025375,8.259308c-5.803711,12.146072 -0.004105,25.715805 -1.515427,38.490479c-2.15538,18.99292 -14.353439,35.19342 -16.147644,54.33905c-1.887375,13.569565 -0.849609,27.352341 0.988098,40.865067"/>
   <path id="svg_46" fill="none" fill-rule="evenodd" stroke="#000000" stroke-width="1.25" stroke-miterlimit="4" d="m177.513199,266.822998c-1.628296,-13.453506 -4.380081,-27.234009 -1.319153,-40.696411c0.872025,-7.666748 0.166443,-15.41835 -1.120728,-22.99646c-1.73143,-5.133102 -5.648422,-9.074707 -8.260437,-13.72699"/>
   <path id="svg_47" fill="none" fill-rule="evenodd" stroke="#000000" stroke-width="1.25" stroke-miterlimit="4" d="m263.115601,57.852341c-0.589935,5.415421 -6.758362,6.899094 -11.29985,7.206238c-12.550232,1.32238 -24.102631,6.894295 -36.235016,10.007042c-8.406754,2.939011 -16.162842,7.376724 -24.220062,11.111046c-3.986389,6.294319 -7.972794,12.5886 -11.959183,18.882919c-0.086823,5.25592 1.000397,12.146721 6.810242,13.947495c5.85997,2.464691 11.50795,5.393822 17.30101,8.006142c6.173157,5.476341 9.021881,13.482994 13.293701,20.338036c0.965652,1.845123 1.918869,3.696716 2.878555,5.544952"/>
   <path id="svg_48" fill="none" fill-rule="evenodd" stroke="#000000" stroke-width="1.25" stroke-miterlimit="4" d="m200.172653,165.484818c-4.182983,-2.80249 -8.852112,-5.705765 -14.104446,-5.245041c-5.085281,-0.561264 -10.153656,0.683533 -14.787399,2.700638c-6.289597,1.941025 -12.501541,4.372299 -17.873749,8.241776c-3.834717,2.151199 -7.072311,5.156204 -9.914047,8.474731c-3.050049,2.942505 -5.90155,6.270935 -7.140762,10.405151c-1.060837,3.136276 -3.397064,6.104996 -2.724716,9.546524c0.119766,4.669128 0.144699,9.586411 2.567627,13.747711c1.393906,3.345337 2.787796,6.690689 4.181686,10.036026"/>
   <path id="svg_49" fill="none" fill-rule="evenodd" stroke="#000000" stroke-width="1.25" stroke-miterlimit="4" d="m131.564819,198.844589c-6.165314,1.12883 -14.101234,-1.784851 -15.423477,-8.535583c-3.671066,-6.417267 -2.167007,-15.596756 -8.850174,-20.22493c-7.512367,-1.482178 -12.398575,-9.810913 -10.394653,-17.134384c1.532288,-9.105362 10.394142,-13.868668 17.413315,-18.48999c11.661171,-7.097275 24.924072,-11.409676 35.809723,-19.801453c5.756683,-5.005135 -0.249374,-12.763924 2.511398,-18.543106c4.180984,-6.296944 12.446548,-6.710876 18.786774,-9.642059c6.592651,-2.545853 14.302734,-4.129929 20.873718,-0.634438l0.95752,0.33802"/>
   <path id="svg_50" fill="none" fill-rule="evenodd" stroke="#000000" stroke-width="1.25" stroke-miterlimit="4" d="m164.123932,112.351997c-0.822205,5.70993 -8.858459,10.516357 -10.512802,18.014946c2.806396,13.073792 -2.425552,13.836517 -15.371475,13.814484c-4.931046,1.392853 -7.315369,6.490417 -8.83551,10.953308c-1.651474,4.756927 -2.218369,9.790863 -2.874748,14.756104"/>
   <path id="svg_51" fill="none" fill-rule="evenodd" stroke="#000000" stroke-width="1px" d="m198.284363,123.313019c0.239899,-5.834869 1.610657,-11.773674 6.187302,-15.759804c2.884369,-3.027626 4.904205,-6.791725 5.08226,-11.004898l0.048615,-0.243019l0.011551,-0.057732"/>
  </g>
 </g>
</svg>