<?xml version="1.0" encoding="UTF-8" standalone="no"?>
<!-- Created with Inkscape (http://www.inkscape.org/) -->

<svg
   xmlns:dc="http://purl.org/dc/elements/1.1/"
   xmlns:cc="http://creativecommons.org/ns#"
   xmlns:rdf="http://www.w3.org/1999/02/22-rdf-syntax-ns#"
   xmlns:svg="http://www.w3.org/2000/svg"
   xmlns="http://www.w3.org/2000/svg"
   xmlns:sodipodi="http://sodipodi.sourceforge.net/DTD/sodipodi-0.dtd"
   xmlns:inkscape="http://www.inkscape.org/namespaces/inkscape"
   width="515.66138"
   height="406"
   id="svg2"
   sodipodi:version="0.32"
   inkscape:version="0.48.0 r9654"
   version="1.0"
   style="display:inline"
   sodipodi:docname="Brain_cerebrellum.svg"
   inkscape:output_extension="org.inkscape.output.svg.inkscape"
   inkscape:export-filename="/home/caspar/Dropbox/Code/TiBrain/Resources/icons/Brain_cerebrellum.png"
   inkscape:export-xdpi="90"
   inkscape:export-ydpi="90">
  <defs
     id="defs4" />
  <sodipodi:namedview
     id="base"
     pagecolor="#ffffff"
     bordercolor="#666666"
     borderopacity="1.0"
     inkscape:pageopacity="0.0"
     inkscape:pageshadow="2"
     inkscape:zoom="1.0829707"
     inkscape:cx="437.49674"
     inkscape:cy="225.34283"
     inkscape:document-units="px"
     inkscape:current-layer="layer4"
     showgrid="false"
     showguides="true"
     inkscape:guide-bbox="true"
     inkscape:window-width="1617"
     inkscape:window-height="1018"
     inkscape:window-x="61"
     inkscape:window-y="0"
     inkscape:window-maximized="0" />
  <metadata
     id="metadata7">
    <rdf:RDF>
      <cc:Work
         rdf:about="">
        <dc:format>image/svg+xml</dc:format>
        <dc:type
           rdf:resource="http://purl.org/dc/dcmitype/StillImage" />
        <dc:title></dc:title>
      </cc:Work>
    </rdf:RDF>
  </metadata>
  <g
     inkscape:groupmode="layer"
     id="layer5"
     inkscape:label="Pons"
     style="display:inline"
     transform="translate(-106.83931,-293.64792)">
    <g
       style="display:inline"
       id="g4625">
      <path
         sodipodi:nodetypes="cccccccc"
         id="path4610"
         d="M 347.68658,592.69769 C 356.1747,605.64752 360.41876,618.92383 379.02734,624.69141 C 385.76134,627.13524 392.01665,623.07006 395.46983,629.81089 C 408.78622,647.72282 427.09925,666.75159 443.49269,682.65332 C 449.4728,685.98261 452.54898,694.56233 460.31535,694.37529 C 466.98299,693.06278 475.46618,694.34899 479.94454,688.03953 C 481.28054,679.33625 469.86735,678.74387 465.76667,673.30547 C 462.12598,669.24515 460.07757,664.10535 457.05276,659.62329"
         style="fill:none;fill-rule:evenodd;stroke:#000000;stroke-width:2;stroke-linecap:round;stroke-linejoin:round;stroke-miterlimit:4;stroke-dasharray:none;stroke-opacity:1" />
      <path
         sodipodi:nodetypes="cc"
         id="path4623"
         d="M 386.20959,625.34431 C 399.26824,619.79439 400.24763,612.9386 400.24763,612.9386"
         style="fill:none;fill-rule:evenodd;stroke:#000000;stroke-width:2;stroke-linecap:round;stroke-linejoin:round;stroke-miterlimit:4;stroke-dasharray:none;stroke-opacity:1" />
    </g>
  </g>
  <g
     inkscape:groupmode="layer"
     id="layer4"
     inkscape:label="Eyes"
     style="display:inline"
     transform="translate(-106.83931,-293.64792)">
    <path
       style="opacity:0.95999995;fill:#cccccc;stroke-width:16.5;stroke-linecap:round;stroke-linejoin:round;stroke-miterlimit:4;stroke-dasharray:none"
       d="m 192.79945,317.50403 c -2.79325,-0.74515 -8.61058,-3.37211 -12.92741,-5.83768 -12.88207,-7.35764 -15.27906,-8.33999 -25.16626,-10.31375 -12.66112,-2.52753 -19.66708,-6.99095 -26.44001,-16.84464 -2.90525,-4.22674 -3.02978,-4.73875 -2.35804,-9.69556 0.39005,-2.87824 0.77665,-6.47973 0.85911,-8.00331 0.36727,-6.78562 14.01454,-32.64309 22.71034,-43.02928 4.95787,-5.92162 31.65026,-25.96856 42.805,-32.14807 12.58369,-6.97112 21.08453,-9.53761 31.4507,-9.49528 11.07093,0.0452 23.54634,0.52052 23.54634,0.89714 0,0.16677 -1.60799,4.12562 -3.57332,8.79745 -1.96531,4.67183 -3.86481,9.74081 -4.22109,11.2644 -0.35628,1.52359 -1.70235,3.87908 -2.99126,5.23444 -1.31211,1.37974 -2.05131,2.937 -1.67962,3.53841 1.00338,1.62351 5.79292,-3.39106 6.51873,-6.825 0.33379,-1.57918 2.64356,-7.82126 5.13285,-13.87129 3.63321,-8.83031 5.2405,-11.61167 8.14845,-14.10079 1.99238,-1.70539 6.31064,-6.52018 9.59614,-10.69951 13.1923,-16.7813 16.50277,-18.62932 36.85851,-20.57568 22.48774,-2.15021 25.92968,-3.99598 34.45066,-18.47436 2.76504,-4.69819 7.10375,-10.53212 9.64157,-12.96428 4.77237,-4.57367 5.73566,-7.12786 3.0735,-8.14943 -2.39997,-0.92095 -11.1382,8.74279 -17.16472,18.98271 -3.23598,5.4984 -6.34105,9.58868 -8.14724,10.73227 -2.63557,1.66873 -3.34104,1.73639 -7.2773,0.69802 -13.42143,-3.5405 -23.35964,-11.98015 -26.07868,-22.14633 -0.61481,-2.29871 -1.44718,-4.17947 -1.8497,-4.17947 -1.44379,0 -0.67374,5.16435 1.44569,9.69555 3.56452,7.6207 11.28734,13.54137 24.13893,18.50604 2.36942,0.91532 -2.25906,1.74542 -17.54433,3.14652 -13.26633,1.21604 -18.5537,3.39669 -26.20502,10.80758 -2.78641,2.69884 -5.15383,4.80987 -5.26093,4.69115 -0.87858,-0.97387 -6.98365,-23.69434 -7.6707,-28.54703 -0.91202,-6.4417 -0.0523,-16.9746 1.87016,-22.9123 2.59121,-8.003201 13.77005,-27.069066 17.86303,-30.46593 0.87539,-0.726512 3.29113,-3.830814 5.3683,-6.898449 2.07718,-3.067633 5.83603,-7.761729 8.35303,-10.431322 4.8273,-5.119978 6.64675,-5.924225 22.53392,-9.960594 5.21351,-1.32457 6.69455,-2.070031 6.69455,-3.369623 0,-0.917826 -0.31164,-1.659678 -0.69254,-1.64856 -2.26019,0.06598 -21.58461,5.482877 -24.494,6.866009 -4.04227,1.921696 -9.22157,7.511349 -15.43708,16.660119 -2.41523,3.555036 -5.33367,7.294749 -6.48543,8.310474 -2.56769,2.264415 -9.12374,12.332697 -12.7424,19.568803 -5.30571,10.609633 -6.17484,14.518193 -6.12037,27.523883 0.0469,11.19426 0.28758,12.78263 3.56797,23.54634 1.93473,6.34828 3.85442,12.67658 4.26596,14.06288 0.6723,2.2646 0.0959,3.21912 -5.67651,9.40014 -8.16685,8.74499 -12.36504,10.62516 -20.13924,9.01943 -10.65603,-2.20097 -21.72736,-0.80087 -34.6803,4.38574 -3.89735,1.56058 -7.46762,2.83741 -7.93393,2.83741 -1.13203,0 -6.39972,-7.33115 -6.39972,-8.90662 0,-0.68335 3.46892,-4.67236 7.70872,-8.86447 4.82871,-4.77441 7.95473,-8.65696 8.36719,-10.39218 0.38817,-1.63294 3.31529,-5.45934 7.13025,-9.3208 7.67605,-7.76959 8.62428,-10.45463 6.53247,-18.49755 -2.14736,-8.25652 -1.15299,-11.66037 4.61746,-15.80603 5.57141,-4.00265 10.70008,-11.54051 14.16899,-20.824822 1.36687,-3.658337 3.3526,-8.92784 4.41273,-11.710006 2.05315,-5.388238 7.33424,-12.024157 9.56923,-12.024157 0.74176,0 2.56327,-1.214608 4.04778,-2.699129 2.05498,-2.054975 2.69913,-3.553478 2.69913,-6.279024 0,-1.968944 -0.46759,-4.047488 -1.03908,-4.618987 -1.95318,-1.95318 -0.0691,-7.080037 4.04716,-11.012871 6.77851,-6.476452 14.4779,-10.395372 25.40027,-12.928511 14.22863,-3.299932 14.34027,-3.341886 15.79676,-5.936797 1.76765,-3.149298 0.80769,-6.584818 -3.00131,-10.741167 -2.31496,-2.526052 -3.48934,-3.172805 -4.81887,-2.653843 -1.6183,0.631677 -1.56673,0.7874 0.64907,1.96024 3.1975,1.692458 5.44176,5.2686 5.44176,8.671234 0,3.105863 0.0531,3.082974 -15.221,6.559716 -8.78902,2.000584 -17.5761,6.231552 -24.26808,11.685054 -6.32894,5.157658 -7.99443,10.097762 -5.66099,16.79147 1.27416,3.655064 -0.64674,7.060169 -5.01544,8.890648 -5.28335,2.21372 -9.42634,8.249932 -12.67781,18.471222 -4.16574,13.095348 -10.82791,23.80994 -16.68932,26.84099 -5.12041,2.64787 -6.84023,10.75565 -4.29784,20.26136 0.98248,3.6734 0.91013,4.58301 -0.58546,7.36016 -0.93857,1.74282 -3.78232,4.91912 -6.31945,7.05845 -3.03481,2.559 -5.3558,5.56941 -6.78432,8.79956 -1.45765,3.29599 -4.45341,7.14064 -9.11407,11.69666 -5.36762,5.2471 -6.9427,7.37252 -6.9427,9.36852 0,2.83511 3.01628,8.33089 5.26206,9.58771 1.10811,0.62012 0.22581,1.48353 -3.96805,3.88301 -8.0984,4.63343 -33.48761,23.94755 -38.27448,29.11621 -7.59341,8.19903 -14.69341,19.81331 -21.11814,34.54532 l -3.82559,8.77217 -12.2062,-0.24242 c -26.894671,-0.53412 -35.691302,-3.37503 -51.06727,-16.4924 -5.771863,-4.92403 -26.216124,-27.31458 -27.997289,-30.66263 -2.608493,-4.90317 -7.423126,-22.34275 -6.895962,-24.97858 0.412869,-2.06434 0.02103,-3.00084 -1.88183,-4.49763 -5.547293,-4.3635 -6.381599,-10.12402 -3.184211,-21.98558 3.074989,-11.40751 3.293879,-13.43684 2.035638,-18.87248 -1.983638,-8.56937 -1.644465,-11.5337 1.674577,-14.63561 2.694569,-2.5183 2.928399,-3.2188 3.079776,-9.22619 0.15259,-6.05547 0.41925,-6.83692 3.891229,-11.40324 2.050077,-2.69624 4.935134,-5.59854 6.411236,-6.44956 l 2.683824,-1.5473 -0.338259,6.16423 c -0.318102,5.79691 -0.08539,6.6679 3.905401,14.61633 6.947028,13.83638 11.220084,16.25072 21.707131,12.26484 2.756816,-1.0478 5.899158,-1.68253 6.982983,-1.4105 2.358893,0.59204 12.293694,9.08696 14.500312,12.39873 0.860347,1.29123 1.828731,4.03509 2.151965,6.09746 1.469542,9.37627 1.980691,10.25945 8.333058,14.39818 7.431851,4.84204 9.006151,6.79782 11.497051,14.28299 1.08025,3.24616 2.84329,7.01982 3.91786,8.38591 2.15413,2.73854 9.60193,7.77335 11.49879,7.77335 2.34496,0 1.15704,-1.83335 -2.34582,-3.62038 -5.14017,-2.62231 -8.89222,-7.37849 -11.13321,-14.11265 -2.60926,-7.84084 -3.57122,-9.0529 -11.144997,-14.04253 -4.06761,-2.67975 -6.616835,-5.02157 -6.883798,-6.32374 -2.770306,-13.51273 -3.726983,-15.26506 -12.313025,-22.55355 -6.632368,-5.63006 -9.158627,-6.08918 -16.841712,-3.06079 -2.576914,1.01572 -5.448042,1.84677 -6.380284,1.84677 -4.183388,0 -14.425185,-15.78045 -15.514952,-23.90527 -0.577027,-4.30207 1.891536,-11.183397 4.011854,-11.183397 1.115974,0 1.477441,-0.943558 2.688018,-7.016685 0.638417,-3.202764 13.714708,-19.890344 19.495642,-24.87977 8.004233,-6.908316 10.732885,-8.614653 17.13506,-10.715244 3.192501,-1.047479 6.929132,-2.485523 8.303622,-3.195652 1.37449,-0.71013 6.039479,-2.572213 10.366642,-4.137965 4.32717,-1.56575 11.3053,-4.939129 15.50695,-7.496396 9.6437,-5.869463 18.41293,-9.369082 28.41557,-11.340062 13.0768,-2.57673 25.42513,-5.882042 34.8832,-9.337289 12.45982,-4.551852 12.67757,-4.604783 29.78212,-7.239901 24.04072,-3.703701 37.13854,-4.5122496 51.78672,-3.196875 11.92202,1.070571 13.11283,1.019537 23.06294,-0.9883907 16.13498,-3.256031 31.29993,-1.8257739 31.32046,2.9539367 0.0124,2.886945 4.02123,11.251214 7.49401,15.635951 1.57963,1.994461 5.26275,5.249773 8.1847,7.234027 6.05352,4.110872 5.87644,3.763675 12.95714,25.405753 8.20362,25.074283 12.43811,31.187189 26.8498,38.760309 7.89814,4.15036 13.99759,9.91643 15.58828,14.73626 1.11344,3.37379 0.96915,3.81786 -5.52216,16.99496 -3.66601,7.44185 -7.05692,14.36169 -7.53535,15.37741 -0.47844,1.01573 -2.03874,3.26841 -3.46733,5.00597 l -2.59744,3.15919 -5.435,-2.22576 c -4.83523,-1.98016 -6.86157,-2.22915 -18.3624,-2.25633 -7.11007,-0.0168 -14.12427,-0.39161 -15.58711,-0.8329 -2.10031,-0.63359 -2.56972,-0.53217 -2.23192,0.48221 0.63095,1.89466 12.17803,3.83318 18.28072,3.06897 7.75389,-0.97099 11.60729,-0.62135 16.54037,1.50081 l 4.51102,1.94058 -6.62718,6.62096 c -3.64495,3.64153 -7.32614,8.07529 -8.18042,9.8528 -0.85428,1.77752 -3.20392,6.76381 -5.22141,11.08064 -6.53692,13.98703 -8.33638,15.13311 -22.436,14.28962 -17.09371,-1.02262 -26.07419,1.90097 -42.14364,13.71983 -16.04528,11.80111 -26.78193,15.83953 -41.70874,15.68808 -5.57853,-0.0566 -10.94768,-0.71788 -14.74776,-1.81638 -5.7952,-1.67525 -6.05511,-1.88288 -8.60953,-6.87764 -3.08408,-6.03044 -3.57581,-14.41753 -1.22665,-20.92188 1.21128,-3.35378 1.22568,-3.92439 0.0991,-3.92439 -0.80844,0 -1.90785,2.02789 -2.84254,5.24309 -1.97784,6.80355 -1.30437,14.70719 1.7558,20.60554 l 2.28664,4.4074 -4.28591,0.42153 c -5.655,0.55617 -12.60106,4.00609 -22.75364,11.30111 -11.30564,8.12355 -14.34899,11.15778 -24.30911,24.23618 -8.93963,11.73842 -15.19308,17.78137 -20.84413,20.14253 -3.31954,1.387 -4.58796,4.13445 -1.90875,4.13445 2.91376,0 10.34295,-4.60382 14.73458,-9.13092 2.49944,-2.57653 8.0947,-9.35486 12.43391,-15.06294 4.33921,-5.70807 10.38262,-12.39502 13.4298,-14.85989 9.86039,-7.97608 21.63163,-15.35468 26.9727,-16.90737 4.99067,-1.45083 5.55762,-1.42826 14.38271,0.57268 20.47288,4.64186 38.06787,0.98811 55.64598,-11.55536 l 5.75008,-4.10318 0.63263,5.06342 c 0.86479,6.92164 6.23187,17.25442 12.11995,23.33353 l 4.85462,5.01211 -2.20983,2.04799 c -1.21541,1.12641 -4.9229,3.20108 -8.23887,4.61039 -5.71207,2.42765 -7.67883,4.20135 -4.65868,4.20135 2.0523,0 12.54106,-5.27536 14.90581,-7.49693 l 2.06633,-1.94122 5.83377,4.47149 c 3.20858,2.4593 7.60824,6.09798 9.77704,8.08593 2.16881,1.98795 4.18991,3.36782 4.49136,3.06638 1.03231,-1.03231 -3.34787,-5.49895 -12.82889,-13.08211 -15.83027,-12.66143 -21.74353,-20.73994 -23.97869,-32.75888 -1.05558,-5.67614 -1.02511,-5.87544 1.17005,-7.65298 3.62205,-2.93296 10.26396,-5.99376 16.64989,-7.67281 4.58995,-1.20683 8.23945,-1.44634 16.09333,-1.05616 12.50926,0.62144 14.21738,0.29799 18.70313,-3.54166 l 3.57144,-3.057 4.56028,2.78549 c 5.39844,3.29746 6.86874,4.97901 6.86874,7.85564 0,1.17258 0.41552,2.13197 0.92338,2.13197 0.87555,0 1.31148,-1.89587 1.00042,-4.3508 -0.078,-0.61542 1.54956,-1.98181 3.61675,-3.0364 4.84631,-2.47241 3.92973,-4.11027 -1.10386,-1.97251 l -3.82451,1.62428 -5.28003,-3.52587 -5.28003,-3.52587 4.2814,-9.9199 c 4.08901,-9.47416 4.76141,-10.41781 14.96384,-21.00053 10.58458,-10.97913 10.75092,-11.22022 18.15684,-26.31651 8.17963,-16.67341 11.53233,-26.23243 13.7203,-39.118609 1.47546,-8.689822 4.10891,-15.532669 7.90176,-20.532222 1.19441,-1.574427 4.1454,-5.463733 6.55774,-8.642902 2.41235,-3.179168 4.38609,-6.35788 4.38609,-7.063804 0,-2.628246 -3.31624,-1.096077 -5.77915,2.670079 -1.40102,2.142362 -4.81687,6.936375 -7.5908,10.653363 -5.34295,7.15941 -6.69437,10.720838 -9.34871,24.636965 -0.87182,4.57076 -2.05721,9.69954 -2.63419,11.39729 l -1.04907,3.08681 -2.71606,-4.29693 c -2.69283,-4.26017 -7.45241,-7.93306 -16.72525,-12.906584 -11.67495,-6.261921 -15.07991,-11.816326 -24.33903,-39.703542 -6.04514,-18.207136 -6.50583,-19.008153 -13.6738,-23.774956 -5.1956,-3.455156 -10.95242,-11.057953 -12.61678,-16.662497 -0.76989,-2.5925 -1.22233,-4.891116 -1.00541,-5.108034 0.9072,-0.907199 23.12615,3.751851 31.56,6.617754 11.80685,4.012086 23.30245,8.607158 26.17262,10.461836 l 2.26845,1.465845 -4.89584,4.316453 c -3.32435,2.930943 -4.94166,5.080772 -5.0386,6.697626 -0.11843,1.975303 -0.70148,2.470575 -3.42068,2.905683 -3.84416,0.615114 -14.72811,5.860144 -14.72811,7.097551 0,1.427123 1.64915,0.97892 7.64427,-2.07755 9.85579,-5.024745 19.61436,-3.874567 37.13995,4.377438 3.55504,1.673905 8.20056,4.533347 10.32337,6.354314 2.68646,2.304465 4.06703,2.975327 4.54186,2.207033 2.17622,-3.521202 -22.16654,-15.955521 -35.00546,-17.880834 -5.78172,-0.867024 -5.65284,-2.638387 0.58373,-8.022646 l 4.91322,-4.241768 7.32164,2.523127 c 4.67334,1.610493 9.49928,4.166559 13.34207,7.06666 3.31125,2.498943 8.80612,6.5737 12.21084,9.055016 6.60644,4.814691 8.14692,6.633663 11.77878,13.908187 1.88892,3.783473 4.21926,6.063941 12.82241,12.54803 9.83237,7.410524 17.27553,14.739907 14.96873,14.739907 -1.6428,0 -1.18518,3.683298 1.76137,14.176891 2.3606,8.40684 2.68606,10.83001 2.18241,16.24908 l -0.59192,6.36883 -3.40637,-2.25423 c -1.87349,-1.23983 -6.49141,-2.88513 -10.26203,-3.65624 -3.77061,-0.7711 -7.89447,-2.15135 -9.16413,-3.0672 -2.17745,-1.57069 -11.95597,-12.97268 -11.97775,-13.96634 -0.006,-0.25393 2.49449,-2.07542 5.55566,-4.04776 6.10677,-3.934626 7.01708,-5.175639 8.85283,-12.068902 1.45107,-5.448765 1.58691,-7.891375 0.43889,-7.891375 -0.45316,0 -1.514,2.815903 -2.35742,6.257562 -0.84342,3.441658 -1.82311,6.691816 -2.17708,7.222573 -0.35397,0.530756 -6.25316,4.749764 -13.1093,9.375572 -15.84816,10.69268 -26.00556,19.62005 -22.32334,19.62005 0.41873,0 3.34533,-2.23776 6.50358,-4.9728 3.15825,-2.73505 8.15171,-6.66294 11.09657,-8.72864 l 5.35431,-3.75584 4.39035,5.97936 c 5.75054,7.83185 9.19056,10.34319 15.85015,11.57118 10.73056,1.97866 14.94698,4.82382 18.33556,12.37245 1.13989,2.53931 4.85243,8.67502 8.25009,13.63489 6.95157,10.14786 9.79903,16.08097 9.77906,20.37611 -0.0188,4.05977 -3.12754,13.63183 -4.69458,14.45537 -1.89734,0.99712 -15.38381,4.53609 -28.072,7.36634 -8.78352,1.95927 -11.14722,2.81761 -11.40199,4.14047 -0.28792,1.49505 0.14377,1.59907 4.14566,0.99895 2.45686,-0.36843 12.17874,-2.61761 21.60416,-4.99819 13.66899,-3.45237 17.85245,-4.17969 20.67173,-3.59393 7.28346,1.51328 17.32446,12.84486 27.81598,31.39121 3.53161,6.24298 3.10661,8.381 -3.71847,18.70585 -5.70378,8.62858 -7.37274,10.30035 -14.64723,14.67191 -8.2005,4.92804 -12.23617,5.09405 -28.31961,1.16497 -7.35906,-1.79777 -19.19743,-3.94253 -26.3075,-4.76612 -7.11007,-0.82361 -17.38337,-2.0855 -22.82956,-2.80421 l -9.90216,-1.30675 -12.2591,5.95427 c -6.74251,3.27484 -15.5833,7.01465 -19.6462,8.31067 l -7.38709,2.35638 -3.69354,-4.17075 c -2.03145,-2.29391 -4.00519,-4.16737 -4.38609,-4.16324 -1.45578,0.0158 -0.58527,2.19435 2.09795,5.25037 1.53476,1.748 2.57837,3.52139 2.31912,3.94087 -0.25925,0.41946 -3.17509,1.49454 -6.47964,2.38904 -4.50652,1.21986 -7.73249,1.48062 -12.90637,1.04327 l -6.89808,-0.5831 -0.93142,3.44824 c -0.51229,1.89654 -1.77736,3.9738 -2.81125,4.61617 -2.13162,1.32435 -19.3282,4.36922 -35.02926,6.20236 l -10.54526,1.23118 -6.07569,-3.75298 c -3.34162,-2.06415 -8.33662,-5.14216 -11.09999,-6.84005 -2.81845,-1.73172 -6.26371,-3.08706 -7.84733,-3.08706 -1.55267,0 -6.14787,1.67998 -10.21157,3.73329 -6.45178,3.25997 -8.99656,3.95851 -20.07164,5.50965 -6.9757,0.97699 -13.90903,2.4103 -15.40738,3.18513 -1.49836,0.77483 -4.60714,3.85569 -6.90841,6.84636 -4.46882,5.80758 -14.20194,15.12981 -20.63511,19.76402 -3.89124,2.80311 -4.91184,4.36069 -2.85732,4.36069 2.75378,0 17.64257,-13.04535 24.31711,-21.3063 2.83715,-3.51149 6.35937,-7.00554 7.82715,-7.76456 1.46779,-0.75901 8.39616,-2.18424 15.39642,-3.16718 11.33874,-1.59212 13.55941,-2.21473 20.34882,-5.70527 l 7.6211,-3.91811 3.6365,1.63983 c 2.00006,0.9019 6.61102,3.61793 10.24656,6.03562 6.77284,4.50405 6.98259,5.55572 1.10981,5.56482 -2.63794,0.004 -38.5123,18.04769 -45.98799,23.13041 -2.47053,1.67972 -6.46802,4.81063 -8.88331,6.95758 -7.30762,6.4957 -14.55815,8.07154 -24.69522,5.36727 l 0,0 z m 45.24591,-53.75578 c 0,-0.41379 -1.43604,-1.43715 -3.19119,-2.27413 -5.05412,-2.41014 -10.41752,-7.8202 -12.08729,-12.19245 -1.28165,-3.35594 -1.35171,-4.57812 -0.42362,-7.39025 1.16006,-3.51504 0.67608,-5.20989 -1.0071,-3.52671 -1.60419,1.60418 -2.05674,8.12192 -0.82342,11.85892 0.63216,1.91547 2.86187,5.18943 4.95492,7.27547 4.96277,4.94616 12.5777,8.7296 12.5777,6.24915 l 0,0 z m 235.15363,-12.05677 c 7.32699,-5.30764 13.4879,-15.38299 14.89559,-24.35978 1.29764,-8.27491 -1.43116,-23.77456 -4.18564,-23.77456 -0.92324,0 -1.16041,0.52207 -0.73411,1.61593 6.49966,16.67789 3.11544,31.25059 -10.04718,43.26386 -6.59771,6.0216 -6.55318,8.05334 0.0714,3.25455 l -4e-5,0 z M 81.783376,241.86465 c 1.892879,-0.30276 4.224311,-0.71096 5.180959,-0.9071 3.00949,-0.61705 11.83841,1.44896 17.860235,4.1794 4.58162,2.0774 5.79352,2.33842 5.79352,1.24781 0,-2.68744 -15.087517,-7.73895 -23.114161,-7.73895 -5.504831,0 -11.785533,2.16872 -15.668397,5.41028 -4.774343,3.98579 -2.652751,5.35025 2.364376,1.52059 2.278027,-1.73885 5.690587,-3.40927 7.583468,-3.71203 l 0,0 z m 288.306184,-8.8042 c 6.97992,-1.13964 19.46227,-4.53334 20.71462,-5.63189 2.12833,-1.86694 -0.89514,-1.70611 -8.41367,0.44757 -11.04344,3.16339 -11.65065,3.25567 -28.16433,4.2803 -10.2715,0.63731 -15.32195,0.60424 -17.38182,-0.11383 -1.89164,-0.65944 -5.32837,-3.94904 -9.86151,-9.43935 -6.99863,-8.47637 -8.60291,-9.95991 -8.60291,-7.9554 0,1.7341 12.02817,16.43472 15.15995,18.52823 2.65649,1.77578 3.76875,1.86794 16.69687,1.38343 7.61794,-0.2855 16.5517,-0.96007 19.8528,-1.49906 z m 64.88368,-1.69411 c 6.82795,-5.18778 14.36564,-8.29893 21.29802,-8.79065 10.37725,-0.73609 15.06275,-5.97417 12.87973,-14.39872 -1.11561,-4.30528 -3.49867,-5.07608 -2.48833,-0.80485 1.16993,4.9459 0.73184,7.33596 -1.81067,9.87849 -1.94815,1.94815 -3.60306,2.49101 -9.23319,3.0288 -7.8988,0.75448 -13.76686,3.09134 -20.38309,8.11721 -6.02192,4.57441 -8.67608,5.14874 -15.14094,3.27632 -5.93183,-1.71805 -7.38661,-2.68846 -8.52703,-5.68798 -1.36583,-3.59239 0.73686,-19.8965 3.93793,-30.53458 2.53496,-8.42435 2.98494,-11.37821 3.02022,-19.82566 0.0354,-8.50528 0.25495,-9.9264 1.53283,-9.9264 2.52785,0 6.22831,-3.58567 11.00338,-10.662 8.92634,-13.22827 15.97478,-15.18766 20.8337,-5.79153 1.19983,2.32022 3.071,14.53945 3.12887,20.43242 0.01,1.01253 0.43078,1.41431 1.06855,1.02015 0.73087,-0.4517 0.87444,-3.07642 0.4702,-8.59581 -0.72267,-9.86725 -1.86874,-14.04355 -4.81464,-17.54455 -3.1301,-3.71991 -6.70167,-4.35721 -11.79424,-2.10452 -3.95209,1.74819 -7.17344,5.33208 -13.55325,15.07855 -2.72236,4.15894 -7.24263,7.10097 -8.29473,5.39863 -0.39124,-0.63305 -0.98885,-3.69714 -1.32801,-6.8091 -0.52026,-4.77367 -1.40388,-6.84891 -5.65282,-13.27605 -4.53401,-6.85833 -6.87089,-9.16027 -6.87089,-6.76817 0,0.46737 2.23618,4.10321 4.96927,8.07963 4.48893,6.53101 5.03185,7.86029 5.6167,13.75178 l 0.64742,6.52191 -9.9717,4.23464 c -5.48443,2.32905 -10.12419,4.69212 -10.31057,5.25126 -0.55255,1.65765 0.99927,1.22601 11.0399,-3.07075 l 9.55131,-4.08737 0.26403,8.68343 c 0.22804,7.49979 -0.1325,10.03936 -2.64507,18.6307 -1.91461,6.54671 -3.21562,13.61982 -3.80571,20.69019 -1.12053,13.42607 -0.37131,15.42008 6.86732,18.27698 7.03413,2.77619 13.39777,2.20077 18.4955,-1.6724 l 0,0 z M 84.763282,221.14942 c 0,-0.4815 -2.069628,-3.36236 -4.599172,-6.40192 -4.859783,-5.83962 -7.001349,-11.80204 -5.93671,-16.52863 0.311014,-1.38077 2.035898,-5.71505 3.833074,-9.6317 3.151613,-6.86843 3.212789,-7.20483 1.723559,-9.47769 -1.365412,-2.08388 -2.102612,-2.33312 -6.372458,-2.15444 -5.725542,0.23959 -12.310573,-2.55644 -15.807017,-6.71173 -2.210614,-2.62717 -4.236401,-3.52782 -4.236401,-1.88347 0,0.44812 1.685291,2.50005 3.745089,4.55984 4.342459,4.34246 10.967842,6.90007 16.744432,6.46389 4.853015,-0.36644 5.591714,1.49494 2.661978,6.70771 -1.08216,1.92544 -2.574215,5.50026 -3.315677,7.94403 -2.684997,8.84942 -1.452507,14.12753 5.188222,22.21839 4.465667,5.44084 6.371081,6.90501 6.371081,4.89572 z M 384.13077,210.25169 c 0.77002,-0.88876 2.55131,-3.61577 3.95841,-6.06003 2.15918,-3.75069 2.47598,-5.13976 2.03034,-8.90249 l -0.52803,-4.45838 6.86998,-2.99536 c 3.77849,-1.64746 6.86999,-3.3548 6.86999,-3.79408 0,-1.40765 -2.36517,-0.8665 -8.63188,1.97495 l -6.11716,2.77366 -3.98853,-3.04452 c -5.36915,-4.09836 -13.50018,-7.56983 -14.76587,-6.30415 -0.66784,0.66784 -0.28038,1.22221 1.26541,1.81053 9.81441,3.73529 14.88485,7.59321 16.52956,12.57674 1.1513,3.48844 0.24388,6.47075 -4.02765,13.2373 -1.33383,2.11292 -2.42515,4.05769 -2.42515,4.32172 0,1.02717 1.62751,0.40275 2.96058,-1.13589 l 0,0 z M 97.038458,208.63956 c 1.926655,-0.31036 10.860422,-1.32467 19.852802,-2.25401 11.68919,-1.20805 17.61691,-2.24471 20.79499,-3.63667 6.47439,-2.83571 4.50267,-4.13376 -2.39105,-1.5741 -3.6508,1.35555 -8.948,2.35628 -14.51986,2.74303 -16.31554,1.13249 -31.395128,3.46755 -31.395128,4.86152 0,0.83464 0.719381,1.12917 2.077619,0.85062 1.14269,-0.23435 3.653972,-0.68002 5.580627,-0.99039 l 0,0 z m -39.597574,-2.77395 c 1.105859,-4.4061 -1.521736,-10.83033 -8.357849,-20.43421 -4.511443,-6.33801 -6.231699,-10.5725 -7.142552,-17.58173 -0.937264,-7.21247 1.046506,-11.36539 6.50291,-13.61352 3.681145,-1.51669 5.181879,-1.64302 10.608253,-0.89301 8.649981,1.19557 8.614099,-0.8462 -0.03999,-2.27539 -5.801551,-0.9581 -6.780236,-0.87598 -11.136521,0.93441 -3.683661,1.53086 -5.185603,2.7877 -6.566885,5.49523 -3.483221,6.82768 -1.424776,18.90617 4.691245,27.52714 5.906475,8.32561 9.215434,15.30217 9.215434,19.42966 0,4.13921 1.329711,4.98234 2.225955,1.41142 l 2e-6,0 z m 99.849916,-17.31349 -0.0417,-18.69857 3.53973,-9.69555 c 10.25425,-28.08713 9.25747,-23.57609 9.07957,-41.09068 -0.14346,-14.12403 0.0215,-15.99336 1.64617,-18.6484 3.03391,-4.958155 5.30011,-5.863524 14.78933,-5.908492 15.12722,-0.07168 24.81232,-2.347348 29.36464,-6.899676 2.66317,-2.663163 3.10456,-3.713996 2.97115,-7.073508 -0.0862,-2.170123 -0.11814,-4.770337 -0.071,-5.778254 0.0472,-1.009585 3.00857,-4.559577 6.59422,-7.904858 6.43117,-6.000046 6.51906,-6.146144 7.38791,-12.281377 0.87641,-6.188569 4.12728,-14.017421 6.71106,-16.161763 0.74829,-0.621021 1.64059,-2.622022 1.98289,-4.446668 1.55843,-8.307134 7.22734,-16.752112 12.26737,-18.274723 1.25282,-0.378477 2.07762,-1.360818 2.07762,-2.474427 0,-2.007109 -1.65613,-1.835643 -6.61301,0.684673 -4.21793,2.144589 -8.84459,9.585344 -10.41988,16.757594 -0.33053,1.504925 -2.04426,4.976327 -3.80828,7.714228 -3.48518,5.409283 -4.76828,9.023124 -5.64301,15.893399 -0.50972,4.003364 -1.11826,4.93331 -6.0426,9.23386 -6.73943,5.885688 -8.10225,8.373621 -8.10225,14.791258 0,3.441623 -0.51787,5.661725 -1.64552,7.054309 -2.21205,2.73178 -9.84903,4.693877 -20.61721,5.296996 l -8.87362,0.497005 -3.98543,-7.219827 c -4.39351,-7.95907 -9.57514,-14.252498 -11.73468,-14.252498 -1.12431,0 -1.27422,-0.76295 -0.7711,-3.924391 0.34351,-2.158414 1.23255,-4.755438 1.97565,-5.771162 3.98576,-5.44803 5.80043,-8.577088 6.34463,-10.94016 0.78735,-3.418796 -1.40281,-2.913493 -2.32549,0.536526 -0.35353,1.321889 -2.10822,4.322668 -3.89931,6.668395 -1.79327,2.348567 -3.53435,5.909313 -3.87482,7.924491 -0.34005,2.012741 -0.7803,3.659529 -0.97834,3.659529 -0.19805,0 -2.61956,-1.108155 -5.38115,-2.462566 -8.42323,-4.131138 -8.9999,-8.137946 -2.63778,-18.327596 4.21614,-6.752603 4.68274,-7.167438 12.04225,-10.706159 9.76673,-4.6962 26.98876,-10.460384 38.0028,-12.719466 9.28127,-1.903677 12.8668,-4.120747 11.62161,-7.186087 -0.63981,-1.575041 -0.75287,-1.552841 -1.62516,0.319072 -1.12589,2.416185 -3.87765,3.585914 -11.5736,4.919768 -8.07669,1.399845 -28.96225,8.336718 -36.69472,12.187689 -5.89652,2.936615 -7.00362,3.182067 -12.61655,2.797179 -4.95026,-0.339447 -7.56719,0.04992 -13.3891,1.992115 -13.25824,4.422971 -15.36619,6.701268 -14.44634,15.613758 l 0.52398,5.076899 -4.04403,2.939659 c -2.22422,1.616812 -9.85143,5.890157 -16.94936,9.49632 -21.298633,10.820953 -27.531587,18.745356 -22.659825,28.809076 1.36402,2.81768 3.191345,4.7883 5.777935,6.23101 2.982041,1.66326 4.068667,2.98978 5.132237,6.26524 4.774703,14.70459 6.000623,16.33816 12.961753,17.27186 4.95507,0.6646 5.18561,-1.18538 0.25159,-2.01898 -4.95001,-0.83629 -6.96676,-3.3659 -9.876967,-12.38861 -2.610274,-8.09281 -3.713205,-9.67733 -8.555178,-12.29082 -5.150519,-2.78002 -6.30645,-10.020195 -2.495234,-15.628904 2.746472,-4.041795 8.628986,-7.996709 22.901589,-15.397125 5.96589,-3.093342 12.70082,-6.89967 14.9665,-8.458504 l 4.11944,-2.834245 0.26936,-7.105305 c 0.26296,-6.936204 0.34424,-7.15567 3.41521,-9.221582 6.1745,-4.153734 23.02008,-8.283415 24.43704,-5.990722 0.24859,0.402228 -1.63123,3.996854 -4.17738,7.988056 -4.06938,6.378938 -4.55598,7.658741 -4.02272,10.580153 1.01461,5.55849 2.96578,7.458409 11.93458,11.621113 7.66365,3.556943 8.86524,4.464305 11.80171,8.911859 1.79814,2.723443 4.14115,6.67404 5.20669,8.779103 l 1.93734,3.82739 -3.10746,0.582962 c -3.77986,0.709105 -7.4867,3.497753 -9.2933,6.99132 l -1.34466,2.600281 -3.44906,-1.758426 c -4.80898,-2.451759 -11.5831,-2.236242 -20.14991,0.64106 -24.71834,8.302056 -35.40924,25.368166 -27.52569,43.939796 2.96998,6.99649 2.71846,6.61666 3.89854,5.88734 0.61126,-0.37778 0.1071,-2.49514 -1.39621,-5.86363 -5.17328,-11.59193 -3.7392,-19.85643 5.04557,-29.07736 5.89778,-6.1906 11.62046,-9.65385 21.52666,-13.02753 8.34981,-2.843614 11.89342,-2.979602 17.01638,-0.65301 l 3.7824,1.71777 0.6075,13.72867 c 0.70744,15.98723 0.34597,17.98441 -6.57932,36.35162 -5.78361,15.33924 -7.17594,24.30315 -6.28233,40.44598 0.67362,12.1689 1.03936,14.0338 2.75226,14.0338 0.81255,0 1.08634,-4.85064 1.05544,-18.69857 l 0,0 z m -7.48743,-8.31047 c -0.41599,-2.15842 -0.78074,-13.72501 -0.81056,-25.70353 l -0.0542,-21.77915 -3.36999,-5.42984 c -3.15787,-5.08806 -5.40218,-7.25618 -5.40218,-5.21878 0,0.48866 1.41188,3.23312 3.1375,6.0988 2.56606,4.26135 3.24837,6.51012 3.74623,12.34674 0.3348,3.92502 0.16255,10.20845 -0.38277,13.96319 -0.70941,4.88458 -0.70533,9.74454 0.0143,17.08264 1.1485,11.71085 1.33922,12.56432 2.80761,12.56432 0.76233,0 0.85271,-1.12944 0.31403,-3.92439 l 1e-5,0 z m 168.34192,-4.00793 c 2.24422,-1.44917 7.90182,-11.7943 6.96336,-12.73277 -1.18909,-1.18909 -1.9062,-0.45411 -3.41717,3.50229 -0.85595,2.24129 -2.63116,5.14996 -3.9449,6.4637 -2.15431,2.15431 -3.07827,2.38721 -9.41895,2.3742 -3.86668,-0.008 -9.52347,-0.60414 -12.57064,-1.3249 -3.3688,-0.79684 -5.87811,-0.97817 -6.40214,-0.46266 -1.23736,1.21724 -0.81669,1.40326 6.86383,3.03514 7.91215,1.6811 18.64738,1.26249 21.92661,-0.855 z m -77.63462,-16.76826 c -0.28606,-1.39662 -1.04027,-7.62948 -1.676,-13.85079 -0.81596,-7.98503 -1.5041,-11.31148 -2.34001,-11.31148 -1.24916,0 -1.25402,-0.1199 0.65462,16.15926 1.13953,9.71931 1.59957,11.54232 2.91272,11.54232 0.56738,0 0.7533,-1.05216 0.44867,-2.53931 l 0,0 z m -49.12951,-27.73588 c 0.32495,-1.92335 0.13748,-5.51989 -0.4166,-7.99232 -1.24192,-5.54165 -4.57199,-13.4421 -5.66591,-13.4421 -1.16491,0 -1.06848,0.49641 1.59605,8.21624 1.7974,5.20755 2.30354,8.20209 2.00164,11.84259 -0.48274,5.82124 1.54416,6.94332 2.48482,1.37559 l 0,0 z m -81.3704,-29.05236 c 1.01166,-7.001169 2.57572,-11.113461 5.24028,-13.778024 2.18727,-2.187266 3.38132,-2.612077 7.34201,-2.612077 3.84233,0 5.17306,-0.443124 7.09128,-2.361343 1.91167,-1.911675 2.28022,-3.010675 1.93535,-5.771163 -0.46134,-3.692867 0.68122,-6.569254 4.95054,-12.462874 2.69383,-3.71873 3.41114,-6.182814 1.79984,-6.182814 -0.48015,0 -1.41508,0.967236 -2.07762,2.149414 -0.66255,1.182178 -2.55507,4.172195 -4.20562,6.644483 -2.44797,3.666708 -3.00101,5.401867 -3.00101,9.415766 0,4.432407 -0.23504,5.010057 -2.36858,5.821228 -1.30271,0.495292 -4.25243,0.900531 -6.55492,0.900531 -5.43523,0 -8.70061,3.29567 -10.70393,10.803182 -2.36596,8.866571 -2.64042,11.358081 -1.25118,11.358081 0.75014,0 1.45953,-1.54356 1.80356,-3.92439 z m -39.381736,-2.5067 c -1.804187,-1.58409 -3.546023,-4.089814 -3.870745,-5.568265 -0.324723,-1.478452 -1.330771,-3.642537 -2.235663,-4.809076 -3.773576,-4.864699 -4.01499,-6.105018 -1.998893,-10.26972 2.375901,-4.907958 5.475668,-6.737518 14.264074,-8.419017 7.861606,-1.504174 9.633409,-2.289249 14.953936,-6.625996 4.220603,-3.440202 10.996407,-6.765529 13.847797,-6.796014 2.0106,-0.0215 9.89147,-4.640878 11.01274,-6.455133 1.37686,-2.227803 -0.53792,-2.061604 -4.01579,0.348563 -1.98296,1.374191 -6.06482,3.243188 -9.07081,4.153327 -5.827116,1.76431 -8.706956,3.349988 -14.597151,8.037391 -3.782461,3.010073 -6.921941,4.142337 -16.609813,5.99039 -10.270658,1.959224 -16.066347,11.007737 -11.742663,18.333218 1.063323,1.801555 2.938877,5.381352 4.167899,7.955105 2.317926,4.854077 6.959822,9.177627 8.369527,7.795537 0.454046,-0.44516 -0.626284,-2.04759 -2.474445,-3.67031 l 0,0 z M 313.55898,86.431061 c -0.572,-7.994519 -3.78864,-15.189459 -9.5393,-21.337379 -5.65554,-6.046222 -7.23609,-5.039635 -1.8159,1.156462 6.42639,7.346323 10.74324,18.574499 9.32056,24.242889 -0.42992,1.712926 -0.19822,2.257788 0.96008,2.257788 1.31539,0 1.46415,-0.874841 1.07456,-6.31976 z M 196.60944,67.126859 c 2.31124,-2.412346 6.56501,-8.621853 9.45283,-13.798906 4.71932,-8.460433 9.4175,-13.819367 16.22397,-18.505731 0.22008,-0.151525 0.006,-0.670379 -0.47738,-1.15301 -0.55442,-0.554423 -2.81139,0.656639 -6.12997,3.289266 -5.21487,4.136957 -8.83908,9.236735 -14.38522,20.241982 -1.53563,3.047174 -4.49057,7.182859 -6.56653,9.190413 -3.63106,3.511422 -4.58927,5.12207 -3.04722,5.12207 0.4,0 2.61827,-1.973738 4.92952,-4.386084 l 0,0 z m 184.7916,-3.560924 c 8.02318,-5.270353 10.64542,-7.750554 8.19441,-7.750554 -0.44473,0 -4.57171,2.551422 -9.17107,5.669829 -7.08249,4.801994 -9.11408,5.731314 -13.27303,6.071533 -6.02495,0.492864 -7.48889,0.925747 -6.81551,2.015311 0.28632,0.463272 3.11744,0.632064 6.29138,0.375094 5.18281,-0.419613 6.68813,-1.069803 14.77382,-6.381213 l 0,0 z"
       id="path3089"
       inkscape:connector-curvature="0"
       transform="translate(106.83931,293.64792)" />
    <path
       style="opacity:0.95999995;fill:#cccccc;stroke-width:16.5;stroke-linecap:round;stroke-linejoin:round;stroke-miterlimit:4;stroke-dasharray:none"
       d="m 508.24455,214.01422 c -6.82414,-14.31036 -22.41427,-29.84818 -29.94867,-29.84818 -2.3924,0 -2.43984,-0.41593 -0.63185,-5.54032 0.7618,-2.15915 1.39333,-5.22394 1.4034,-6.81064 0.0157,-2.47703 0.67771,-3.27646 4.68205,-5.65431 5.26924,-3.12897 7.81935,-5.57506 6.59866,-6.32948 -0.45391,-0.28054 -3.04951,1.07855 -5.768,3.02019 l -4.94272,3.53026 -2.53523,-5.36075 c -1.39438,-2.94841 -5.01002,-9.0234 -8.03476,-13.49996 -8.76506,-12.97213 -10.26393,-16.49442 -9.35757,-21.99001 1.31567,-7.97744 0.95481,-12.10959 -1.97364,-22.59987 -1.56485,-5.605563 -2.67802,-10.693389 -2.47373,-11.306278 0.2043,-0.612888 3.31757,2.817794 6.91839,7.623738 5.04852,6.73818 7.01145,10.27846 8.57654,15.46841 1.11628,3.70168 1.82607,7.79501 1.57732,9.09629 -0.34835,1.82224 0.42424,3.3567 3.36189,6.67715 12.11191,13.69019 28.59902,47.71393 26.99862,55.7159 -0.36032,1.80163 0.11938,3.24409 1.70591,5.12957 4.13406,4.91305 8.30196,21.07941 6.3389,24.58721 -0.71543,1.27841 -1.12498,0.96512 -2.49551,-1.90892 l 0,0 z"
       id="path3091"
       inkscape:connector-curvature="0"
       transform="translate(106.83931,293.64792)" />
    <path
       style="opacity:0.95999995;fill:#808080;stroke-width:16.5;stroke-linecap:round;stroke-linejoin:round;stroke-miterlimit:4;stroke-dasharray:none"
       d="m 353.93031,363.61058 c -17.82952,-2.18207 -33.13077,-12.54918 -50.66759,-34.32897 -10.2094,-12.67954 -11.37546,-14.78158 -13.037,-23.50163 l -1.25738,-6.599 5.60864,-7.57268 c 5.11056,-6.90018 7.20722,-8.59091 10.69868,-8.62735 0.66451,-0.007 -0.70702,2.47637 -3.04785,5.51845 -6.00312,7.80151 -10.8888,19.13635 -8.36716,19.41192 0.4806,0.0525 1.36727,-1.57571 1.97038,-3.6183 1.39577,-4.72718 4.77879,-10.49907 9.50829,-16.22242 2.04481,-2.47451 3.55693,-4.75947 3.36025,-5.07769 -0.19667,-0.31823 3.99143,-1.26847 9.30688,-2.11166 11.30933,-1.79398 13.99157,-2.89936 16.51681,-6.80677 1.79242,-2.77349 2.15888,-2.90078 9.71149,-3.37334 4.31683,-0.2701 8.88759,-0.8036 10.15725,-1.18556 1.26965,-0.38197 -2.1521,2.30033 -7.6039,5.96065 -13.41373,9.00595 -15.88313,12.45942 -19.71756,27.57519 -2.15849,8.50904 -2.90996,15.07306 -1.57248,13.73559 0.35993,-0.35993 1.56871,-4.7312 2.68619,-9.71394 2.87697,-12.82815 5.25252,-17.79351 11.04615,-23.08856 7.11826,-6.50569 25.77785,-17.95402 33.25043,-20.40034 3.50949,-1.14891 11.57494,-4.67918 17.92322,-7.84505 l 11.54233,-5.75613 7.84878,1.09492 c 8.2244,1.14732 8.20135,1.18203 -2.174,3.2743 -8.46364,1.70676 -16.84406,4.82896 -36.20553,13.48871 -15.5974,6.97621 -20.26744,9.5871 -17.14819,9.5871 0.43936,0 9.06147,-3.69354 19.16026,-8.20788 20.96247,-9.37059 30.04166,-12.4529 42.68521,-14.49129 9.49055,-1.53006 14.05822,-1.62665 19.99875,-0.4229 3.01968,0.61189 3.22041,0.76781 1.10022,0.85462 -1.42633,0.0584 -7.45143,1.31539 -13.38909,2.79331 -5.93768,1.47791 -12.66564,2.9615 -14.95102,3.29685 -15.6171,2.29161 -30.8378,8.84825 -40.62898,17.5018 -1.77752,1.57099 -6.55604,4.58943 -10.61894,6.70764 -4.0629,2.11822 -9.1318,5.64441 -11.26423,7.83598 -3.63022,3.73089 -12.28211,19.01817 -12.28211,21.7016 0,2.82025 1.62425,0.68524 5.33444,-7.01188 5.37762,-11.15636 9.3813,-15.4371 19.42822,-20.77267 4.55055,-2.41664 10.66009,-6.41164 13.57677,-8.87778 8.36784,-7.07528 21.23129,-12.47387 35.32297,-14.82451 3.41577,-0.56978 10.36572,-2.07118 15.44435,-3.33643 17.91151,-4.46234 22.833,-4.89064 31.98818,-2.78379 4.65941,1.07226 8.30456,2.41144 8.59026,3.15594 1.25507,3.27068 -18.28711,9.03671 -43.0758,12.70975 -19.19709,2.84451 -22.51759,3.74923 -35.86776,9.77269 -5.6902,2.56736 -13.44652,5.89965 -17.23626,7.4051 -9.54259,3.79072 -13.5229,5.92215 -17.37463,9.30402 -5.79085,5.08443 -13.17905,17.44866 -10.37197,17.35758 0.64164,-0.0208 2.14433,-2.12143 3.3393,-4.66802 2.40273,-5.12041 9.67308,-12.91575 14.25938,-15.28905 1.62747,-0.84217 8.15309,-3.70715 14.50137,-6.36661 6.34828,-2.65946 15.59224,-6.55454 20.54214,-8.65574 7.72147,-3.27771 11.52506,-4.21077 26.77819,-6.56893 19.9142,-3.07877 33.872,-6.35815 41.09388,-9.65498 4.67433,-2.13385 4.84778,-2.14837 4.84778,-0.4057 0,1.30694 -1.43273,2.44095 -5.17479,4.09586 -13.1588,5.81945 -18.01195,7.01372 -35.91589,8.83823 -18.7194,1.90762 -21.65729,2.54428 -28.16327,6.10324 -2.28538,1.25017 -10.51389,4.98501 -18.28558,8.29966 -7.77168,3.31464 -16.00289,7.07321 -18.29156,8.35237 -5.09332,2.84671 -13.99689,10.90855 -13.07926,11.84276 0.36747,0.37411 2.36488,-0.8527 4.43868,-2.72625 5.49083,-4.96064 12.24853,-9.00513 21.67138,-12.97034 15.97218,-6.72122 20.49403,-8.76048 24.54452,-11.06906 5.16069,-2.94135 13.87551,-4.7873 28.55017,-6.04743 15.63349,-1.34247 19.94013,-2.30608 30.98195,-6.93218 l 9.46538,-3.96565 0.38393,2.61597 c 0.35755,2.43609 -0.0331,2.80554 -5.68033,5.3731 -8.30483,3.77581 -11.22879,4.46305 -28.22553,6.63407 -23.28779,2.97458 -26.04345,3.75037 -43.86084,12.34793 -8.88759,4.2886 -17.82135,8.29101 -19.8528,8.89425 -4.78948,1.42224 -25.39311,11.98251 -25.39311,13.01509 0,1.40161 1.35471,0.88467 11.31962,-4.31936 5.38314,-2.81127 12.67692,-6.09415 16.20842,-7.29529 3.53149,-1.20114 12.22155,-5.10326 19.31124,-8.67138 7.08969,-3.56812 15.1372,-7.12379 17.88335,-7.9015 4.39975,-1.246 15.43332,-3.00368 37.39019,-5.95635 5.43315,-0.73063 10.8583,-2.48109 19.54328,-6.30574 0.75821,-0.3339 1.15424,0.31765 1.15424,1.89896 0,1.54739 -0.50571,2.40725 -1.41578,2.40725 -0.77868,0 -3.47524,1.04362 -5.99237,2.31914 -5.53307,2.80382 -13.53513,4.54079 -27.68052,6.00848 -12.65299,1.31284 -19.60372,3.68024 -44.32253,15.09614 -9.39545,4.3391 -20.51071,8.80173 -24.70058,9.91695 -4.18986,1.11523 -7.61793,2.42651 -7.61793,2.91397 0,2.48847 15.37396,-2.6241 34.16528,-11.36157 24.15259,-11.23032 29.21437,-12.91948 44.32253,-14.7908 17.08031,-2.11559 21.01438,-3.03307 27.89172,-6.50474 4.34708,-2.1944 5.47511,-2.48486 5.01733,-1.29192 -0.3248,0.84642 -0.59054,2.02657 -0.59054,2.62256 0,2.2574 -13.62532,5.87938 -26.35785,7.00663 -5.56374,0.49257 -12.84038,1.53115 -16.1703,2.30794 -8.84261,2.06278 -25.80241,9.27157 -25.80241,10.96737 0,1.13116 1.55156,0.61358 12.00401,-4.00438 9.10122,-4.02098 22.35106,-7.31673 29.54836,-7.34982 5.5256,-0.0254 14.81129,-1.57294 19.99195,-3.33182 2.30516,-0.78262 4.41548,-1.19866 4.68962,-0.92452 0.27413,0.27413 -0.0235,1.75832 -0.66128,3.29819 -1.11245,2.68572 -1.39022,2.79999 -6.81883,2.80521 -11.60335,0.0112 -40.0028,5.56891 -40.9403,8.01198 -0.25673,0.66904 -1.77278,1.2266 -3.369,1.23901 -4.21822,0.0328 -9.41462,1.31419 -25.98686,6.40812 -8.1258,2.49769 -16.33239,4.79229 -18.23687,5.09913 -1.90449,0.30683 -3.4627,0.98003 -3.4627,1.496 0,1.56985 7.89393,-0.041 21.66395,-4.4209 25.0921,-7.98109 32.78698,-8.61559 48.36407,-3.98799 5.12858,1.52358 10.99995,2.77016 13.04749,2.77016 2.04752,0 3.72277,0.24108 3.72277,0.53575 0,0.75151 -11.13877,16.93552 -12.03889,17.49182 -0.40575,0.25077 -3.14433,-0.17089 -6.08574,-0.93703 -7.21803,-1.88006 -17.0439,-1.72407 -30.35313,0.48186 -15.13956,2.5093 -33.7433,3.35395 -40.22078,1.8261 -5.65111,-1.33292 -13.29098,-4.9564 -21.85768,-10.36676 -3.17808,-2.00714 -6.28389,-3.48083 -6.90179,-3.27487 -1.37586,0.45862 7.8583,6.82008 15.47213,10.65883 10.40675,5.24689 14.9937,6.07978 29.96177,5.4404 7.36401,-0.31457 18.37539,-1.40478 24.46973,-2.42271 6.09435,-1.01792 13.65721,-1.85939 16.80635,-1.86992 6.4786,-0.0217 14.74868,1.51568 15.60473,2.90079 0.31397,0.50802 -0.56151,2.10563 -1.94552,3.55023 -2.02657,2.11527 -2.89998,2.46173 -4.48696,1.77981 -5.8378,-2.50847 -30.59754,-2.53165 -38.84915,-0.0364 -6.03228,1.82415 -10.74904,1.8403 -22.72441,0.0778 -14.60181,-2.14905 -21.64694,-5.12177 -31.55675,-13.31549 -5.8242,-4.81563 -8.11273,-6.07057 -8.09798,-4.44062 0.0103,1.13774 9.67042,8.73528 15.89282,12.49948 6.83475,4.13463 11.30684,5.45301 25.79017,7.60301 11.18115,1.65981 10.92575,1.67423 26.64131,-1.50509 5.95336,-1.20439 30.13076,-0.60917 31.51581,0.77589 1.34679,1.34678 -4.58641,5.70933 -14.57058,10.71342 -7.49873,3.75838 -8.79487,4.13459 -11.53623,3.34838 -1.69859,-0.48715 -6.2701,-0.88573 -10.15893,-0.88573 -23.31453,0 -48.55942,-9.17344 -64.50402,-23.43936 -4.31683,-3.86234 -8.19505,-7.02468 -8.61827,-7.02741 -1.84231,-0.0119 0.51089,2.76493 7.82098,9.22889 8.48192,7.50016 19.93398,13.8246 32.40405,17.89524 8.4551,2.76002 23.25917,5.18516 31.75537,5.20202 3.49443,0.007 7.33334,0.2749 8.5309,0.59548 2.096,0.56108 2.06147,0.63306 -0.92338,1.92524 -5.32238,2.30412 -26.45497,0.64922 -39.57453,-3.09911 -12.21039,-3.48856 -28.13881,-13.78297 -39.67405,-25.64102 -5.05777,-5.19931 -6.49525,-6.11162 -6.49525,-4.12229 0,1.26663 13.14318,13.64338 19.67964,18.53204 7.0633,5.28268 19.7099,11.44667 27.88488,13.59114 4.05732,1.06434 12.10864,2.43884 17.89182,3.05447 11.29321,1.20218 11.10258,2.28409 -0.43107,2.44649 -6.91345,0.0973 -24.80845,-4.20352 -34.02232,-8.17687 -7.83768,-3.3799 -16.46428,-9.77324 -26.15893,-19.3869 -8.67022,-8.59779 -11.30772,-10.56793 -11.30772,-8.44658 0,1.22587 17.11461,17.26597 23.54634,22.06801 6.79303,5.0718 13.15672,8.09309 24.00804,11.39833 7.6876,2.34159 7.93285,2.87817 0.92339,2.02032 z m 60.02009,-14.15845 c 0.35809,-0.57941 -1.77139,-0.94142 -5.71667,-0.97179 -3.45804,-0.0266 -13.35125,-0.41581 -21.98491,-0.86486 -24.48372,-1.27346 -39.7721,-6.18529 -54.82595,-17.61442 -4.71508,-3.57977 -9.03716,-6.35391 -9.60461,-6.16476 -1.33368,0.44456 10.392,10.1437 16.51052,13.65702 9.89704,5.68298 26.84451,10.72283 40.07125,11.91642 11.98949,1.08194 34.89101,1.10925 35.55037,0.0424 l 0,1e-5 z m -9.69556,-21.87631 c 7.44276,-1.79479 18.73059,-2.14841 28.85582,-0.90399 7.78758,0.95711 8.63837,-0.75098 0.92338,-1.85383 -9.14939,-1.30789 -23.24079,-0.88242 -31.16428,0.94097 -15.69274,3.6113 -33.68192,2.95363 -48.47658,-1.77227 -7.79499,-2.48997 -8.31166,-2.57625 -8.31166,-1.38804 0,1.13055 10.53906,4.58566 18.77626,6.15558 8.89487,1.69527 30.11198,1.06063 39.39706,-1.17842 z m -9.06204,-5.67808 c 1.36415,-0.53899 6.97372,-1.46685 12.46571,-2.06192 9.21005,-0.99793 17.65293,-0.82472 32.97012,0.6764 4.00717,0.39271 5.37292,0.26484 4.71689,-0.44162 -1.51165,-1.62787 -21.29494,-3.20354 -32.31851,-2.57405 -5.58648,0.31901 -12.65039,1.21507 -15.69756,1.99125 -3.04718,0.77617 -11.24262,1.66054 -18.2121,1.96525 -8.04574,0.35177 -12.46431,0.88972 -12.10347,1.47358 0.73494,1.18915 24.78794,0.31092 28.17892,-1.02889 l 0,0 z m -80.02012,-3.60988 c 2.65211,-16.11257 4.86257,-23.97155 9.08726,-32.30857 2.707,-5.34203 2.82248,-5.78111 1.52038,-5.78111 -1.34254,0 -6.02012,9.73531 -8.22343,17.11519 -1.61655,5.41459 -4.71726,20.94997 -4.71726,23.63475 0,0.44134 0.39669,0.80243 0.88154,0.80243 0.48485,0 1.13803,-1.55821 1.45151,-3.46269 z m -5.63671,-7.38709 c 3.304,-12.40457 5.44939,-17.96721 8.90343,-23.08513 2.7082,-4.01279 3.32373,-5.77227 2.01816,-5.7689 -0.70388,0.002 -5.71485,7.17028 -7.48994,10.71478 -1.24574,2.48749 -7.51508,24.68849 -7.51508,26.61242 0,3.98642 1.7097,0.43877 4.08343,-8.47317 z m 12.85035,0.46169 c 1.03024,-14.88012 3.62154,-21.70125 11.79605,-31.05093 5.88436,-6.73029 6.3521,-9.66586 0.65669,-4.12142 -7.80542,7.59851 -11.98327,16.11954 -13.62994,27.79927 -1.57134,11.14544 -1.7285,15.9144 -0.52443,15.9144 0.74212,0 1.30635,-2.83214 1.70163,-8.54132 z m -21.07567,0.50997 c 1.70355,-5.86002 5.64073,-14.05614 10.12864,-21.08504 4.76615,-7.46467 5.3464,-8.74244 3.97006,-8.74244 -1.20523,0 -7.90034,10.4907 -12.08067,18.92942 -3.87771,7.82783 -5.8829,16.15925 -3.88918,16.15925 0.18793,0 1.02994,-2.36753 1.87115,-5.26119 l 0,0 z m 32.25579,-4.54988 c 2.70044,-8.80108 5.94369,-15.0252 9.43869,-18.11378 1.00099,-0.88459 5.90863,-3.44993 10.90585,-5.70076 9.1128,-4.10454 14.2812,-7.27432 13.39645,-8.21603 -0.75092,-0.79927 -23.60711,10.68258 -26.29871,13.21121 -1.33624,1.25534 -3.25189,3.61303 -4.257,5.23933 -2.06692,3.34435 -7.29114,18.2437 -7.29114,20.79416 0,3.8373 1.55124,1.11171 4.10586,-7.21413 l 0,0 z m 41.8851,-23.77994 c 9.04827,-5.71192 15.094,-8.0604 23.08857,-8.9688 5.19418,-0.5902 12.68455,-2.50091 21.39666,-5.45805 7.3726,-2.50247 16.72892,-4.98824 20.79182,-5.52394 12.52783,-1.65183 18.92941,-2.9379 18.92941,-3.80292 0,-1.03945 -0.51059,-1.03419 -6.30603,0.0649 -2.59123,0.49141 -8.3614,1.34232 -12.82259,1.89091 -5.02654,0.6181 -13.24824,2.72784 -21.61891,5.54752 -8.76008,2.95086 -16.34023,4.87196 -21.56681,5.46584 -7.09224,0.80588 -9.17786,1.51354 -17.38367,5.89838 -5.12848,2.74044 -9.48197,5.455 -9.67442,6.03234 -0.55487,1.66462 1.40071,1.23073 5.16597,-1.14617 l 0,0 z"
       id="path3093"
       inkscape:connector-curvature="0"
       transform="translate(106.83931,293.64792)" />
    <path
       style="opacity:0.95999995;fill:#808080;stroke-width:16.5;stroke-linecap:round;stroke-linejoin:round;stroke-miterlimit:4;stroke-dasharray:none"
       d="m 450.42414,313.59398 c 0,-0.61743 -1.39204,-1.07729 -3.26108,-1.07729 -1.7936,0 -7.45721,-1.24657 -12.5858,-2.77015 -5.12858,-1.52359 -11.45216,-2.79796 -14.0524,-2.83193 l -4.72769,-0.0618 4.15524,-1.36638 c 9.08417,-2.98717 39.70559,-7.34874 39.70559,-5.65547 0,0.5479 -7.86485,13.47127 -8.71671,14.32313 -0.28443,0.28443 -0.51715,0.0324 -0.51715,-0.56014 z m 2.46114,-7.0793 c -0.39947,-1.24185 -7.88754,-1.66931 -16.08108,-0.91799 -10.6034,0.97229 -7.79257,2.1179 4.84178,1.97336 7.21538,-0.0825 11.42508,-0.47784 11.2393,-1.05537 z"
       id="path3095"
       inkscape:connector-curvature="0"
       transform="translate(106.83931,293.64792)" />
    <path
       style="opacity:0.95999995;fill:#f2f2f2;stroke-width:16.5;stroke-linecap:round;stroke-linejoin:round;stroke-miterlimit:4;stroke-dasharray:none"
       d="m 270.26196,328.70386 c -8.41716,-3.09806 -14.70974,-8.93294 -21.90715,-20.3137 l -4.65359,-7.35838 5.71339,-3.09505 c 16.04804,-8.69351 21.5407,-11.06453 27.12151,-11.70754 l 5.71055,-0.65795 1.44569,4.86815 c 0.79513,2.67749 1.44569,6.19036 1.44569,7.80638 0,4.63379 1.67891,12.44793 3.81603,17.76098 1.92141,4.77677 1.92599,4.91458 0.22671,6.82973 -5.95666,6.71337 -11.74394,8.5082 -18.91883,5.86738 l 0,0 z"
       id="path3097"
       inkscape:connector-curvature="0"
       transform="translate(106.83931,293.64792)" />
    <path
       style="opacity:0.95999995;fill:#f2f2f2;stroke-width:16.5;stroke-linecap:round;stroke-linejoin:round;stroke-miterlimit:4;stroke-dasharray:none"
       d="m 348.40878,397.32685 c -10.94769,-8.62294 -41.94032,-41.09811 -54.93569,-57.56356 -3.20374,-4.05922 -6.32235,-7.79893 -6.93025,-8.31048 -0.81771,-0.6881 -0.0836,-1.84332 2.82155,-4.44015 l 3.92683,-3.51005 6.85508,8.58868 c 13.37638,16.75917 26.60162,27.25118 40.71303,32.29896 7.29192,2.60839 8.41724,3.32614 10.48649,6.68847 5.37746,8.7379 7.29027,10.89265 12.45432,14.02964 2.99247,1.81783 6.10207,4.31429 6.91022,5.54769 1.3478,2.05701 1.34348,2.38166 -0.0523,3.92395 -1.85165,2.04606 -6.57823,3.50559 -13.95762,4.31001 -4.92804,0.5372 -5.84438,0.36445 -8.29168,-1.56316 l 0,0 z"
       id="path3099"
       inkscape:connector-curvature="0"
       transform="translate(106.83931,293.64792)" />
    <path
       style="opacity:0.95999995;fill:#f2f2f2;stroke-width:16.5;stroke-linecap:round;stroke-linejoin:round;stroke-miterlimit:4;stroke-dasharray:none"
       d="m 287.75739,290.02109 -1.39237,-5.00247 5.15768,-0.4474 c 2.83672,-0.24607 5.30803,-0.31463 5.49181,-0.15236 0.27217,0.24032 -2.12606,3.49493 -7.28511,9.88656 -0.31881,0.39497 -1.20621,-1.53297 -1.97201,-4.28433 z"
       id="path3101"
       inkscape:connector-curvature="0"
       transform="translate(106.83931,293.64792)" />
  </g>
  <g
     inkscape:groupmode="layer"
     id="layer3"
     inkscape:label="Cerebrellum"
     style="display:inline"
     transform="translate(-106.83931,-293.64792)">
    <path
       style="fill:none;fill-rule:evenodd;stroke:#000000;stroke-width:3;stroke-linecap:round;stroke-linejoin:round;stroke-miterlimit:4;stroke-dasharray:none;stroke-opacity:1;display:inline"
       d="M 571.24127,550.82141 C 578.88017,566.24618 575.74189,585.31111 565.77931,598.93785 C 555.94636,615.66648 545.43281,633.23184 528.71855,643.92032 C 517.28105,650.24712 505.14337,655.51379 492.62758,659.22925 C 480.04945,661.38373 467.12429,660.05789 454.58981,658.34363 C 432.04839,652.97898 415.80496,634.72025 402.54589,616.8508 C 395.45201,609.31451 394.35207,599.06377 393.78217,589.26004 C 393.22137,585.24136 392.25545,581.23301 390.42395,577.59052"
       id="path4219" />
    <path
       style="fill:none;fill-rule:evenodd;stroke:#000000;stroke-width:1px;stroke-linecap:round;stroke-linejoin:round;stroke-opacity:1;display:inline"
       d="M 446.78571,610.2193 C 450.99215,599.14722 459.93668,589.81875 471.43917,586.4419 C 487.00114,581.51371 500.61694,570.875 517.25631,569.44501 C 531.27768,567.24092 545.52671,566.03051 559.07678,561.53811 C 563.55473,560.32636 568.0617,558.78719 571.78571,555.93359"
       id="path4318" />
    <path
       style="fill:none;fill-rule:evenodd;stroke:#000000;stroke-width:1px;stroke-linecap:round;stroke-linejoin:round;stroke-opacity:1;display:inline"
       d="M 441.78571,608.79077 C 446.08365,597.34233 452.32044,585.08914 464.31886,580.25104 C 469.95,577.73349 475.59742,574.80445 479.53771,569.93187 C 488.83685,562.69046 500.46527,559.11037 511.77553,556.51997 C 525.37662,555.2957 538.12458,549.26243 551.78571,548.79077"
       id="path4320" />
    <path
       style="fill:none;fill-rule:evenodd;stroke:#000000;stroke-width:1px;stroke-linecap:round;stroke-linejoin:round;stroke-opacity:1;display:inline"
       d="M 477.5,578.79077 C 487.00415,573.3096 496.69282,566.0355 508.28596,567.05853 C 522.13449,565.24385 534.25264,556.42884 548.46225,556.39965 C 554.34905,555.51572 560.21491,554.49833 566.07141,553.43359"
       id="path4322" />
    <path
       style="fill:none;fill-rule:evenodd;stroke:#000000;stroke-width:1px;stroke-linecap:round;stroke-linejoin:round;stroke-opacity:1;display:inline"
       d="M 436.78571,609.14789 C 440.13209,598.82139 441.70445,586.42153 451.78476,580.15234 C 458.87671,576.06778 467.14007,574.47139 473.57144,569.14789"
       id="path4324" />
    <path
       style="fill:none;fill-rule:evenodd;stroke:#000000;stroke-width:1px;stroke-linecap:round;stroke-linejoin:round;stroke-opacity:1;display:inline"
       d="M 432.14285,609.50507 C 434.9118,597.59292 435.73302,583.42416 446.3996,575.46885 C 453.75378,569.34883 462.3312,564.99181 470.35715,559.86218"
       id="path4326" />
    <path
       style="fill:none;fill-rule:evenodd;stroke:#000000;stroke-width:1px;stroke-linecap:round;stroke-linejoin:round;stroke-opacity:1;display:inline"
       d="M 461.42856,570.2193 C 482.69106,561.07706 503.38406,548.75728 526.95334,546.89718 C 528.32499,546.68814 529.69712,546.48193 531.07141,546.29077"
       id="path4328" />
    <path
       style="fill:none;fill-rule:evenodd;stroke:#000000;stroke-width:1px;stroke-linecap:round;stroke-linejoin:round;stroke-opacity:1;display:inline"
       d="M 453.57141,606.29077 C 459.76082,599.42127 467.63062,594.44694 476.17931,591.08423 C 486.22894,586.46818 496.94198,583.22868 506.34339,577.32237 C 522.79987,570.59655 541.59264,575.39368 557.96683,568.14307 C 562.74808,566.22755 567.3728,563.95099 572.14288,562.00507"
       id="path4330" />
    <path
       style="fill:none;fill-rule:evenodd;stroke:#000000;stroke-width:1px;stroke-linecap:round;stroke-linejoin:round;stroke-opacity:1;display:inline"
       d="M 451.07144,612.00507 C 461.13148,606.04587 471.49096,600.23134 482.95115,597.49591 C 495.91315,592.23919 507.19001,582.26826 521.62928,581.1667 C 533.22846,578.50619 545.20992,578.09875 556.89894,576.20573 C 562.77797,574.39611 568.57149,572.19825 573.92859,569.14789"
       id="path4332" />
    <path
       style="fill:none;fill-rule:evenodd;stroke:#000000;stroke-width:1px;stroke-linecap:round;stroke-linejoin:round;stroke-opacity:1;display:inline"
       d="M 462.5,611.64789 C 485.44424,607.53653 504.52314,592.7752 526.66225,586.38577 C 540.33791,583.71231 555.24614,585.47228 567.67686,578.05168 C 569.04648,577.4647 570.4161,576.87774 571.78571,576.29077"
       id="path4334" />
    <path
       style="fill:none;fill-rule:evenodd;stroke:#000000;stroke-width:1px;stroke-linecap:round;stroke-linejoin:round;stroke-opacity:1;display:inline"
       d="M 471.42856,613.43359 C 490.02342,611.66343 506.56118,599.94922 525.65542,601.42022 C 534.25899,601.11924 542.18731,605.09995 550.14007,607.10659 C 552.35528,607.19178 554.5705,607.27699 556.78571,607.36218"
       id="path4336" />
    <path
       style="fill:none;fill-rule:evenodd;stroke:#000000;stroke-width:1px;stroke-linecap:round;stroke-linejoin:round;stroke-opacity:1;display:inline"
       d="M 504.28571,600.93359 C 517.36099,594.14991 531.54666,588.23462 546.55673,588.83193 C 554.93966,587.95477 563.62685,586.98971 571.07141,582.7193"
       id="path4338" />
    <path
       style="fill:none;fill-rule:evenodd;stroke:#000000;stroke-width:1px;stroke-linecap:round;stroke-linejoin:round;stroke-opacity:1;display:inline"
       d="M 521.78571,599.50507 C 536.20495,594.62903 551.28956,592.72562 566.42859,592.00507"
       id="path4340" />
    <path
       style="fill:none;fill-rule:evenodd;stroke:#000000;stroke-width:1px;stroke-linecap:round;stroke-linejoin:round;stroke-opacity:1;display:inline"
       d="M 538.21429,600.57648 C 545.21561,600.05977 552.29253,599.05367 559.28571,600.2193"
       id="path4342" />
    <path
       style="fill:none;fill-rule:evenodd;stroke:#000000;stroke-width:1px;stroke-linecap:round;stroke-linejoin:round;stroke-opacity:1;display:inline"
       d="M 440.35715,614.14789 C 451.54072,621.75434 463.65708,629.7936 477.74,629.64689 C 490.67622,629.28823 503.58368,627.96614 516.25331,625.27623 C 525.4047,623.49567 534.8095,624.1119 543.57141,627.36218"
       id="path4344" />
    <path
       style="fill:none;fill-rule:evenodd;stroke:#000000;stroke-width:1px;stroke-linecap:round;stroke-linejoin:round;stroke-opacity:1;display:inline"
       d="M 453.92856,616.29077 C 474.21582,624.63942 497.2143,624.6665 518.11596,618.59909 C 527.3556,616.72738 536.54835,619.225 545.71429,620.21932"
       id="path4346" />
    <path
       style="fill:none;fill-rule:evenodd;stroke:#000000;stroke-width:1px;stroke-linecap:round;stroke-linejoin:round;stroke-opacity:1;display:inline"
       d="M 474.28571,615.93359 C 484.78702,616.178 495.66626,617.30325 505.70861,613.47765 C 520.78329,611.10197 536.39118,611.34054 551.42859,613.79077"
       id="path4348" />
    <path
       style="fill:none;fill-rule:evenodd;stroke:#000000;stroke-width:1px;stroke-linecap:round;stroke-linejoin:round;stroke-opacity:1;display:inline"
       d="M 435.35715,615.93359 C 445.26324,625.00827 457.03545,634.04069 471.08291,634.2681 C 480.49055,636.34656 490.53955,637.9438 499.69988,634.04436 C 510.93018,631.73736 522.736,632.0162 533.93553,634.20569 L 535.17775,634.55019 L 536.42859,634.86218"
       id="path4350" />
    <path
       style="fill:none;fill-rule:evenodd;stroke:#000000;stroke-width:1px;stroke-linecap:round;stroke-linejoin:round;stroke-opacity:1;display:inline"
       d="M 429.28571,617.7193 C 437.55603,625.3127 446.63236,632.35255 457.49649,635.74545 C 469.1243,639.69776 481.22288,642.97368 493.6031,642.63539 C 502.40118,642.8122 511.20127,642.63049 520,642.7193"
       id="path4352" />
    <path
       style="fill:none;fill-rule:evenodd;stroke:#000000;stroke-width:1px;stroke-linecap:round;stroke-linejoin:round;stroke-opacity:1;display:inline"
       d="M 425.35715,619.14789 C 432.7059,626.17873 439.83729,633.99289 449.55413,637.7222 C 466.77931,647.22018 486.74363,650.06938 506.17288,650.06529 L 507.55105,650.13642 L 508.92856,650.2193"
       id="path4354" />
    <path
       style="fill:none;fill-rule:evenodd;stroke:#000000;stroke-width:1px;stroke-linecap:round;stroke-linejoin:round;stroke-opacity:1;display:inline"
       d="M 419.28571,620.2193 C 428.70325,629.0459 437.66816,638.74249 449.42703,644.50768 C 463.99341,652.89005 481.3343,654.99345 497.85715,655.2193"
       id="path4356" />
    <path
       style="fill:none;fill-rule:evenodd;stroke:#000000;stroke-width:1px;stroke-linecap:round;stroke-linejoin:round;stroke-opacity:1;display:inline"
       d="M 413.57144,621.64789 C 425.48632,634.46259 438.30857,647.71611 455.55109,652.93082 C 463.41682,655.69939 471.67179,657.09814 479.64285,659.50507"
       id="path4358" />
    <path
       style="fill:none;fill-rule:evenodd;stroke:#000000;stroke-width:1px;stroke-linecap:round;stroke-linejoin:round;stroke-opacity:1;display:inline"
       d="M 427.5,613.07648 C 428.0902,600.01655 428.91914,585.72253 438.05538,575.44058 C 440.38015,572.76488 442.96744,570.33477 445.35715,567.7193"
       id="path4360" />
    <path
       style="fill:none;fill-rule:evenodd;stroke:#000000;stroke-width:1px;stroke-linecap:round;stroke-linejoin:round;stroke-opacity:1;display:inline"
       d="M 420.71429,614.50507 C 422.70781,600.7839 424.5928,586.06594 432.85715,574.50507"
       id="path4362" />
    <path
       style="fill:none;fill-rule:evenodd;stroke:#000000;stroke-width:1px;stroke-linecap:round;stroke-linejoin:round;stroke-opacity:1;display:inline"
       d="M 412.85715,613.79077 C 416.69037,601.13364 418.11099,586.7295 427.5,576.64789"
       id="path4364" />
    <path
       style="fill:none;fill-rule:evenodd;stroke:#000000;stroke-width:1px;stroke-linecap:round;stroke-linejoin:round;stroke-opacity:1;display:inline"
       d="M 406.07144,609.50507 C 408.21025,597.09073 415.43154,586.63088 422.14285,576.29077"
       id="path4366" />
    <path
       style="fill:none;fill-rule:evenodd;stroke:#000000;stroke-width:1px;stroke-linecap:round;stroke-linejoin:round;stroke-opacity:1;display:inline"
       d="M 400.71429,601.64789 C 401.5643,591.80243 408.67637,584.25472 414.64285,577.00507"
       id="path4368" />
    <path
       style="fill:none;fill-rule:evenodd;stroke:#000000;stroke-width:1px;stroke-linecap:round;stroke-linejoin:round;stroke-opacity:1;display:inline"
       d="M 395.62762,591.08154 C 399.43715,586.08154 403.24668,581.08154 407.05621,576.08154"
       id="path4370" />
  </g>
  <g
     inkscape:label="Cortex"
     inkscape:groupmode="layer"
     id="layer1"
     style="display:inline"
     transform="translate(-106.83931,-293.64792)">
    <path
       style="fill:none;fill-rule:evenodd;stroke:#000000;stroke-width:3.75;stroke-linecap:round;stroke-linejoin:round;stroke-miterlimit:4;stroke-dasharray:none;stroke-opacity:1"
       d="M 189.40359,555.87219 C 173.92722,550.16638 160.57461,539.69688 150.48466,526.40368 C 143.62232,518.62931 134.45391,512.23329 132.97571,501.24082 C 130.95605,494.89264 126.89125,486.49638 129.31717,481.97447 C 116.98468,475.68781 122.8496,459.67743 125.66074,449.46718 C 130.59093,440.60135 120.0632,431.41472 126.26907,423.03714 C 135.01405,419.65596 127.18287,410.82638 132.56299,404.54943 C 136.52567,398.04068 142.91815,391.56722 151.01781,390.71228 C 150.19381,380.44547 160.15437,375.02457 164.1498,366.4686 C 172.79889,359.00131 180.14937,349.31654 192.13358,347.54421 C 202.35944,341.6235 214.43735,340.41674 224.04328,333.21369 C 233.32281,326.84986 243.56302,322.97878 254.6981,321.42965 C 269.58259,318.53334 284.27483,315.01975 297.995,308.38483 C 322.73751,304.26658 348.13711,299.05811 373.17652,302.22446 C 383.48877,306.04096 393.80071,298.58328 404.4707,299.4129 C 419.35054,298.22945 433.95542,303.75547 448.71736,305.44905 C 461.02067,309.25744 473.52044,313.66428 485.25079,318.78368 C 491.01302,326.3257 502.20068,323.53143 508.34415,330.90339 C 517.4822,338.2743 529.99844,343.4831 534.87579,354.52945 C 535.4235,361.5707 544.84164,364.34927 549.35491,369.22992 C 561.37654,376.95464 569.49909,389.12253 577.65798,400.4371 C 579.42722,406.67541 583.16059,414.25202 581.17611,419.33492 C 592.65945,429.399 597.7741,444.37263 606.09155,456.87726 C 607.56325,465.30569 613.7703,473.60341 611.6474,482.13107 C 617.81016,486.86796 618.49071,496.02998 620.62568,503.01651 C 619.37657,513.15951 620.56036,524.14263 612.92483,532.08029 C 609.08743,540.11545 602.97749,545.88103 595.05424,549.83564 C 587.48891,554.41653 577.65109,553.6111 569.57303,550.55705 C 549.72016,544.54004 528.92024,544.67217 508.61182,541.22498 C 497.51477,545.92503 487.7389,553.20468 475.71789,555.72517 C 464.53087,559.29514 452.83238,565.27417 440.93158,561.42804 C 441.23135,572.00376 428.61941,571.4068 421.05657,572.81142 C 406.59954,575.685 391.68923,576.32998 377.23959,578.13263 C 361.2808,586.83883 344.01504,593.81608 329.24068,604.29887 C 322.94623,612.0867 313.14975,616.76251 303.1221,614.30958 C 292.15553,613.53307 283.44179,604.95168 273.36096,600.97699 C 264.74136,595.4383 253.1755,598.95494 245.28253,591.50959 C 238.80453,588.3772 234.19583,581.74272 230.68813,575.89984 C 226.64072,570.46298 235.97672,558.16641 228.25782,558.18495 C 215.30641,557.41403 206.39561,558.66342 189.40359,555.87219 z"
       id="path2453"
       sodipodi:nodetypes="cccccccccccccccccccccccccccccccccccccccc" />
    <path
       style="fill:none;fill-rule:evenodd;stroke:#000000;stroke-width:2.5;stroke-linecap:round;stroke-linejoin:round;stroke-miterlimit:4;stroke-dasharray:none;stroke-opacity:1"
       d="M 250.51784,577.08539 C 269.92642,570.13568 275.19236,547.68037 291.31749,536.62927 C 303.28637,528.38592 316.36454,515.10353 332.22921,521.23662 C 352.59527,527.98725 374.80324,520.44445 390.73915,507.11823 C 402.26601,496.89636 417.40844,491.6428 432.7616,493.86722 C 450.55707,498.54425 454.52516,481.03641 460.01373,468.65811 C 466.89599,455.17505 483.26105,450.04918 486.82739,434.22936 C 495.73694,420.46029 501.36802,404.8641 503.99362,388.68549 C 504.25416,376.77108 511.99444,367.78065 519.45607,359.33155 C 520.54796,357.768 521.51226,356.10859 522.24884,354.34677"
       id="path3230" />
    <path
       style="fill:none;fill-rule:evenodd;stroke:#000000;stroke-width:1.25;stroke-linecap:round;stroke-linejoin:round;stroke-miterlimit:4;stroke-dasharray:none;stroke-opacity:1"
       d="M 288.90363,603.34937 C 299.57803,595.98279 309.36281,587.14323 316.66649,576.37859 C 322.96122,570.63539 332.11269,572.37143 339.79345,570.51721 C 346.96648,570.35021 353.57593,567.37378 359.428,563.41502 C 364.60385,559.17363 370.33393,563.98744 375.00109,566.6047 C 380.24748,570.03516 385.32885,573.72872 390.92905,576.58032"
       id="path3235" />
    <path
       style="fill:none;fill-rule:evenodd;stroke:#000000;stroke-width:3.75;stroke-linecap:round;stroke-linejoin:round;stroke-miterlimit:4;stroke-dasharray:none;stroke-opacity:1"
       d="M 230.81985,558.39758 C 239.60316,538.10188 248.42519,517.02834 267.58501,504.19775 C 287.47788,488.7872 310.93446,470.424 337.4769,472.79771 C 363.45468,482.16319 367.9867,450.40281 386.5301,441.31683 C 402.73462,432.16602 427.732,443.94305 438.18557,423.38013 C 447.09436,405.75845 449.7862,407.71301 454.43828,401.95736"
       id="path3250"
       sodipodi:nodetypes="cccccc" />
    <path
       style="fill:none;fill-rule:evenodd;stroke:#000000;stroke-width:2.5;stroke-linecap:round;stroke-linejoin:round;stroke-miterlimit:4;stroke-dasharray:none;stroke-opacity:1"
       d="M 370.72598,455.8671 C 365.38192,435.81804 357.79812,423.31149 362.61264,402.50552 C 364.37908,392.52749 375.94732,372.19911 383.78967,365.92861 C 400.97534,339.3609 400.87175,345.56879 424.83476,338.37867"
       id="path3255"
       sodipodi:nodetypes="cccc" />
    <path
       style="fill:none;fill-rule:evenodd;stroke:#000000;stroke-width:1.25;stroke-linecap:round;stroke-linejoin:round;stroke-miterlimit:4;stroke-dasharray:none;stroke-opacity:1"
       d="M 497.58863,410.68191 C 491.56842,389.35583 469.84625,395.02127 461.79099,374.72171 C 456.33489,366.01645 450.95623,340.15404 445.71762,331.29118 C 434.99481,326.07477 426.26318,315.85783 424.99846,303.73733 C 424.75367,302.92947 424.50888,302.12161 424.26407,301.31375"
       id="path3264"
       sodipodi:nodetypes="ccccc" />
    <path
       style="fill:none;fill-rule:evenodd;stroke:#000000;stroke-width:1.25;stroke-linecap:round;stroke-linejoin:round;stroke-miterlimit:4;stroke-dasharray:none;stroke-opacity:1"
       d="M 512.14734,430.10822 C 515.31603,434.80296 518.84995,439.25033 521.79082,444.09808 C 523.15678,457.04099 527.11944,470.47796 522.76606,483.27685 C 519.99364,492.52847 516.54549,501.98849 517.48488,511.80884 C 514.41153,517.06202 518.01335,524.96343 524.17309,525.66361 C 529.60965,528.23424 537.09302,528.92626 541.45686,523.99031 C 548.10794,518.26438 556.78069,514.00477 565.7585,515.13876 C 571.26458,514.85651 576.67866,509.70062 575.34868,503.92444 C 575.20093,502.34426 574.80855,500.79447 574.27173,499.30365"
       id="path3278" />
    <path
       style="fill:none;fill-rule:evenodd;stroke:#000000;stroke-width:2.5;stroke-linecap:round;stroke-linejoin:round;stroke-miterlimit:4;stroke-dasharray:none;stroke-opacity:1"
       d="M 541.44177,489.20215 C 555.18347,486.28523 568.89319,483.14466 582.35297,479.10062 C 586.00379,479.98095 590.43696,479.73748 593.0691,482.88796 C 597.48972,486.35356 601.78004,490.13545 604.81115,494.91819 C 609.89566,501.14944 613.68294,508.27038 617.18617,515.46938 L 617.44721,515.97282 L 617.70825,516.47626"
       id="path3306" />
    <path
       style="fill:none;fill-rule:evenodd;stroke:#000000;stroke-width:1.25;stroke-linecap:round;stroke-linejoin:round;stroke-miterlimit:4;stroke-dasharray:none;stroke-opacity:1"
       d="M 581.34277,478.59555 C 583.35911,471.79678 587.06673,464.43593 584.10263,457.3417 C 580.60003,447.88324 573.03214,440.7595 568.49021,431.89267 C 566.72147,427.28262 564.72915,422.24043 560.15509,419.72984 C 555.81337,416.66729 550.37294,416.26262 545.2881,415.59582 C 537.05908,413.31757 533.35793,404.8173 528.30975,398.79349"
       id="path3308" />
    <path
       style="fill:none;fill-rule:evenodd;stroke:#000000;stroke-width:1.25;stroke-linecap:round;stroke-linejoin:round;stroke-miterlimit:4;stroke-dasharray:none;stroke-opacity:1"
       d="M 496.99506,520.51685 C 490.1979,522.22834 483.60433,524.86805 476.63754,525.82697 C 466.57351,526.8776 456.45763,527.58625 446.33728,527.53421 C 442.96697,527.53378 439.98325,525.65998 437.82056,523.18989 C 434.42933,519.4466 431.64786,515.20159 428.28336,511.43084 C 427.44791,510.41954 426.61177,509.40881 425.7793,508.39505"
       id="path3329" />
    <path
       style="fill:none;fill-rule:evenodd;stroke:#000000;stroke-width:1.25;stroke-linecap:round;stroke-linejoin:round;stroke-miterlimit:4;stroke-dasharray:none;stroke-opacity:1"
       d="M 432.34528,556.88239 C 422.65625,545.6964 407.68242,539.96727 400.54732,526.3605 C 396.2939,520.11093 394.27395,512.39104 394.96964,504.8595"
       id="path3335" />
    <path
       style="fill:none;fill-rule:evenodd;stroke:#000000;stroke-width:1.25;stroke-linecap:round;stroke-linejoin:round;stroke-miterlimit:4;stroke-dasharray:none;stroke-opacity:1"
       d="M 395.9798,550.82141 C 401.72244,547.8712 409.00801,546.64028 412.64731,540.71991"
       id="path3337" />
    <path
       style="fill:none;fill-rule:evenodd;stroke:#000000;stroke-width:1.25;stroke-linecap:round;stroke-linejoin:round;stroke-miterlimit:4;stroke-dasharray:none;stroke-opacity:1"
       d="M 477.29709,473.54477 C 488.57357,476.60426 503.09531,486.08626 492.97054,498.85622 C 491.89426,501.02582 490.54247,503.06427 488.91383,504.8595"
       id="path3339" />
    <path
       style="fill:none;fill-rule:evenodd;stroke:#000000;stroke-width:1.25;stroke-linecap:round;stroke-linejoin:round;stroke-miterlimit:4;stroke-dasharray:none;stroke-opacity:1"
       d="M 495.47983,483.6463 C 500.02551,481.626 504.5712,479.60569 509.11688,477.58539"
       id="path3341" />
    <path
       style="fill:none;fill-rule:evenodd;stroke:#000000;stroke-width:1.25;stroke-linecap:round;stroke-linejoin:round;stroke-miterlimit:4;stroke-dasharray:none;stroke-opacity:1"
       d="M 523.25903,458.89755 C 516.42981,461.52933 509.69404,464.40206 503.05597,467.48386"
       id="path3343" />
    <path
       style="fill:none;fill-rule:evenodd;stroke:#000000;stroke-width:1.25;stroke-linecap:round;stroke-linejoin:round;stroke-miterlimit:4;stroke-dasharray:none;stroke-opacity:1"
       d="M 504.5712,415.96609 C 515.24302,405.68115 527.66769,397.46634 540.20849,389.66519 C 542.79183,385.3702 542.82766,380.19023 544.47223,375.55997"
       id="path3347" />
    <path
       style="fill:none;fill-rule:evenodd;stroke:#000000;stroke-width:1.25;stroke-linecap:round;stroke-linejoin:round;stroke-miterlimit:4;stroke-dasharray:none;stroke-opacity:1"
       d="M 575.28186,547.28589 C 587.98091,539.43552 597.12062,524.72746 593.93901,509.45317 C 593.44175,505.62242 592.45128,501.8505 590.93927,498.29352"
       id="path3349" />
    <path
       style="fill:none;fill-rule:evenodd;stroke:#000000;stroke-width:1.25;stroke-linecap:round;stroke-linejoin:round;stroke-miterlimit:4;stroke-dasharray:none;stroke-opacity:1"
       d="M 453.5585,488.19199 C 457.79231,491.81723 466.69958,493.44278 465.17526,500.81888"
       id="path3351" />
    <path
       style="fill:none;fill-rule:evenodd;stroke:#000000;stroke-width:1.25;stroke-linecap:round;stroke-linejoin:round;stroke-miterlimit:4;stroke-dasharray:none;stroke-opacity:1"
       d="M 465.17526,495.26306 C 467.36392,494.25291 469.55258,493.24276 471.74124,492.2326"
       id="path3353" />
    <path
       style="fill:none;fill-rule:evenodd;stroke:#000000;stroke-width:1.25;stroke-linecap:round;stroke-linejoin:round;stroke-miterlimit:4;stroke-dasharray:none;stroke-opacity:1"
       d="M 343.95694,557.38745 C 334.30236,553.9937 323.6137,543.69927 328.80466,532.63867"
       id="path3355" />
    <path
       style="fill:none;fill-rule:evenodd;stroke:#000000;stroke-width:1.25;stroke-linecap:round;stroke-linejoin:round;stroke-miterlimit:4;stroke-dasharray:none;stroke-opacity:1"
       d="M 468.20571,556.37728 L 461.13464,548.29606"
       id="path3357" />
    <path
       id="path3345"
       style="fill:none;fill-rule:evenodd;stroke:#000000;stroke-width:1.25;stroke-linecap:round;stroke-linejoin:round;stroke-miterlimit:4;stroke-dasharray:none;stroke-opacity:1"
       d="M 562.65497,463.44324 C 562.65591,453.99401 562.49291,430.70655 547.50269,436.67422 C 536.75558,441.53657 535.34097,456.97898 526.28949,458.39249"
       sodipodi:nodetypes="ccc" />
    <path
       style="fill:none;fill-rule:evenodd;stroke:#000000;stroke-width:1.25;stroke-linecap:round;stroke-linejoin:round;stroke-miterlimit:4;stroke-dasharray:none;stroke-opacity:1"
       d="M 565.18035,422.02699 L 566.69558,408.38993 L 563.16004,395.76303 L 560.63466,385.6615"
       id="path3361" />
    <path
       style="fill:none;fill-rule:evenodd;stroke:#000000;stroke-width:1.25;stroke-linecap:round;stroke-linejoin:round;stroke-miterlimit:4;stroke-dasharray:none;stroke-opacity:1"
       d="M 586.39355,461.42294 C 589.76072,459.06592 593.12789,456.70889 596.49506,454.35187"
       id="path3363" />
    <path
       style="fill:none;fill-rule:evenodd;stroke:#000000;stroke-width:1.25;stroke-linecap:butt;stroke-linejoin:miter;stroke-miterlimit:4;stroke-dasharray:none;stroke-opacity:1;display:inline"
       d="M 230.81985,489.20215 C 225.17207,486.75255 219.2478,483.33546 217.02,477.22909 C 214.64828,472.18614 214.91276,465.17063 209.39049,462.18807 C 205.60663,458.18331 198.38764,457.38329 196.9367,451.35781 C 196.62085,444.97928 195.4906,437.62909 189.77248,433.75169 C 185.41502,430.69637 182.16825,424.80252 176.15634,425.11704 C 170.76012,425.22419 165.59432,431.25317 160.35333,428.30708 C 154.24957,424.25091 151.42,417.12547 148.11291,410.89539 C 145.73966,405.55114 145.07443,398.90399 148.60727,393.89009 C 149.0827,393.00379 149.56702,392.1218 150.00764,391.21735"
       id="path3572" />
    <path
       style="fill:none;fill-rule:evenodd;stroke:#000000;stroke-width:1.25;stroke-linecap:butt;stroke-linejoin:miter;stroke-miterlimit:4;stroke-dasharray:none;stroke-opacity:1;display:inline"
       d="M 190.91882,514.96106 C 187.72001,511.0888 184.52119,507.21653 181.32237,503.34427 C 180.64894,500.31381 179.97551,497.28336 179.30208,494.2529 C 180.52324,488.14144 182.62269,482.08218 186.38013,477.05382 C 187.3591,474.65554 185.76359,471.39955 183.07314,471.14708 C 180.54251,471.60877 177.81497,472.82318 175.31314,471.59604 C 170.26299,470.43735 165.31167,467.74476 162.47468,463.28246 C 162.04418,462.81041 161.59644,462.35327 161.11932,461.92801"
       id="path3702" />
    <path
       style="fill:none;fill-rule:evenodd;stroke:#000000;stroke-width:1.25;stroke-linecap:butt;stroke-linejoin:miter;stroke-miterlimit:4;stroke-dasharray:none;stroke-opacity:1;display:inline"
       d="M 171.72594,446.77573 C 167.68533,446.10229 163.64471,445.42886 159.6041,444.75543 C 156.57365,446.10231 153.54319,447.44918 150.51273,448.79605 C 149.33698,451.84514 146.52461,454.64555 147.34618,458.1596 C 147.98341,464.72455 148.60423,471.85986 152.99626,477.14277 C 156.86405,481.4558 159.82412,486.51771 162.05412,491.84392 C 163.59932,494.4151 163.90936,497.59264 163.15791,500.46649 C 163.13908,500.75184 163.13115,501.03806 163.13963,501.32397"
       id="path3762" />
    <path
       style="fill:none;fill-rule:evenodd;stroke:#000000;stroke-width:1.25;stroke-linecap:butt;stroke-linejoin:miter;stroke-miterlimit:4;stroke-dasharray:none;stroke-opacity:1;display:inline"
       d="M 223.24371,343.74017 C 219.63948,346.62645 215.94924,350.23831 211.03245,350.34352 C 204.28302,351.81272 198.61821,356.11619 193.68026,360.73331 C 187.65807,364.34547 180.10973,362.92729 173.91755,366.01783 C 169.40905,368.78058 165.5595,374.24468 167.27669,379.71239 C 168.46226,382.89947 172.01125,384.74465 172.45303,388.29648 C 173.15667,391.7346 175.13704,394.8949 178.49868,396.21499 C 178.97085,396.52108 179.4233,396.86452 179.80714,397.27826"
       id="path3826" />
    <path
       style="fill:none;fill-rule:evenodd;stroke:#000000;stroke-width:1.25;stroke-linecap:butt;stroke-linejoin:miter;stroke-miterlimit:4;stroke-dasharray:none;stroke-opacity:1;display:inline"
       d="M 298.50009,364.4483 C 301.20098,361.7181 303.96071,359.04615 306.62496,356.27974 C 309.44601,350.55868 312.23318,344.79301 315.82445,339.50358 C 317.03012,337.42344 318.27567,335.25836 320.35916,333.93005 C 323.00596,331.8126 325.65278,329.69517 328.29959,327.57773"
       id="path3565" />
    <path
       style="fill:none;fill-rule:evenodd;stroke:#000000;stroke-width:1.25;stroke-linecap:butt;stroke-linejoin:miter;stroke-miterlimit:4;stroke-dasharray:none;stroke-opacity:1;display:inline"
       d="M 196.47467,502.33411 C 208.69142,500.52645 220.93168,498.69893 233.2806,498.11106 C 235.7345,498.00965 238.29306,497.96161 240.50137,496.74424 C 242.9984,495.74544 245.49543,494.74663 247.99245,493.74783"
       id="path3689" />
    <path
       style="fill:none;fill-rule:evenodd;stroke:#000000;stroke-width:1.25;stroke-linecap:butt;stroke-linejoin:miter;stroke-miterlimit:4;stroke-dasharray:none;stroke-opacity:1"
       d="M 343.45187,428.59299 L 343.45187,428.59299 C 345.47217,454.35188 346.9874,455.36203 346.9874,455.36203"
       id="path4136" />
    <path
       style="fill:none;fill-rule:evenodd;stroke:#000000;stroke-width:1.25;stroke-linecap:butt;stroke-linejoin:miter;stroke-miterlimit:4;stroke-dasharray:none;stroke-opacity:1"
       d="M 291.93409,404.34932 C 301.02546,423.54222 295.9747,428.59299 295.9747,428.59299"
       id="path4138" />
    <path
       style="fill:none;fill-rule:evenodd;stroke:#000000;stroke-width:1.25;stroke-linecap:butt;stroke-linejoin:miter;stroke-miterlimit:4;stroke-dasharray:none;stroke-opacity:1"
       d="M 406.04543,355.32103 C 423.21802,369.96824 419.17741,386.13068 419.17741,386.13068"
       id="path4140" />
    <path
       style="fill:none;fill-rule:evenodd;stroke:#000000;stroke-width:1.25;stroke-linecap:butt;stroke-linejoin:miter;stroke-miterlimit:4;stroke-dasharray:none;stroke-opacity:1"
       d="M 394.50047,404.19087 C 396.49974,428.80219 428.02984,432.66948 428.02984,432.66948"
       id="path4142"
       sodipodi:nodetypes="cc" />
    <path
       style="fill:none;fill-rule:evenodd;stroke:#000000;stroke-width:1.25;stroke-linecap:butt;stroke-linejoin:miter;stroke-miterlimit:4;stroke-dasharray:none;stroke-opacity:1"
       d="M 176.7767,541.22499 C 191.92898,524.0524 217.1828,540.21484 217.1828,540.21484"
       id="path4144" />
    <path
       style="fill:none;fill-rule:evenodd;stroke:#000000;stroke-width:1.25;stroke-linecap:butt;stroke-linejoin:miter;stroke-miterlimit:4;stroke-dasharray:none;stroke-opacity:1;display:inline"
       d="M 327.79449,520.01178 C 319.31652,512.02323 318.02731,498.29531 323.24881,488.19199"
       id="path3419" />
    <path
       style="fill:none;fill-rule:evenodd;stroke:#000000;stroke-width:1.25;stroke-linecap:butt;stroke-linejoin:miter;stroke-miterlimit:4;stroke-dasharray:none;stroke-opacity:1;display:inline"
       d="M 356.58386,473.54477 C 353.69083,482.73923 348.19966,491.01227 346.43497,500.57791 C 345.37642,502.55324 343.32091,503.6628 341.93665,505.36459"
       id="path3421" />
    <path
       style="fill:none;fill-rule:evenodd;stroke:#000000;stroke-width:1.25;stroke-linecap:butt;stroke-linejoin:miter;stroke-miterlimit:4;stroke-dasharray:none;stroke-opacity:1;display:inline"
       d="M 396.48486,467.98892 C 403.88117,469.52156 411.456,472.2533 419.07377,470.53764 C 426.71456,471.60438 428.55375,462.41176 431.33514,457.38232"
       id="path3423" />
    <path
       style="fill:none;fill-rule:evenodd;stroke:#000000;stroke-width:1.25;stroke-linecap:butt;stroke-linejoin:miter;stroke-miterlimit:4;stroke-dasharray:none;stroke-opacity:1;display:inline"
       d="M 434.87067,443.74527 C 442.74077,445.4139 451.21025,447.75209 459.05145,444.68974 C 465.6143,444.42276 471.37059,448.08876 477.29709,450.31128"
       id="path3425" />
    <path
       style="fill:none;fill-rule:evenodd;stroke:#000000;stroke-width:1.25;stroke-linecap:butt;stroke-linejoin:miter;stroke-miterlimit:4;stroke-dasharray:none;stroke-opacity:1;display:inline"
       d="M 467.70062,362.93307 C 471.57287,362.59635 475.44513,362.25963 479.31738,361.92291 C 484.92388,357.88052 490.63742,353.98428 496.48999,350.30615"
       id="path3427" />
    <path
       style="fill:none;fill-rule:evenodd;stroke:#000000;stroke-width:1.25;stroke-linecap:butt;stroke-linejoin:miter;stroke-miterlimit:4;stroke-dasharray:none;stroke-opacity:1;display:inline"
       d="M 517.70319,354.85184 C 510.82455,346.94246 500.5826,343.42377 490.93882,340.19326 C 483.56408,337.14072 474.65353,335.95995 467.40784,340.00461 C 464.6331,341.39803 461.99035,343.05772 459.11432,344.24524"
       id="path3429" />
    <path
       style="fill:none;fill-rule:evenodd;stroke:#000000;stroke-width:1.25;stroke-linecap:butt;stroke-linejoin:miter;stroke-miterlimit:4;stroke-dasharray:none;stroke-opacity:1;display:inline"
       d="M 477.80215,337.17419 C 476.5843,333.88046 478.66046,329.8259 482.0251,328.85047 C 484.58058,327.03567 486.46253,324.46301 488.91382,322.52698"
       id="path3431" />
    <path
       style="fill:none;fill-rule:evenodd;stroke:#000000;stroke-width:1.25;stroke-linecap:butt;stroke-linejoin:miter;stroke-miterlimit:4;stroke-dasharray:none;stroke-opacity:1;display:inline"
       d="M 398.50519,305.85944 C 405.9936,307.60998 410.9633,321.20203 400.14465,321.61869 C 390.94032,323.25079 381.42323,324.66449 373.55168,330.13034 C 367.24032,334.10568 358.13667,339.25658 359.66797,348.08028 C 364.05557,354.37503 360.33464,360.4307 353.23172,361.89243 C 346.16696,367.26255 343.57076,376.26295 341.40272,384.64782 C 337.68778,391.92527 334.86683,401.05464 327.71385,405.50106 C 317.9553,409.32235 320.25034,420.35692 323.10426,427.7993 C 323.36029,437.43931 312.98687,440.44136 308.98921,447.48538 C 307.43633,455.45248 301.09406,459.65517 295.35809,464.51234 C 288.74836,469.37868 294.1583,476.56318 299.15693,480.05958 C 299.91676,480.6273 300.70978,481.15056 301.53052,481.62598"
       id="path3433" />
    <path
       style="fill:none;fill-rule:evenodd;stroke:#000000;stroke-width:2.5;stroke-linecap:butt;stroke-linejoin:miter;stroke-miterlimit:4;stroke-dasharray:none;stroke-opacity:1;display:inline"
       d="M 362.13968,306.8696 C 351.5753,308.64862 347.59302,320.15131 345.82868,329.34503 C 339.42596,335.80119 337.07463,345.32126 337.06539,353.46317 C 331.82554,359.28188 320.83949,363.63386 323.54988,373.22094 C 325.04442,385.07546 309.42707,384.70071 301.42116,386.40506 C 292.96756,386.2742 281.14248,383.60958 276.52532,393.03262 C 271.86821,402.77904 276.52202,413.66789 275.30929,423.91873 C 273.57973,439.15929 263.79159,452.15916 262.35186,467.52229 C 260.83736,478.41098 261.67012,489.47077 263.14474,500.31381"
       id="path3438" />
    <path
       style="fill:none;fill-rule:evenodd;stroke:#000000;stroke-width:1.25;stroke-linecap:butt;stroke-linejoin:miter;stroke-miterlimit:4;stroke-dasharray:none;stroke-opacity:1;display:inline"
       d="M 256.07367,477.58539 C 254.76707,466.78982 252.55895,455.73187 255.01513,444.92916 C 255.71487,438.77709 255.14869,432.55694 254.11583,426.47602 C 252.72647,422.35704 249.58333,419.19414 247.48737,415.461"
       id="path3446" />
    <path
       style="fill:none;fill-rule:evenodd;stroke:#000000;stroke-width:1.25;stroke-linecap:butt;stroke-linejoin:miter;stroke-miterlimit:4;stroke-dasharray:none;stroke-opacity:1;display:inline"
       d="M 324.76404,309.90005 C 324.29065,314.24558 319.34087,315.43613 315.69663,315.6826 C 305.6259,316.74372 296.35582,321.21481 286.62038,323.71258 C 279.87452,326.07095 273.65075,329.63193 267.18536,332.62848 C 263.98654,337.67925 260.78772,342.73002 257.5889,347.78079 C 257.51923,351.99832 258.39167,357.52773 263.05367,358.97274 C 267.75593,360.95049 272.28806,363.30092 276.93663,365.39717 C 281.89016,369.79157 284.17609,376.21637 287.60395,381.71711 C 288.37882,383.1977 289.1437,384.68348 289.91379,386.16656"
       id="path3490" />
    <path
       style="fill:none;fill-rule:evenodd;stroke:#000000;stroke-width:1.25;stroke-linecap:butt;stroke-linejoin:miter;stroke-miterlimit:4;stroke-dasharray:none;stroke-opacity:1;display:inline"
       d="M 274.25641,396.2681 C 270.89985,394.0193 267.15316,391.68961 262.9385,392.0593 C 258.8579,391.60892 254.79087,392.60779 251.07258,394.22638 C 246.02559,395.78394 241.04091,397.73485 236.73005,400.83986 C 233.65295,402.56606 231.05499,404.97739 228.77469,407.6403 C 226.32722,410.00146 224.03908,412.67229 223.04469,415.98975 C 222.19344,418.50642 220.31877,420.8886 220.85828,423.65021 C 220.95439,427.39687 220.9744,431.34269 222.91864,434.68186 C 224.03715,437.36628 225.15567,440.05069 226.27417,442.73511"
       id="path3502" />
    <path
       style="fill:none;fill-rule:evenodd;stroke:#000000;stroke-width:1.25;stroke-linecap:butt;stroke-linejoin:miter;stroke-miterlimit:4;stroke-dasharray:none;stroke-opacity:1;display:inline"
       d="M 219.20309,423.03714 C 214.25583,423.94297 207.88777,421.60492 206.82675,416.18791 C 203.88096,411.03845 205.08788,403.67252 199.72507,399.95871 C 193.69688,398.76934 189.77601,392.0861 191.38404,386.20947 C 192.6136,378.90301 199.72466,375.08077 205.35708,371.37247 C 214.71442,365.67737 225.35703,362.21695 234.09205,355.48309 C 238.71143,351.46679 233.89195,345.24086 236.10729,340.60344 C 239.46226,335.55056 246.09483,335.21842 251.18245,332.86632 C 256.47263,330.82346 262.65946,329.55235 267.93224,332.35723 L 268.70059,332.62848"
       id="path3509" />
    <path
       style="fill:none;fill-rule:evenodd;stroke:#000000;stroke-width:1.25;stroke-linecap:butt;stroke-linejoin:miter;stroke-miterlimit:4;stroke-dasharray:none;stroke-opacity:1;display:inline"
       d="M 245.32965,353.63248 C 244.66989,358.21434 238.22131,362.07117 236.89382,368.08828 C 239.14576,378.57915 234.94746,379.19119 224.5592,379.17351 C 220.60237,380.29119 218.6891,384.38166 217.4693,387.96284 C 216.14409,391.77996 215.6892,395.81937 215.16249,399.80365"
       id="path3522"
       sodipodi:nodetypes="ccccc" />
    <path
       style="fill:none;fill-rule:evenodd;stroke:#000000;stroke-width:1px;stroke-linecap:butt;stroke-linejoin:miter;stroke-opacity:1;display:inline"
       d="M 272.74118,362.42798 C 272.9337,357.74587 274.03362,352.98039 277.70609,349.78177 C 280.0206,347.35229 281.64139,344.33186 281.78428,340.95105 L 281.82328,340.75604 L 281.83255,340.70972"
       id="path3580" />
  </g>
</svg>
